<svg width="24" height="24" viewBox="0 0 24 24" fill="none" xmlns="http://www.w3.org/2000/svg">
<path fill-rule="evenodd" clip-rule="evenodd" d="M6.8603 2.04749C6.2764 2.21296 5.87012 2.65767 5.76041 3.25142C5.7018 3.56866 5.75387 3.70329 5.93514 3.70329C6.09719 3.70329 6.16278 3.62273 6.19298 3.38654C6.30304 2.52703 7.32975 2.15625 7.95536 2.75014C8.34135 3.11652 8.37695 3.75231 8.03469 4.16773C7.88213 4.35288 7.52331 4.53684 7.31341 4.53745C7.22974 4.53772 7.13442 4.57422 7.08293 4.62575C7.00096 4.70776 6.99512 4.77215 6.99512 5.59287V6.47219L6.76841 6.87772C6.27143 7.7667 5.85963 8.17012 4.91309 8.69504C4.54646 8.89838 4.41625 8.99405 4.3838 9.08401C4.33042 9.23204 4.38196 9.27856 4.92056 9.56856C5.8548 10.0715 6.4042 10.6325 6.84678 11.5353L6.9712 11.7892L4.98562 15.7629C3.8935 17.9484 3 19.7563 3 19.7804C3 19.8045 3.03951 19.8638 3.0878 19.9121C3.17434 19.9987 3.23413 20 7.2282 20C11.5869 20 11.4402 20.0077 11.4402 19.7768C11.4402 19.7182 10.5506 17.8901 9.46318 15.7143L7.48613 11.7582L7.75648 11.2819C8.2042 10.4931 8.68392 10.0402 9.60007 9.54124C10.2756 9.17335 10.273 9.09306 9.57202 8.70848C8.59291 8.17126 8.15652 7.73472 7.63799 6.7737L7.43415 6.39585V5.70752C7.43415 5.03431 7.4363 5.01836 7.53293 4.98102C7.92116 4.83093 8.05199 4.75731 8.23976 4.58327C8.35684 4.47473 8.5048 4.28668 8.56854 4.1654C8.67123 3.97001 8.68449 3.89486 8.68488 3.50562C8.68528 3.12781 8.67035 3.03579 8.57789 2.84787C8.27058 2.22297 7.50316 1.86537 6.8603 2.04749ZM16.4225 2.03528C15.8172 2.18779 15.343 2.7301 15.3004 3.31841C15.28 3.60072 15.3312 3.70329 15.4925 3.70329C15.6395 3.70329 15.7316 3.58847 15.7327 3.40367C15.7339 3.1908 15.8612 2.92426 16.0446 2.75014C16.7053 2.123 17.7966 2.57452 17.8009 3.47676C17.8016 3.61491 17.7686 3.81166 17.7277 3.91401C17.5964 4.24244 17.1761 4.53684 16.8373 4.53763C16.7815 4.53776 16.6975 4.55836 16.6508 4.58336C16.5711 4.62601 16.5659 4.68382 16.5659 5.51236V6.39585L16.362 6.7737C15.8341 7.75212 15.3727 8.20342 14.318 8.77292C13.7627 9.07281 13.7579 9.19273 14.2898 9.47491C15.2467 9.98257 15.794 10.4886 16.2435 11.2814L16.5139 11.7582L14.5368 15.7143C13.4494 17.8901 12.5598 19.7182 12.5598 19.7768C12.5598 20.0077 12.4131 20 16.7718 20C20.7659 20 20.8257 19.9987 20.9122 19.9121C20.9605 19.8638 21 19.8045 21 19.7804C21 19.7563 20.1065 17.9484 19.0144 15.7629L17.0288 11.7892L17.1532 11.5353C17.4535 10.9229 17.8726 10.3925 18.3439 10.0287C18.4713 9.93038 18.7901 9.73069 19.0524 9.58494C19.6387 9.25919 19.6695 9.23156 19.6148 9.0801C19.5841 8.99497 19.4456 8.89398 19.0869 8.69504C18.1404 8.17012 17.7286 7.7667 17.2316 6.87772L17.0049 6.47219V5.73497V4.99776L17.214 4.92344C17.7264 4.74136 18.0847 4.35415 18.2146 3.84206C18.4384 2.95931 17.7907 2.07626 16.8732 2.01323C16.7162 2.00242 16.5134 2.01235 16.4225 2.03528ZM7.00908 7.35388C6.59838 8.04533 6.16282 8.47778 5.44071 8.91111L5.07048 9.13325L5.45112 9.35754C6.12195 9.75287 6.62059 10.2494 7.01778 10.9174C7.12933 11.1051 7.22767 11.2586 7.23637 11.2586C7.24501 11.2586 7.31561 11.145 7.39327 11.006C7.77316 10.3263 8.32725 9.76039 9.00915 9.35582C9.20535 9.23942 9.36585 9.1383 9.36585 9.13114C9.36585 9.12398 9.21272 9.02831 9.02561 8.91863C8.34776 8.52118 7.83313 8.00764 7.44771 7.34395C7.33717 7.15358 7.2408 6.99777 7.23364 6.99777C7.22649 6.99777 7.12542 7.15801 7.00908 7.35388ZM16.5243 7.3892C16.1355 8.04629 15.5849 8.57798 14.8866 8.97072C14.7477 9.04878 14.6341 9.11976 14.6341 9.12842C14.6341 9.13712 14.7947 9.23942 14.9909 9.35582C15.6747 9.76157 16.2127 10.3116 16.6052 11.006C16.6837 11.145 16.755 11.2586 16.7636 11.2586C16.7723 11.2586 16.8707 11.1051 16.9822 10.9174C17.3794 10.2494 17.8781 9.75287 18.5489 9.35754L18.9295 9.13325L18.5593 8.91111C17.8372 8.47778 17.4016 8.04533 16.9909 7.35388C16.8746 7.15801 16.7741 6.99777 16.7676 6.99777C16.7611 6.99777 16.6516 7.17391 16.5243 7.3892ZM5.42552 15.8929C4.42955 17.8861 3.61463 19.5268 3.61463 19.5388C3.61463 19.5509 5.24451 19.5607 7.23659 19.5607C9.22866 19.5607 10.8574 19.5459 10.8561 19.5278C10.8548 19.5096 10.0398 17.869 9.04506 15.8818L7.23641 12.2688L5.42552 15.8929ZM14.9524 15.8929C13.9564 17.8861 13.1415 19.5268 13.1415 19.5388C13.1415 19.5509 14.7713 19.5607 16.7634 19.5607C18.7555 19.5607 20.3843 19.5459 20.383 19.5278C20.3816 19.5096 19.5666 17.869 18.5719 15.8818L16.7632 12.2688L14.9524 15.8929Z" fill="black" stroke="black" stroke-width="0.4"/>
</svg>
