<svg width="24" height="24" viewBox="0 0 24 24" fill="none" xmlns="http://www.w3.org/2000/svg">
<g clip-path="url(#clip0_281_6532)">
<path fill-rule="evenodd" clip-rule="evenodd" d="M12.5012 0.0719075C12.2823 0.168372 12.1127 0.308503 11.9547 0.52359L11.8235 0.702147L11.1864 0.71093C10.6069 0.718915 10.5239 0.73189 10.2657 0.854654C10.0881 0.939092 9.95105 1.04409 9.8995 1.13522C9.82681 1.26377 9.75762 1.29581 9.30913 1.40839L8.80108 1.53595L8.5658 1.29715C7.82242 0.542853 6.37216 0.724454 5.40594 1.69279C5.03388 2.06568 4.83681 2.43392 4.76058 2.89868C4.71567 3.17215 4.72167 3.25335 4.80489 3.49913L4.90104 3.78333L4.50385 4.18276C4.18343 4.50499 4.09062 4.57296 4.02374 4.53419C3.97815 4.50774 3.82878 4.46452 3.69176 4.43817C2.54244 4.217 1.22526 5.595 1.21183 7.03259C1.20657 7.59381 1.31143 7.89987 1.63022 8.25379L1.8751 8.52567L1.79936 8.81462C1.75765 8.97356 1.70006 9.19903 1.67139 9.3157C1.64266 9.43233 1.59088 9.5278 1.55625 9.5278C1.33011 9.5278 0.964597 9.70251 0.724149 9.92548C0.249891 10.3653 0 11.0031 0 11.7735C0 12.937 0.614572 13.8856 1.44308 14.0009L1.65693 14.0306L1.78632 14.549L1.91567 15.0674L1.70114 15.268C1.15065 15.7829 1.0848 16.7557 1.538 17.6795C1.78721 18.1876 2.33829 18.7714 2.76838 18.9829C3.12765 19.1597 3.62581 19.2074 3.94819 19.0959L4.16823 19.0199L4.55096 19.4105L4.93374 19.8012L4.84586 20.0847C4.5787 20.9465 5.17257 21.9441 6.28368 22.5001C6.68313 22.7 7.04462 22.769 7.55497 22.7428C8.07251 22.7162 8.32894 22.6048 8.63721 22.2724L8.83974 22.054L9.33805 22.1865C9.8338 22.3183 9.83631 22.3197 9.8368 22.4733C9.83704 22.5582 9.89124 22.7452 9.95719 22.889C10.2627 23.5547 11.0846 24 12.0082 24C13.1744 24 14.093 23.3879 14.2364 22.5152C14.2654 22.3387 14.2934 22.298 14.4022 22.2737C14.4742 22.2575 14.697 22.2006 14.8974 22.1471L15.2616 22.0498L15.4586 22.2578C15.5669 22.3722 15.7793 22.5238 15.9304 22.5947C16.1644 22.7044 16.2711 22.7231 16.6479 22.72C17.667 22.7116 18.7041 22.0692 19.1362 21.1785C19.2818 20.8784 19.3038 20.784 19.3038 20.4579C19.3038 20.2514 19.2752 20.0139 19.2403 19.93C19.1773 19.7787 19.18 19.774 19.5637 19.3789L19.9506 18.9804L20.119 19.0503C20.2345 19.0982 20.4186 19.1137 20.7054 19.0998C21.0635 19.0822 21.1677 19.0553 21.4319 18.9122C21.8246 18.6994 22.296 18.1963 22.5333 17.7367C22.7907 17.2382 22.8839 16.8307 22.8585 16.3148C22.8337 15.8093 22.6957 15.4894 22.376 15.1964L22.17 15.0075L22.2249 14.7254C22.3419 14.1249 22.3625 14.083 22.5602 14.0454C23.3922 13.887 23.9985 12.9506 24 11.8214C24.0016 10.66 23.3857 9.71119 22.5553 9.59572L22.3393 9.56562L22.212 9.04772L22.0846 8.52981L22.2993 8.329C23.0345 7.64142 22.8721 6.17504 21.9512 5.18444C21.3772 4.56707 20.6901 4.32274 20.099 4.52585L19.8123 4.62441L19.4411 4.24774L19.0699 3.87111L19.15 3.61346C19.2532 3.28104 19.2509 3.0674 19.1403 2.70784C18.8415 1.73661 17.8142 0.980313 16.6946 0.907353C16.1265 0.870324 15.7891 0.978067 15.475 1.29685L15.2355 1.53984L14.8843 1.44617C14.6912 1.39467 14.4742 1.33932 14.4022 1.3232C14.2934 1.29885 14.2654 1.25813 14.2365 1.08167C14.1661 0.652343 13.8775 0.262791 13.5014 0.0894738C13.2598 -0.0218623 12.7348 -0.0310946 12.5012 0.0719075ZM12.6642 0.420388C12.556 0.459214 12.3924 0.573794 12.3004 0.674999L12.1334 0.858996L12.263 0.927864C12.5458 1.07822 12.6028 1.43983 12.3815 1.68037L12.2782 1.79265L12.3924 1.91597C12.6252 2.16743 13.1136 2.20396 13.4471 1.99481C13.7727 1.79061 13.9149 1.27135 13.7529 0.877959C13.6674 0.670258 13.4259 0.463605 13.1914 0.397532C12.9586 0.331958 12.9042 0.334304 12.6642 0.420388ZM10.861 1.04489C10.5289 1.08666 10.2543 1.23437 10.2543 1.37126C10.2543 1.54672 10.5861 1.6628 11.1396 1.68112C11.4101 1.69005 11.6565 1.67947 11.6872 1.65766C11.7224 1.63256 11.7337 1.52222 11.7179 1.35709C11.6906 1.07279 11.7216 1.09424 11.238 1.02408C11.1839 1.01624 11.0142 1.02558 10.861 1.04489ZM9.42643 1.74624C8.90176 1.87704 8.89748 1.88053 8.87805 2.19588C8.83315 2.92448 8.24115 3.746 7.48012 4.13585C7.01225 4.37549 6.68613 4.449 6.17612 4.42979C5.77706 4.41477 5.68209 4.39251 5.41149 4.25078L5.10249 4.08899L4.75212 4.43623C4.44286 4.74269 4.40912 4.79389 4.46445 4.87249C4.65336 5.14082 4.74336 5.42682 4.76141 5.81602C4.78586 6.34356 4.71016 6.69419 4.46332 7.19697C4.31676 7.49555 4.16794 7.70215 3.91396 7.95966C3.46784 8.41199 3.1276 8.5863 2.62738 8.61889L2.2623 8.64265L2.16989 8.94801C2.11904 9.11594 2.06287 9.34315 2.04507 9.45294C2.0131 9.65016 2.01541 9.654 2.23958 9.77377C2.62782 9.98118 2.97214 10.4792 3.1244 11.0536C3.22557 11.4352 3.2266 12.2078 3.12642 12.5853C2.96963 13.1762 2.63721 13.6599 2.24145 13.8729C2.11771 13.9395 2.01826 14.0278 2.02048 14.069C2.02269 14.1102 2.07251 14.3236 2.13113 14.5432L2.23776 14.9424L2.58203 14.9798C4.21668 15.1575 5.32134 17.331 4.47252 18.6995C4.40494 18.8086 4.41749 18.8293 4.75212 19.1608L5.10249 19.5079L5.4051 19.3495C5.6542 19.2192 5.77952 19.1873 6.1141 19.1695C6.62942 19.1421 6.97261 19.2149 7.46359 19.4558C8.27858 19.8557 8.82302 20.5776 8.88617 21.3422C8.91976 21.7482 8.87353 21.7101 9.53984 21.8808C9.76317 21.9381 9.86355 21.9459 9.87629 21.9071C9.94362 21.7022 10.2474 21.3513 10.5154 21.1691C10.9594 20.8671 11.3723 20.7463 11.9757 20.742C12.9173 20.7352 13.7753 21.1556 14.0412 21.754C14.1271 21.9473 14.1379 21.9542 14.3074 21.923C14.4045 21.9052 14.6191 21.8488 14.7842 21.7977L15.0844 21.7049L15.1132 21.3562C15.176 20.5966 15.7331 19.8546 16.5313 19.4674C17.054 19.2138 17.3934 19.1397 17.8969 19.1693C18.2211 19.1883 18.353 19.2226 18.6004 19.3521L18.905 19.5115L19.2396 19.1745C19.4237 18.9892 19.5742 18.818 19.5742 18.794C19.5742 18.7701 19.5324 18.6909 19.4814 18.618C19.4303 18.5452 19.3528 18.3636 19.3093 18.2145C18.9102 16.8499 20.0529 15.0763 21.394 14.9789L21.7391 14.9539L21.8653 14.5239C21.9347 14.2875 22.0004 14.0603 22.0113 14.0192C22.0241 13.971 21.9606 13.9099 21.8336 13.848C21.4068 13.6399 21.0218 13.0339 20.8775 12.343C20.7865 11.9073 20.7859 11.6773 20.8746 11.2073C21.0019 10.5318 21.3714 9.94135 21.8057 9.71918C21.9174 9.66209 22.0155 9.60934 22.0238 9.60205C22.0397 9.58798 21.9144 9.06129 21.8325 8.79815C21.7851 8.64604 21.7758 8.6419 21.4291 8.61904C20.9248 8.58576 20.5789 8.4051 20.1149 7.93256C19.5202 7.32697 19.2549 6.65506 19.2868 5.83569C19.3013 5.4633 19.3264 5.35696 19.463 5.08842L19.6222 4.77532L19.2815 4.42964L18.9408 4.08395L18.6562 4.24699C18.3996 4.39391 18.3241 4.41192 17.8907 4.42959C17.4766 4.44646 17.3535 4.43128 17.0043 4.32005C15.9874 3.99612 15.2144 3.13178 15.1582 2.25601C15.1321 1.84835 15.1791 1.88752 14.5099 1.71605C14.2866 1.65881 14.1862 1.65097 14.1735 1.6898C14.1635 1.72019 14.0854 1.84934 14 1.97675C13.6484 2.50099 12.952 2.67067 12.4015 2.36625C12.257 2.28635 12.0988 2.16928 12.0498 2.1061C11.9655 1.99736 11.9468 1.99427 11.6999 2.04801C11.1246 2.17317 10.2497 2.01328 10.0043 1.73816C9.90329 1.62483 9.91387 1.62473 9.42643 1.74624ZM6.78243 1.7659C6.45995 1.88637 6.27906 2.00215 6.01018 2.26015C5.69084 2.56662 5.54955 2.82881 5.54517 3.123C5.53917 3.52557 5.86318 3.72574 6.43344 3.67169C7.25428 3.59394 8.06823 2.87363 8.07802 2.21634C8.08161 1.976 8.0217 1.8736 7.81357 1.76441C7.64207 1.67438 7.02499 1.67528 6.78243 1.7659ZM16.1814 1.77678C15.7451 2.00769 15.8408 2.55364 16.4208 3.14216C16.7344 3.46035 17.1028 3.63152 17.5698 3.67594C17.8973 3.70708 18.251 3.59574 18.3694 3.42422C18.6409 3.03087 18.1517 2.22552 17.4344 1.88493C17.0176 1.68706 16.4445 1.63755 16.1814 1.77678ZM3.10995 5.28495C2.77084 5.44115 2.39632 5.83843 2.21784 6.23133C1.92988 6.86531 1.90052 7.38945 2.13743 7.66867C2.23924 7.78869 2.28852 7.80575 2.52641 7.80351C2.75953 7.80126 2.83822 7.77337 3.07198 7.60998C3.90718 7.02635 4.26645 5.69136 3.69363 5.30027C3.49095 5.16188 3.38335 5.15904 3.10995 5.28495ZM20.3076 5.29992C20.0591 5.46984 20.0091 5.60328 20.0321 6.03451C20.0752 6.84285 20.6539 7.66078 21.3084 7.83839C21.6018 7.91799 21.7492 7.85321 21.8838 7.58553C22.2332 6.89066 21.6978 5.65688 20.8843 5.28205C20.6175 5.15919 20.5086 5.16253 20.3076 5.29992ZM22.1868 10.4114C22.0953 10.4572 21.9568 10.584 21.8789 10.6931C21.3818 11.3895 21.552 12.8516 22.1646 13.1465C22.4913 13.3038 22.7873 13.1277 23.027 12.6336C23.1796 12.3192 23.189 12.2688 23.1879 11.7745C23.1868 11.3332 23.1682 11.2078 23.0713 10.9879C22.9655 10.7478 22.636 10.3762 22.529 10.3762C22.5042 10.3762 22.4545 10.3653 22.4185 10.3522C22.3825 10.3389 22.2782 10.3656 22.1868 10.4114ZM1.37708 10.4667C1.04226 10.6484 0.786905 11.245 0.786905 11.8455C0.786905 12.6769 1.36479 13.4344 1.81765 13.1968C2.19118 13.0008 2.43449 12.4282 2.43449 11.745C2.43449 11.3399 2.41894 11.2617 2.28694 11.0013C2.13286 10.6974 1.88164 10.4528 1.67217 10.4027C1.59678 10.3847 1.48263 10.4094 1.37708 10.4667ZM2.25104 15.814C2.05864 15.9676 2.00115 16.1691 2.02613 16.6025C2.07571 17.4632 2.71915 18.2686 3.42141 18.3489C3.59571 18.3688 3.64922 18.3506 3.78949 18.2234C3.93777 18.089 3.95562 18.043 3.97411 17.7482C4.00756 17.2148 3.79711 16.6787 3.37582 16.2239C3.11486 15.9423 2.72766 15.7173 2.5026 15.7164C2.43188 15.7161 2.31866 15.7601 2.25104 15.814ZM21.2343 15.8157C20.8293 15.9393 20.292 16.559 20.1403 17.0774C20.0387 17.4244 20.0475 17.8404 20.1618 18.0959C20.239 18.2684 20.2856 18.3107 20.428 18.3379C21.1122 18.4681 21.9841 17.4571 21.9841 16.5335C21.9841 16.2091 21.9311 16.062 21.7541 15.8955C21.6131 15.7628 21.4762 15.7418 21.2343 15.8157ZM17.2898 19.9353C16.6328 20.1027 16.0759 20.6058 15.9285 21.1649C15.8563 21.4389 15.9295 21.6214 16.1807 21.794C16.3334 21.8989 16.3973 21.9103 16.7463 21.8946C17.0437 21.8813 17.2089 21.8444 17.4227 21.7435C17.7546 21.5869 18.2154 21.1631 18.3544 20.8867C18.4653 20.6661 18.4865 20.333 18.4 20.1691C18.2644 19.9119 17.7811 19.8101 17.2898 19.9353ZM5.86888 20.0045C5.52368 20.1636 5.46481 20.4481 5.6846 20.8956C5.93906 21.4137 6.61103 21.8457 7.23505 21.8922C7.80865 21.935 8.08382 21.77 8.07812 21.3869C8.07384 21.1004 7.91695 20.7998 7.59053 20.4526C7.36026 20.2076 7.27174 20.1517 6.93445 20.0386C6.47524 19.8846 6.15163 19.8743 5.86888 20.0045ZM11.5286 21.5115C11.184 21.5902 10.8098 21.8513 10.6774 22.1055C10.5605 22.3303 10.5602 22.3335 10.6493 22.524C10.8916 23.0421 11.8636 23.2997 12.6468 23.0533C13.4935 22.7869 13.6606 22.1328 12.9873 21.7199C12.5829 21.4719 12.0412 21.3945 11.5286 21.5115Z" fill="#272622"/>
</g>
<defs>
<clipPath id="clip0_281_6532">
<rect width="24" height="24" fill="white"/>
</clipPath>
</defs>
</svg>
