<svg width="28" height="28" viewBox="0 0 28 28" fill="none" xmlns="http://www.w3.org/2000/svg">
<path fill-rule="evenodd" clip-rule="evenodd" d="M9.00536 3.255L6.41536 6.70833C6.27953 6.88945 6.10338 7.03646 5.90089 7.13771C5.69839 7.23896 5.4751 7.29167 5.2487 7.29167H4.66536C3.81446 7.29167 2.99841 7.62969 2.39673 8.23137C1.79505 8.83304 1.45703 9.6491 1.45703 10.5V22.1667C1.45703 23.0176 1.79505 23.8336 2.39673 24.4353C2.99841 25.037 3.81446 25.375 4.66536 25.375H23.332C24.1829 25.375 24.999 25.037 25.6007 24.4353C26.2023 23.8336 26.5404 23.0176 26.5404 22.1667V10.5C26.5404 9.6491 26.2023 8.83304 25.6007 8.23137C24.999 7.62969 24.1829 7.29167 23.332 7.29167H22.7487C22.5223 7.29167 22.299 7.23896 22.0965 7.13771C21.894 7.03646 21.7179 6.88945 21.582 6.70833L18.992 3.255C18.8453 3.05939 18.6551 2.90063 18.4364 2.79128C18.2177 2.68193 17.9765 2.625 17.732 2.625H10.2654C9.76953 2.625 9.30287 2.85833 9.00536 3.255ZM13.9987 9.625C13.271 9.625 12.5503 9.76834 11.878 10.0468C11.2056 10.3253 10.5947 10.7335 10.0801 11.2481C9.56556 11.7627 9.15736 12.3736 8.87887 13.046C8.60037 13.7183 8.45703 14.4389 8.45703 15.1667C8.45703 15.8944 8.60037 16.615 8.87887 17.2874C9.15736 17.9597 9.56556 18.5706 10.0801 19.0852C10.5947 19.5998 11.2056 20.008 11.878 20.2865C12.5503 20.565 13.271 20.7083 13.9987 20.7083C15.4684 20.7083 16.878 20.1245 17.9172 19.0852C18.9565 18.046 19.5404 16.6364 19.5404 15.1667C19.5404 13.6969 18.9565 12.2874 17.9172 11.2481C16.878 10.2089 15.4684 9.625 13.9987 9.625Z" fill="white"/>
</svg>
