<svg width="24" height="24" viewBox="0 0 24 24" fill="none" xmlns="http://www.w3.org/2000/svg">
<path fill-rule="evenodd" clip-rule="evenodd" d="M6.76247 0.0589657C6.50934 0.167534 6.47673 0.358029 6.50577 1.56168C6.53241 2.66961 6.53668 2.69959 6.7382 3.19092C7.54356 5.15427 10.0762 8.53023 13.2265 11.8397C13.6779 12.3138 15.0212 13.5778 16.2117 14.6484C18.867 17.0365 19.0783 17.2923 19.0139 18.0412C18.9424 18.873 18.4306 19.6438 17.5064 20.3115C17.3192 20.4468 17.0004 20.6293 16.798 20.7171C16.4341 20.8749 16.4139 20.8771 15.0191 20.9063C13.6203 20.9357 13.6048 20.9374 13.2016 21.1011C12.1873 21.513 11.2652 22.4607 11.0623 23.2998C10.9774 23.6511 11.0639 23.8707 11.325 23.9666C11.6614 24.0901 12.0094 23.8563 12.0094 23.5068C12.0094 23.1581 12.6909 22.3899 13.3261 22.0227L13.671 21.8233L15.0818 21.7905C16.6511 21.754 16.863 21.7144 17.5941 21.3204C19.0662 20.5272 19.9929 19.1998 19.9999 17.8743C20.005 16.927 19.7091 16.555 17.0579 14.1757C14.9439 12.2784 14.2904 11.6422 13.0016 10.2267C10.3993 7.3688 8.22332 4.37338 7.65128 2.86172C7.50681 2.48011 7.49477 2.36893 7.49477 1.41785C7.49477 0.320097 7.46016 0.158635 7.20277 0.0545718C7.01999 -0.0192901 6.94312 -0.0185115 6.76247 0.0589657ZM9.54534 15.6431C9.20599 15.7551 8.88163 15.9568 8.40722 16.3504C6.98851 17.5276 6.32129 19.1188 6.54376 20.7943C6.57825 21.0543 6.59712 21.2754 6.58559 21.2856C6.52364 21.3406 5.95066 21.0445 5.66931 20.8122C4.78169 20.0793 4.76984 19.198 5.62611 17.6129C5.97969 16.9584 6.00207 16.8945 5.93072 16.7417C5.82601 16.5174 5.55262 16.4189 5.29642 16.5131C5.13728 16.5715 5.04135 16.6984 4.73416 17.2567C4.10137 18.4069 3.87138 19.3748 4.06858 20.0576C4.38535 21.1543 5.44433 22.0255 6.68309 22.2085C6.87088 22.2362 6.92763 22.2809 7.04331 22.4921C7.25462 22.8779 7.63485 23.207 8.07496 23.3849C8.62411 23.607 9.30707 23.6113 9.83064 23.396C10.2772 23.2122 10.8046 22.7768 11.1223 22.3294C11.4465 21.8728 11.5304 21.624 11.4908 21.2361L11.458 20.9155L12.1256 20.8795C12.9743 20.8337 14.1411 20.6985 14.442 20.6111C14.7452 20.523 14.9382 20.2287 14.8398 20.0046C14.7408 19.7792 14.5064 19.6745 13.9564 19.6101C13.5475 19.5623 13.3615 19.5687 12.9068 19.6466C12.3952 19.7343 10.9876 20.1348 9.98764 20.4773L9.56484 20.6222L9.52521 20.4821C9.50345 20.4052 9.49819 20.1495 9.51355 19.9139C9.53593 19.5711 9.58396 19.4092 9.75464 19.1017C9.9598 18.732 10.0843 18.6075 11.0378 17.8173C11.7688 17.2116 11.5798 16.1386 10.6689 15.7232C10.3514 15.5784 9.84945 15.5426 9.54534 15.6431ZM9.4373 16.716C8.57533 17.2908 7.80835 18.326 7.58513 19.2159C7.37558 20.0515 7.53559 21.4372 7.91858 22.1028C8.32935 22.8167 9.27503 22.8895 9.94858 22.259C10.3533 21.8802 10.6599 21.3522 10.5198 21.2755C10.4881 21.2581 10.2531 21.3171 9.99742 21.4065C9.46853 21.5916 9.25948 21.6087 8.99757 21.4886C8.72995 21.3659 8.62994 21.1451 8.55081 20.502C8.4308 19.527 8.6875 18.7701 9.39617 18.0092C9.58346 17.8081 9.88174 17.5491 10.059 17.4337C10.2362 17.3182 10.409 17.1779 10.4429 17.1217C10.5481 16.9472 10.5111 16.735 10.3506 16.5926C10.1152 16.3838 9.88983 16.4143 9.4373 16.716Z" fill="#272622"/>
</svg>
