<svg width="24" height="24" viewBox="0 0 24 24" fill="none" xmlns="http://www.w3.org/2000/svg">
<path d="M15.0931 12.3432C15.3299 12.6541 15.6381 12.9034 15.9916 13.0698C16.3452 13.2362 16.7337 13.3149 17.1241 13.2992C18.3681 13.2992 19.3781 12.5422 19.3781 11.6082C19.3781 10.6742 18.3681 9.9182 17.1241 9.9182C15.8801 9.9182 14.8691 9.1602 14.8691 8.2262C14.8691 7.2922 15.8791 6.5352 17.1241 6.5352M17.1241 6.5352C17.5146 6.51951 17.9031 6.59821 18.2566 6.76463C18.6102 6.93105 18.9184 7.18029 19.1551 7.4912M17.1241 6.5352V5.4082M17.1241 13.3002V14.4262" stroke="#272622" stroke-width="1.2" stroke-linecap="round" stroke-linejoin="round"/>
<path d="M12 18.25V21.75M7 21.75H17M4.622 6.689H10.634M4.622 10.515H10.634M4.622 14.341H7.628M20.354 2.25H3.646C2.94424 2.25 2.27122 2.52877 1.775 3.025C1.27877 3.52122 1 4.19424 1 4.896V15.604C1 16.3058 1.27877 16.9788 1.775 17.475C2.27122 17.9712 2.94424 18.25 3.646 18.25H20.354C20.7015 18.25 21.0456 18.1816 21.3666 18.0486C21.6876 17.9156 21.9793 17.7207 22.225 17.475C22.4707 17.2293 22.6656 16.9376 22.7986 16.6166C22.9316 16.2956 23 15.9515 23 15.604V4.896C23 4.54852 22.9316 4.20445 22.7986 3.88342C22.6656 3.56239 22.4707 3.2707 22.225 3.025C21.9793 2.77929 21.6876 2.58439 21.3666 2.45141C21.0456 2.31844 20.7015 2.25 20.354 2.25Z" stroke="#272622" stroke-width="1.2" stroke-linecap="round" stroke-linejoin="round"/>
</svg>
