<svg width="24" height="24" viewBox="0 0 24 24" fill="none" xmlns="http://www.w3.org/2000/svg">
<path fill-rule="evenodd" clip-rule="evenodd" d="M8.32276 1.09441C7.90455 1.20895 7.66415 1.32143 7.33913 1.5545C6.76932 1.96316 6.34347 2.55581 6.12956 3.23799L6 3.6512V12.2617V20.8723L6.13028 21.2878C6.43824 22.2699 7.17761 23.0422 8.11864 23.3646L8.51396 23.5H12.1278H15.7416L16.1391 23.3638C17.0707 23.0447 17.7899 22.2965 18.1288 21.2941L18.2555 20.9192L18.2681 12.4025C18.2794 4.64627 18.274 3.85438 18.2068 3.53389C17.9591 2.35211 17.0742 1.39013 15.9611 1.09253C15.4796 0.963822 15.25 0.969922 15.1111 1.1152C14.9797 1.25245 14.9667 1.46173 15.0804 1.60846C15.1393 1.68443 15.2672 1.73365 15.5719 1.79752C16.5873 2.01041 17.2875 2.72619 17.4942 3.76241C17.5527 4.05573 17.5598 5.17726 17.5493 12.4155L17.5373 20.7315L17.4359 21.0435C17.1614 21.8879 16.4829 22.5186 15.6518 22.7018C15.1866 22.8043 9.06891 22.8043 8.60374 22.7018C7.75577 22.5149 7.07615 21.874 6.81879 21.0187L6.71827 20.6846V12.2617V3.83889L6.81771 3.50846C7.00908 2.87269 7.45899 2.3172 8.01274 2.03298C8.48931 1.78837 8.77249 1.75252 10.2331 1.75158L11.5483 1.75078L11.6584 1.63558C11.7279 1.56299 11.7686 1.4668 11.7686 1.37539C11.7686 1.28398 11.7279 1.18779 11.6584 1.1152L11.5483 1L10.0984 1.00258C8.82281 1.00488 8.60949 1.01591 8.32276 1.09441ZM12.5971 1.1152C12.5276 1.18779 12.4869 1.28398 12.4869 1.37539C12.4869 1.4668 12.5276 1.56299 12.5971 1.63558C12.7044 1.74773 12.7253 1.75078 13.3847 1.75078C14.0442 1.75078 14.0651 1.74773 14.1724 1.63558C14.2419 1.56299 14.2826 1.4668 14.2826 1.37539C14.2826 1.28398 14.2419 1.18779 14.1724 1.1152C14.0651 1.00305 14.0442 1 13.3847 1C12.7253 1 12.7044 1.00305 12.5971 1.1152ZM10.8008 5.15558C10.1356 5.58296 9.55473 5.97022 9.51002 6.01616C9.46526 6.0621 9.42773 6.16116 9.42661 6.23624C9.42549 6.31136 9.58966 7.05905 9.79149 7.89781C10.061 9.01812 10.1835 9.45085 10.2531 9.52841L10.3478 9.63399H12.1152H13.8826L13.9847 9.52734C14.0653 9.44306 14.1638 9.09845 14.454 7.88552C14.656 7.04117 14.8213 6.29968 14.8213 6.23774C14.8213 6.1758 14.7859 6.0804 14.7427 6.02578C14.6117 5.86009 12.2604 4.37852 12.1285 4.37852C12.0543 4.37852 11.5601 4.66776 10.8008 5.15558ZM11.185 5.81692C10.6789 6.14314 10.2554 6.41844 10.244 6.42872C10.2326 6.43899 10.3533 6.99546 10.5121 7.6653L10.801 8.88321H12.1278H13.4545L13.7434 7.6653C13.9023 6.99546 14.0229 6.43904 14.0115 6.42886C13.9634 6.38578 12.2068 5.26289 12.1584 5.24426C12.1292 5.233 11.6912 5.49071 11.185 5.81692ZM8.10791 16.8816C8.03841 16.9542 7.9977 17.0504 7.9977 17.1418C7.9977 17.2332 8.03841 17.3294 8.10791 17.402L8.21807 17.5172H9.79338H11.3687L11.4789 17.402C11.5483 17.3294 11.5891 17.2332 11.5891 17.1418C11.5891 17.0504 11.5483 16.9542 11.4789 16.8816L11.3687 16.7664H9.79338H8.21807L8.10791 16.8816ZM12.7767 16.8816C12.7072 16.9542 12.6665 17.0504 12.6665 17.1418C12.6665 17.2332 12.7072 17.3294 12.7767 17.402L12.8868 17.5172H14.4622H16.0375L16.1476 17.402C16.2171 17.3294 16.2578 17.2332 16.2578 17.1418C16.2578 17.0504 16.2171 16.9542 16.1476 16.8816L16.0375 16.7664H14.4622H12.8868L12.7767 16.8816ZM8.10791 19.5094C8.03841 19.5819 7.9977 19.6781 7.9977 19.7696C7.9977 19.861 8.03841 19.9572 8.10791 20.0297L8.21807 20.1449H10.9606H13.7031L13.8132 20.0297C13.9591 19.8774 13.9591 19.6617 13.8132 19.5094L13.7031 19.3942H10.9606H8.21807L8.10791 19.5094ZM14.7519 19.5094C14.6824 19.5819 14.6417 19.6781 14.6417 19.7696C14.6417 19.861 14.6824 19.9572 14.7519 20.0297C14.8577 20.1403 14.8857 20.1449 15.4498 20.1449C16.0139 20.1449 16.0419 20.1403 16.1476 20.0297C16.2171 19.9572 16.2578 19.861 16.2578 19.7696C16.2578 19.6781 16.2171 19.5819 16.1476 19.5094C16.0419 19.3988 16.0139 19.3942 15.4498 19.3942C14.8857 19.3942 14.8577 19.3988 14.7519 19.5094Z" fill="#272622" stroke="#272622" stroke-width="0.6"/>
</svg>
