<svg width="64" height="64" viewBox="0 0 64 64" fill="none" xmlns="http://www.w3.org/2000/svg">
<mask id="path-1-inside-1_654_937" fill="white">
<path fill-rule="evenodd" clip-rule="evenodd" d="M9.60271 7.09382C8.85831 7.27196 7.77348 7.91581 7.24548 8.49301C6.97693 8.78661 6.58673 9.38924 6.3786 9.83194L6 10.6371V33.001V55.3649L6.44678 56.2756C6.98483 57.3726 7.67743 58.0559 8.78953 58.5867L9.58859 58.9681H22.986C30.3546 58.9681 36.5449 58.9615 36.7423 58.9534C36.9396 58.9453 41.0197 58.9603 45.8093 58.9866C51.6757 59.0189 54.67 58.9931 54.9851 58.9076C55.6493 58.7274 56.4155 58.0948 56.7363 57.4615C57.2209 56.505 57.1586 56.0985 55.5066 49.4416C53.8383 42.7185 53.8385 42.7191 52.7464 42.0724L52.1732 41.7329L46.2841 41.6984L40.3951 41.664L40.3629 26.1442L40.3308 10.6244L39.8841 9.7137C39.346 8.61679 38.6533 7.93353 37.5413 7.40273L36.7423 7.02126L23.4047 7.00198C15.6059 6.99065 9.87424 7.02886 9.60271 7.09382ZM9.76802 9.04695C9.18093 9.2334 8.17959 10.2781 7.99956 10.8921C7.88808 11.2723 7.8541 15.8226 7.8541 30.3872V49.3863H22.3115H36.7689L37.584 46.2827L38.399 43.1792L38.4418 27.33C38.4739 15.4293 38.4495 11.3515 38.3437 10.9621C38.1448 10.2298 37.304 9.32283 36.5999 9.08106C36.2899 8.97463 35.6528 8.88942 35.1666 8.88942H34.2916L33.3788 10.7274C32.3551 12.7891 31.9954 13.3072 31.2096 13.8519C30.0404 14.6624 29.9202 14.6747 23.1654 14.6747C16.4106 14.6747 16.2904 14.6624 15.1212 13.8519C14.3355 13.3072 13.9758 12.7891 12.9521 10.7274L12.0392 8.88942L11.113 8.90172C10.6036 8.90846 9.99829 8.97391 9.76802 9.04695ZM14.9032 10.3185C15.6295 11.7786 16.0341 12.2638 16.7918 12.5838C17.3551 12.8216 28.9757 12.8216 29.539 12.5838C30.2968 12.2638 30.7013 11.7786 31.4277 10.3185L32.1387 8.88942H23.1654H14.1922L14.9032 10.3185ZM12.9326 23.6485C12.6225 23.9608 12.5559 24.4174 12.7634 24.8082C12.9188 25.1006 15.1565 26.2452 15.5728 26.2452C16.2188 26.2452 16.6659 25.3991 16.3422 24.7896C16.1868 24.4972 13.9491 23.3526 13.5328 23.3526C13.3641 23.3526 13.094 23.4858 12.9326 23.6485ZM31.2746 23.96C30.0871 24.5686 29.8641 24.7866 29.8641 25.3389C29.8641 25.7415 30.3609 26.2452 30.758 26.2452C31.1743 26.2452 33.412 25.1006 33.5674 24.8082C33.9003 24.1814 33.4411 23.3464 32.7703 23.3587C32.5864 23.3621 31.9133 23.6327 31.2746 23.96ZM19.9055 24.4849C19.3084 24.7048 18.6977 25.1859 18.4001 25.671C18.0615 26.2233 16.6706 31.8637 16.7581 32.3301C16.8667 32.9088 17.2667 33.4628 17.7395 33.6893C18.1737 33.8973 18.161 33.899 15.7366 33.9589C13.3256 34.0184 13.29 34.0231 12.7236 34.3587C11.7176 34.9544 11.558 35.2975 10.7283 38.6458C10.2278 40.6657 10.0085 41.7653 10.0593 41.9984C10.1863 42.5815 10.572 43.0968 11.0744 43.3551C11.533 43.5908 11.7565 43.601 16.4667 43.601C21.177 43.601 21.4004 43.5908 21.8591 43.3551C22.3726 43.0912 22.7642 42.5576 22.874 41.9722C22.9616 41.5058 21.5707 35.8654 21.232 35.3131C20.9328 34.8254 20.3203 34.3443 19.7266 34.1309C19.3351 33.9901 19.7738 33.9695 23.1654 33.9695C26.557 33.9695 26.9958 33.9901 26.6042 34.1309C26.0106 34.3443 25.398 34.8254 25.0988 35.3131C24.7602 35.8654 23.3693 41.5058 23.4568 41.9722C23.5666 42.5576 23.9583 43.0912 24.4718 43.3551C24.9304 43.5908 25.1539 43.601 29.8641 43.601C34.5744 43.601 34.7978 43.5908 35.2565 43.3551C35.7589 43.0968 36.1445 42.5815 36.2716 41.9984C36.3224 41.7653 36.103 40.6657 35.6025 38.6458C34.7728 35.2975 34.6133 34.9544 33.6073 34.3587C33.0405 34.023 33.0064 34.0184 30.5818 33.9589C28.3517 33.9041 28.1652 33.8836 28.5225 33.7317C29.0023 33.5277 29.3414 33.1114 29.5218 32.5045C29.6443 32.0928 29.5828 31.7442 28.9085 29.0226C28.0738 25.6537 27.9155 25.3129 26.9086 24.7166L26.3353 24.3771L23.3449 24.3484C21.0519 24.3263 20.2497 24.3583 19.9055 24.4849ZM20.245 26.5164C19.9928 26.7429 19.8363 27.2197 19.2954 29.409L18.6477 32.0305H23.1654H27.6831L27.0355 29.409C26.4946 27.2197 26.3381 26.7429 26.0858 26.5164C25.792 26.2527 25.7114 26.2452 23.1654 26.2452C20.6194 26.2452 20.5388 26.2527 20.245 26.5164ZM13.5463 36.1585C13.294 36.385 13.1376 36.8618 12.5967 39.0511L11.949 41.6726H16.4667H20.9844L20.3368 39.0511C19.7959 36.8618 19.6394 36.385 19.3871 36.1585C19.0933 35.8948 19.0127 35.8873 16.4667 35.8873C13.9207 35.8873 13.8401 35.8948 13.5463 36.1585ZM26.9437 36.1585C26.6915 36.385 26.535 36.8618 25.9941 39.0511L25.3464 41.6726H29.8641H34.3818L33.7342 39.0511C33.1933 36.8618 33.0368 36.385 32.7845 36.1585C32.4907 35.8948 32.4101 35.8873 29.8641 35.8873C27.3181 35.8873 27.2375 35.8948 26.9437 36.1585ZM40.3408 43.8722C40.0757 44.1099 39.8605 44.8616 38.5996 49.9568C37.8083 53.1543 37.1609 55.9571 37.1609 56.1854C37.1609 56.4901 37.2447 56.6667 37.4761 56.8501C37.7881 57.0974 37.8751 57.1 46.1324 57.1C54.3897 57.1 54.4767 57.0974 54.7887 56.8501C55.0201 56.6667 55.1039 56.4901 55.1039 56.1854C55.1039 55.9571 54.4565 53.1543 53.6652 49.9568C52.4043 44.8616 52.1891 44.1099 51.924 43.8722L51.6215 43.601H46.1324H40.6433L40.3408 43.8722ZM7.8541 52.958C7.8541 53.8959 7.91655 54.8142 7.99956 55.0973C8.19371 55.7593 9.18463 56.7578 9.84171 56.9534C10.2144 57.0644 13.3671 57.1001 22.8204 57.1002L35.3068 57.1004L35.2681 56.3469C35.238 55.7626 35.349 55.1131 35.7628 53.454L36.2962 51.3147H22.0751H7.8541V52.958Z"/>
</mask>
<path fill-rule="evenodd" clip-rule="evenodd" d="M9.60271 7.09382C8.85831 7.27196 7.77348 7.91581 7.24548 8.49301C6.97693 8.78661 6.58673 9.38924 6.3786 9.83194L6 10.6371V33.001V55.3649L6.44678 56.2756C6.98483 57.3726 7.67743 58.0559 8.78953 58.5867L9.58859 58.9681H22.986C30.3546 58.9681 36.5449 58.9615 36.7423 58.9534C36.9396 58.9453 41.0197 58.9603 45.8093 58.9866C51.6757 59.0189 54.67 58.9931 54.9851 58.9076C55.6493 58.7274 56.4155 58.0948 56.7363 57.4615C57.2209 56.505 57.1586 56.0985 55.5066 49.4416C53.8383 42.7185 53.8385 42.7191 52.7464 42.0724L52.1732 41.7329L46.2841 41.6984L40.3951 41.664L40.3629 26.1442L40.3308 10.6244L39.8841 9.7137C39.346 8.61679 38.6533 7.93353 37.5413 7.40273L36.7423 7.02126L23.4047 7.00198C15.6059 6.99065 9.87424 7.02886 9.60271 7.09382ZM9.76802 9.04695C9.18093 9.2334 8.17959 10.2781 7.99956 10.8921C7.88808 11.2723 7.8541 15.8226 7.8541 30.3872V49.3863H22.3115H36.7689L37.584 46.2827L38.399 43.1792L38.4418 27.33C38.4739 15.4293 38.4495 11.3515 38.3437 10.9621C38.1448 10.2298 37.304 9.32283 36.5999 9.08106C36.2899 8.97463 35.6528 8.88942 35.1666 8.88942H34.2916L33.3788 10.7274C32.3551 12.7891 31.9954 13.3072 31.2096 13.8519C30.0404 14.6624 29.9202 14.6747 23.1654 14.6747C16.4106 14.6747 16.2904 14.6624 15.1212 13.8519C14.3355 13.3072 13.9758 12.7891 12.9521 10.7274L12.0392 8.88942L11.113 8.90172C10.6036 8.90846 9.99829 8.97391 9.76802 9.04695ZM14.9032 10.3185C15.6295 11.7786 16.0341 12.2638 16.7918 12.5838C17.3551 12.8216 28.9757 12.8216 29.539 12.5838C30.2968 12.2638 30.7013 11.7786 31.4277 10.3185L32.1387 8.88942H23.1654H14.1922L14.9032 10.3185ZM12.9326 23.6485C12.6225 23.9608 12.5559 24.4174 12.7634 24.8082C12.9188 25.1006 15.1565 26.2452 15.5728 26.2452C16.2188 26.2452 16.6659 25.3991 16.3422 24.7896C16.1868 24.4972 13.9491 23.3526 13.5328 23.3526C13.3641 23.3526 13.094 23.4858 12.9326 23.6485ZM31.2746 23.96C30.0871 24.5686 29.8641 24.7866 29.8641 25.3389C29.8641 25.7415 30.3609 26.2452 30.758 26.2452C31.1743 26.2452 33.412 25.1006 33.5674 24.8082C33.9003 24.1814 33.4411 23.3464 32.7703 23.3587C32.5864 23.3621 31.9133 23.6327 31.2746 23.96ZM19.9055 24.4849C19.3084 24.7048 18.6977 25.1859 18.4001 25.671C18.0615 26.2233 16.6706 31.8637 16.7581 32.3301C16.8667 32.9088 17.2667 33.4628 17.7395 33.6893C18.1737 33.8973 18.161 33.899 15.7366 33.9589C13.3256 34.0184 13.29 34.0231 12.7236 34.3587C11.7176 34.9544 11.558 35.2975 10.7283 38.6458C10.2278 40.6657 10.0085 41.7653 10.0593 41.9984C10.1863 42.5815 10.572 43.0968 11.0744 43.3551C11.533 43.5908 11.7565 43.601 16.4667 43.601C21.177 43.601 21.4004 43.5908 21.8591 43.3551C22.3726 43.0912 22.7642 42.5576 22.874 41.9722C22.9616 41.5058 21.5707 35.8654 21.232 35.3131C20.9328 34.8254 20.3203 34.3443 19.7266 34.1309C19.3351 33.9901 19.7738 33.9695 23.1654 33.9695C26.557 33.9695 26.9958 33.9901 26.6042 34.1309C26.0106 34.3443 25.398 34.8254 25.0988 35.3131C24.7602 35.8654 23.3693 41.5058 23.4568 41.9722C23.5666 42.5576 23.9583 43.0912 24.4718 43.3551C24.9304 43.5908 25.1539 43.601 29.8641 43.601C34.5744 43.601 34.7978 43.5908 35.2565 43.3551C35.7589 43.0968 36.1445 42.5815 36.2716 41.9984C36.3224 41.7653 36.103 40.6657 35.6025 38.6458C34.7728 35.2975 34.6133 34.9544 33.6073 34.3587C33.0405 34.023 33.0064 34.0184 30.5818 33.9589C28.3517 33.9041 28.1652 33.8836 28.5225 33.7317C29.0023 33.5277 29.3414 33.1114 29.5218 32.5045C29.6443 32.0928 29.5828 31.7442 28.9085 29.0226C28.0738 25.6537 27.9155 25.3129 26.9086 24.7166L26.3353 24.3771L23.3449 24.3484C21.0519 24.3263 20.2497 24.3583 19.9055 24.4849ZM20.245 26.5164C19.9928 26.7429 19.8363 27.2197 19.2954 29.409L18.6477 32.0305H23.1654H27.6831L27.0355 29.409C26.4946 27.2197 26.3381 26.7429 26.0858 26.5164C25.792 26.2527 25.7114 26.2452 23.1654 26.2452C20.6194 26.2452 20.5388 26.2527 20.245 26.5164ZM13.5463 36.1585C13.294 36.385 13.1376 36.8618 12.5967 39.0511L11.949 41.6726H16.4667H20.9844L20.3368 39.0511C19.7959 36.8618 19.6394 36.385 19.3871 36.1585C19.0933 35.8948 19.0127 35.8873 16.4667 35.8873C13.9207 35.8873 13.8401 35.8948 13.5463 36.1585ZM26.9437 36.1585C26.6915 36.385 26.535 36.8618 25.9941 39.0511L25.3464 41.6726H29.8641H34.3818L33.7342 39.0511C33.1933 36.8618 33.0368 36.385 32.7845 36.1585C32.4907 35.8948 32.4101 35.8873 29.8641 35.8873C27.3181 35.8873 27.2375 35.8948 26.9437 36.1585ZM40.3408 43.8722C40.0757 44.1099 39.8605 44.8616 38.5996 49.9568C37.8083 53.1543 37.1609 55.9571 37.1609 56.1854C37.1609 56.4901 37.2447 56.6667 37.4761 56.8501C37.7881 57.0974 37.8751 57.1 46.1324 57.1C54.3897 57.1 54.4767 57.0974 54.7887 56.8501C55.0201 56.6667 55.1039 56.4901 55.1039 56.1854C55.1039 55.9571 54.4565 53.1543 53.6652 49.9568C52.4043 44.8616 52.1891 44.1099 51.924 43.8722L51.6215 43.601H46.1324H40.6433L40.3408 43.8722ZM7.8541 52.958C7.8541 53.8959 7.91655 54.8142 7.99956 55.0973C8.19371 55.7593 9.18463 56.7578 9.84171 56.9534C10.2144 57.0644 13.3671 57.1001 22.8204 57.1002L35.3068 57.1004L35.2681 56.3469C35.238 55.7626 35.349 55.1131 35.7628 53.454L36.2962 51.3147H22.0751H7.8541V52.958Z" fill="#272622" stroke="#F8F1EB" stroke-width="0.4" mask="url(#path-1-inside-1_654_937)"/>
</svg>
