<svg width="24" height="24" viewBox="0 0 24 24" fill="none" xmlns="http://www.w3.org/2000/svg">
<path d="M9.01309 13.4664H3.67051C3.32381 13.4623 2.98644 13.5787 2.71607 13.7957C2.44569 14.0128 2.2591 14.317 2.1882 14.6564L1.02757 20.523C0.988474 20.7384 0.997661 20.9598 1.05447 21.1712C1.11129 21.3826 1.21431 21.5788 1.35611 21.7456C1.49791 21.9123 1.67495 22.0456 1.87447 22.1356C2.07399 22.2257 2.29101 22.2704 2.50989 22.2664H10.1737C10.3926 22.2704 10.6096 22.2257 10.809 22.1357C11.0085 22.0456 11.1855 21.9123 11.3272 21.7455C11.469 21.5787 11.5719 21.3826 11.6286 21.1711C11.6853 20.9597 11.6943 20.7384 11.655 20.523L10.4944 14.6564C10.4235 14.3171 10.2371 14.0131 9.96693 13.796C9.69675 13.579 9.35961 13.4625 9.01309 13.4664ZM20.3299 13.4664H14.9873C14.6408 13.4625 14.3036 13.579 14.0335 13.796C13.7633 14.0131 13.5768 14.3171 13.506 14.6564L12.3454 20.523C12.3061 20.7384 12.3151 20.9597 12.3718 21.1711C12.4285 21.3826 12.5314 21.5787 12.6731 21.7455C12.8149 21.9123 12.9919 22.0456 13.1914 22.1357C13.3908 22.2257 13.6078 22.2704 13.8267 22.2664H21.4905C21.7093 22.2702 21.9263 22.2254 22.1257 22.1353C22.3251 22.0452 22.5021 21.9119 22.6439 21.7452C22.7856 21.5785 22.8887 21.3824 22.9455 21.171C23.0024 20.9597 23.0117 20.7384 22.9728 20.523L21.8122 14.6564C21.7413 14.317 21.5547 14.0128 21.2843 13.7957C21.0139 13.5787 20.6766 13.4623 20.3299 13.4664Z" stroke="#272622" stroke-linecap="round" stroke-linejoin="round"/>
<path d="M20.0667 3.20031H23M21.5333 1.73364V4.66698M1 6.86698H3.93333M2.46667 5.40031V8.33364M14.8796 4.66698H9.53698C9.19028 4.66282 8.85291 4.77922 8.58254 4.99627C8.31216 5.21332 8.12557 5.51754 8.05467 5.85693L6.89404 11.7236C6.85494 11.939 6.86413 12.1604 6.92094 12.3718C6.97776 12.5832 7.08078 12.7793 7.22258 12.9461C7.36438 13.1129 7.54142 13.2461 7.74094 13.3362C7.94046 13.4263 8.15748 13.4709 8.37636 13.467H16.0402C16.259 13.471 16.476 13.4263 16.6755 13.3362C16.875 13.2461 17.052 13.1129 17.1937 12.9461C17.3354 12.7793 17.4384 12.5831 17.4951 12.3717C17.5517 12.1603 17.5608 11.9389 17.5215 11.7236L16.3609 5.85693C16.29 5.51771 16.1036 5.21361 15.8334 4.99658C15.5632 4.77955 15.2261 4.66305 14.8796 4.66698Z" stroke="#272622" stroke-linecap="round" stroke-linejoin="round"/>
</svg>
