<svg width="18" height="18" viewBox="0 0 18 18" fill="none" xmlns="http://www.w3.org/2000/svg">
<path d="M10.6917 8.36H7.30827C6.7898 8.36 6.29257 8.16521 5.92596 7.81848C5.55935 7.47174 5.35339 7.00147 5.35339 6.51112C5.35339 6.02077 5.55935 5.5505 5.92596 5.20376C6.29257 4.85703 6.7898 4.66224 7.30827 4.66224H12.7218V3.38224H9.84587V1H8.49248V3.38224H7.30827C6.43086 3.38224 5.58939 3.71189 4.96897 4.29867C4.34855 4.88545 4 5.68129 4 6.51112C4 7.34095 4.34855 8.13679 4.96897 8.72357C5.58939 9.31035 6.43086 9.64 7.30827 9.64H10.6917C11.21 9.64055 11.7069 9.83552 12.0734 10.1821C12.4399 10.5287 12.646 10.9987 12.6466 11.4889V11.6311C12.646 12.1213 12.4399 12.5913 12.0734 12.9379C11.7069 13.2845 11.21 13.4794 10.6917 13.48H4.96492V14.76H8.49248V17H9.84587V14.76H10.6917C11.5688 14.7591 12.4097 14.4291 13.0299 13.8425C13.6502 13.256 13.999 12.4607 14 11.6311V11.4889C13.999 10.6593 13.6502 9.86403 13.0299 9.27746C12.4097 8.69088 11.5688 8.36093 10.6917 8.36Z" fill="black"/>
</svg>
