<svg width="24" height="24" viewBox="0 0 24 24" fill="none" xmlns="http://www.w3.org/2000/svg">
<path fill-rule="evenodd" clip-rule="evenodd" d="M6.58205 1.04637C5.95481 1.23532 5.53509 1.68809 5.46272 2.25399C5.43529 2.46809 5.4439 2.50658 5.54033 2.60083C5.60269 2.66181 5.70146 2.70683 5.77285 2.70683C5.93403 2.70683 6.10026 2.54231 6.10157 2.38157C6.10326 2.17297 6.26593 1.9049 6.47532 1.76557C7.31743 1.20522 8.34379 2.14803 7.73378 2.92158C7.58052 3.11599 7.28976 3.26336 7.05664 3.26491C6.96765 3.26551 6.87379 3.30387 6.81087 3.36536C6.71116 3.46289 6.7091 3.49054 6.7091 4.71991C6.7091 5.74037 6.69735 5.97495 6.64637 5.97495C6.51343 5.97495 6.00598 6.24405 5.86933 6.38707C5.79041 6.46959 5.66884 6.63803 5.59913 6.76131C5.49039 6.95357 5.47236 7.03751 5.47236 7.35099C5.47236 7.66271 5.49067 7.74884 5.5966 7.93611C5.66495 8.05695 5.77435 8.21416 5.8397 8.28554L5.9586 8.41528L5.76841 8.53637C5.29073 8.84044 4.93159 9.37043 4.82832 9.92373C4.66017 10.8244 5.18905 11.7525 6.08706 12.1327C6.26186 12.2066 6.41278 12.2729 6.42252 12.28C6.43225 12.287 6.23044 12.5887 5.9741 12.9503C3.21333 16.8443 2.37651 19.6643 3.45573 21.437C4.08156 22.4649 5.55752 23.0663 7.27085 22.9913C8.82334 22.9233 10.0101 22.3751 10.6075 21.4498C11.682 19.7855 10.8038 16.8324 8.07139 12.9222L7.6146 12.2685L7.87572 12.174C8.81 11.8361 9.40363 10.8875 9.25027 9.97748C9.19265 9.63549 8.98494 9.1927 8.75958 8.9313C8.67687 8.83536 8.49036 8.67651 8.3452 8.57834L8.08122 8.39984L8.21328 8.2545C8.47112 7.97077 8.55361 7.75078 8.55188 7.35099C8.55089 7.11238 8.52463 6.93323 8.47623 6.83498C8.28968 6.45613 7.93437 6.1451 7.54002 6.01541L7.36448 5.95766V4.89918V3.8407L7.63168 3.73896C7.96503 3.61206 8.26908 3.33792 8.43321 3.01627C8.60571 2.67824 8.60871 2.14695 8.43995 1.8253C8.2952 1.54949 7.96602 1.24771 7.6719 1.12124C7.3832 0.997095 6.864 0.961446 6.58205 1.04637ZM16.5063 1.04637C16.0377 1.18751 15.7521 1.41197 15.5209 1.8207C15.415 2.00784 15.3966 2.09432 15.3964 2.40582C15.3963 2.72399 15.414 2.80389 15.533 3.02268C15.6998 3.32915 16.0297 3.61085 16.376 3.74274L16.6334 3.8407V4.90782C16.6334 5.77121 16.6214 5.97495 16.5706 5.97495C16.4377 5.97495 15.9302 6.24405 15.7936 6.38707C15.7147 6.46959 15.5931 6.63803 15.5234 6.76131C15.4146 6.95357 15.3966 7.03751 15.3966 7.35099C15.3966 7.66271 15.4149 7.74884 15.5209 7.93611C15.5892 8.05695 15.6986 8.21416 15.7639 8.28554L15.8829 8.41528L15.6927 8.53637C15.215 8.84044 14.8558 9.37043 14.7526 9.92373C14.5844 10.8244 15.1133 11.7525 16.0113 12.1327C16.1861 12.2066 16.337 12.2729 16.3468 12.28C16.3565 12.287 16.1547 12.5887 15.8983 12.9503C12.8716 17.2194 12.1475 20.2454 13.7528 21.9152C14.7513 22.9538 17.1415 23.3171 18.8804 22.6946C20.6437 22.0634 21.3428 20.5381 20.842 18.4149C20.5029 16.9772 19.4985 15.0263 18.0397 12.9717C17.7745 12.5983 17.5656 12.2866 17.5753 12.2789C17.585 12.2712 17.7405 12.2012 17.9207 12.1233C18.1467 12.0256 18.3378 11.8981 18.5367 11.7125C19.2161 11.0783 19.3856 10.188 18.9787 9.38935C18.7921 9.02298 18.5968 8.79971 18.2694 8.57834L18.0055 8.39984L18.1375 8.2545C18.3954 7.97077 18.4779 7.75078 18.4761 7.35099C18.4751 7.11238 18.4489 6.93323 18.4005 6.83498C18.2139 6.45613 17.8586 6.1451 17.4643 6.01541L17.2887 5.95766V4.70524C17.2887 3.46117 17.288 3.45226 17.1834 3.36501C17.1229 3.31453 16.9792 3.26542 16.8456 3.24956C16.4063 3.19739 16.0929 2.90623 16.0408 2.50189C15.9475 1.77873 16.9133 1.31784 17.5273 1.79241C17.7009 1.92657 17.848 2.1983 17.8494 2.38759C17.8507 2.54777 18.0177 2.70683 18.1847 2.70683C18.2494 2.70683 18.3511 2.65914 18.4107 2.60083C18.507 2.50666 18.5157 2.468 18.4884 2.2551C18.4274 1.77835 18.0711 1.32545 17.5961 1.12124C17.3074 0.997095 16.7883 0.961446 16.5063 1.04637ZM6.74117 6.5777C6.39625 6.67277 6.1026 7.02844 6.1026 7.35099C6.1026 7.43377 6.1415 7.5789 6.18902 7.6735C6.56721 8.42625 7.81449 8.27501 7.91392 7.46439C7.98713 6.86779 7.37304 6.40346 6.74117 6.5777ZM16.6654 6.5777C16.3205 6.67277 16.0268 7.02844 16.0268 7.35099C16.0268 7.43377 16.0658 7.5789 16.1133 7.6735C16.4915 8.42625 17.7387 8.27501 17.8382 7.46439C17.9114 6.86779 17.2973 6.40346 16.6654 6.5777ZM6.58383 8.82917C6.1511 8.95964 5.80412 9.2496 5.59974 9.65157C5.48837 9.87062 5.46857 9.96475 5.46857 10.2751C5.46857 10.5806 5.48893 10.6805 5.59253 10.8835C5.75038 11.1927 6.03781 11.4568 6.37449 11.6018C6.59741 11.6978 6.70128 11.7153 7.03679 11.7136C7.37632 11.7118 7.47102 11.6943 7.68215 11.5938C8.03291 11.427 8.26248 11.2211 8.44467 10.9101C8.58811 10.6653 8.60267 10.6072 8.60379 10.2751C8.60482 9.96785 8.58544 9.87187 8.48213 9.67307C8.20373 9.1374 7.71398 8.81997 7.11684 8.78819C6.90557 8.77692 6.7062 8.79227 6.58383 8.82917ZM16.5081 8.82938C16.0759 8.95921 15.7285 9.24947 15.524 9.65157C15.4126 9.87062 15.3928 9.96475 15.3928 10.2751C15.3928 10.7141 15.5245 11.0195 15.8375 11.3071C16.1506 11.5947 16.4832 11.7156 16.961 11.7156C17.4389 11.7156 17.7715 11.5947 18.0845 11.3071C18.3976 11.0195 18.5293 10.7141 18.5293 10.2751C18.5293 9.96914 18.5089 9.86981 18.4047 9.66555C18.1297 9.12657 17.6405 8.8112 17.0394 8.78518C16.8389 8.77649 16.6248 8.7943 16.5081 8.82938ZM6.58098 13.1884C4.97821 15.4513 4.05291 17.2765 3.7307 18.8109C3.62154 19.3307 3.62233 20.1358 3.73234 20.5094C3.99459 21.4002 4.70576 21.9969 5.84307 22.2803C6.16055 22.3595 6.34233 22.3737 7.03679 22.3737C7.98212 22.3737 8.33467 22.309 8.98204 22.0169C9.64766 21.7164 10.0699 21.2757 10.2802 20.6618C10.4271 20.2327 10.4253 19.26 10.2764 18.6437C9.97072 17.3787 9.20051 15.7734 8.07687 14.0592C7.56844 13.2836 7.08023 12.5972 7.03707 12.5972C7.01652 12.5972 6.81129 12.8633 6.58098 13.1884ZM16.5052 13.1884C14.9025 15.4513 13.9772 17.2765 13.655 18.8109C13.5458 19.3307 13.5466 20.1358 13.6566 20.5094C13.9188 21.4002 14.63 21.9969 15.7673 22.2803C16.0848 22.3595 16.2666 22.3737 16.961 22.3737C17.9127 22.3737 18.2577 22.3094 18.9272 22.0076C20.0006 21.5236 20.4999 20.5384 20.3312 19.2369C20.1573 17.8957 19.4681 16.3112 18.21 14.3602C17.7268 13.611 17.0086 12.5972 16.961 12.5972C16.9407 12.5972 16.7355 12.8633 16.5052 13.1884ZM6.83845 14.199C6.72516 14.2793 6.00214 15.5403 5.65737 16.2588C5.01177 17.6044 4.74218 18.5004 4.70848 19.4129C4.67557 20.3054 4.83431 20.7709 5.32533 21.222C6.18256 22.0094 7.76786 22.0462 8.67176 21.2996C8.95531 21.0655 9.20692 20.6247 9.30701 20.1869C9.5303 19.2099 9.20486 17.8475 8.32371 16.0704C7.97313 15.3633 7.33901 14.2741 7.23429 14.199C7.19305 14.1694 7.1042 14.1452 7.03679 14.1452C6.96938 14.1452 6.88016 14.1694 6.83845 14.199ZM16.7627 14.199C16.6494 14.2793 15.9264 15.5403 15.5816 16.2588C14.936 17.6044 14.6664 18.5004 14.6327 19.4129C14.5997 20.3083 14.7582 20.7707 15.2548 21.2268C16.1617 22.0599 17.8724 22.0355 18.7337 21.1772C19.8263 20.0883 19.4193 17.939 17.5118 14.7257C17.2054 14.2094 17.1444 14.1452 16.961 14.1452C16.8936 14.1452 16.8044 14.1694 16.7627 14.199ZM6.65073 15.7255C6.06075 16.7803 5.65961 17.7123 5.44315 18.5314C5.2912 19.1064 5.28624 19.9531 5.43285 20.2883C5.57896 20.6223 5.71892 20.7933 5.98351 20.9609C6.68406 21.4045 7.87937 21.2904 8.3319 20.7366C8.9253 20.0105 8.82807 18.7721 8.0375 16.9864C7.76426 16.3692 7.08969 15.0913 7.03716 15.0913C7.01975 15.0913 6.84584 15.3767 6.65073 15.7255ZM16.575 15.7255C15.985 16.7803 15.5839 17.7123 15.3674 18.5314C15.2154 19.1064 15.2105 19.9531 15.3571 20.2883C15.5033 20.6225 15.6432 20.7934 15.9078 20.9606C16.6464 21.4277 17.909 21.2747 18.3577 20.6638C18.659 20.2535 18.7377 19.45 18.5563 18.6356C18.4442 18.132 18.1821 17.405 17.8755 16.7468C17.6252 16.2095 17.0072 15.0913 16.9606 15.0913C16.9436 15.0913 16.7701 15.3767 16.575 15.7255Z" fill="#272622" stroke="#272622" stroke-width="0.2"/>
</svg>
