<svg width="18" height="18" viewBox="0 0 18 18" fill="none" xmlns="http://www.w3.org/2000/svg">
<g clip-path="url(#clip0_281_5804)">
<path d="M7.28167 16.2078L3.75277 13.9816C2.30088 13.0657 1.57493 12.6078 1.42607 11.8552C1.27721 11.1027 1.76928 10.3784 2.75342 8.92977L6.28233 3.73531C7.52116 1.91177 8.14058 1 8.9999 1C9.85922 1 10.4786 1.91177 11.7175 3.73531L15.2464 8.92977C16.2305 10.3784 16.7226 11.1027 16.5737 11.8552C16.4249 12.6078 15.6989 13.0657 14.247 13.9816L10.7181 16.2078C9.88099 16.7359 9.46242 17 8.9999 17C8.53739 17 8.11882 16.7359 7.28167 16.2078Z" stroke="#272622" stroke-width="0.9" stroke-linecap="round" stroke-linejoin="round"/>
<path d="M8.9998 1L10.5998 10.6M16.1998 11.8552L10.5998 10.6M8.9998 17L10.5998 10.6M1.7998 11.8552L10.5998 10.6" stroke="#272622" stroke-width="0.9" stroke-linecap="round" stroke-linejoin="round"/>
</g>
<defs>
<clipPath id="clip0_281_5804">
<rect width="18" height="18" fill="white"/>
</clipPath>
</defs>
</svg>
