<svg width="18" height="18" viewBox="0 0 18 18" fill="none" xmlns="http://www.w3.org/2000/svg">
<path d="M8.99987 5.13795C9.6993 5.699 10.2042 6.46614 10.4429 7.33044C10.6816 8.19474 10.6419 9.11227 10.3295 9.95274C10.017 10.7932 9.4478 11.5139 8.70253 12.0125C7.95727 12.511 7.07388 12.7621 6.1778 12.7301C5.28172 12.6981 4.4185 12.3846 3.71071 11.8341C3.00293 11.2836 2.48656 10.5242 2.23493 9.66353C1.9833 8.80291 2.0092 7.88489 2.30895 7.03982C2.6087 6.19476 3.16706 5.4656 3.90475 4.9559M6.3332 12.7333V17" stroke="#1A1A1A" stroke-width="1.2" stroke-linecap="round" stroke-linejoin="round"/>
<path d="M7.31771 10.2971C6.67783 9.7577 6.21069 9.04207 5.97444 8.23923C5.73819 7.43639 5.74326 6.5818 5.98901 5.78182C6.23476 4.98184 6.71035 4.2718 7.35658 3.74006C8.00281 3.20832 8.79115 2.87836 9.62348 2.79126C10.4558 2.70415 11.2954 2.86375 12.0377 3.25017C12.78 3.6366 13.3923 4.2328 13.7984 4.96457C14.2044 5.69633 14.3863 6.53136 14.3214 7.36571C14.2565 8.20007 13.9476 8.99691 13.4333 9.65707M13.0841 4.01653L15.9335 1M15.9335 1H13.2669M15.9335 1V3.66667M4.2002 14.8667H8.46686" stroke="#1A1A1A" stroke-width="1.2" stroke-linecap="round" stroke-linejoin="round"/>
</svg>
