<svg width="24" height="24" viewBox="0 0 24 24" fill="none" xmlns="http://www.w3.org/2000/svg">
<path fill-rule="evenodd" clip-rule="evenodd" d="M4.1719 3.02922C3.63137 3.11703 3.15976 3.33275 2.88272 3.61887C2.6904 3.81754 1.18384 6.45682 1.06548 6.80252C0.968867 7.08459 0.980729 7.66277 1.09072 8.03273C1.48598 9.36235 2.87349 11.0336 4.88983 12.6087C5.36825 12.9825 6.3043 13.6473 6.35209 13.6473C6.38806 13.6473 6.65044 13.2226 6.65044 13.1644C6.65044 13.1439 6.5097 13.0314 6.33773 12.9145C6.07225 12.734 4.94055 11.8709 4.63561 11.6163L4.54011 11.5366L4.8021 11.0701C4.9462 10.8135 5.07293 10.5807 5.08366 10.5528C5.09445 10.525 4.9924 10.4369 4.85688 10.357C4.56888 10.1872 4.61176 10.1578 4.29116 10.7458C4.1304 11.0408 4.07916 11.103 4.02275 11.0719C3.93333 11.0226 2.92818 9.95871 2.70972 9.68215L2.54353 9.47175L2.82859 8.96608C2.98533 8.68797 3.11339 8.44273 3.11309 8.42109C3.11283 8.39945 3.0003 8.31827 2.8631 8.24064L2.61358 8.09947L2.3999 8.49534C2.28241 8.71307 2.17514 8.89157 2.16155 8.89201C2.11234 8.89352 1.73882 8.10876 1.66782 7.85468C1.61917 7.68059 1.60062 7.48899 1.61188 7.27704C1.62827 6.96821 1.64005 6.93964 2.05847 6.19354C2.29483 5.77208 2.50066 5.42718 2.51588 5.42705C2.53107 5.42696 2.55682 5.48183 2.57303 5.54906C2.63126 5.79003 2.93254 6.39474 3.19383 6.7951C3.93924 7.93716 5.28147 9.26397 6.87839 10.4374C7.40572 10.8248 8.54605 11.577 8.56796 11.5518C8.57516 11.5434 8.64525 11.4283 8.72366 11.2961C8.86216 11.0625 8.86389 11.0537 8.78276 10.9952C8.73682 10.962 8.32072 10.6781 7.85813 10.3642C6.62262 9.52587 5.73492 8.79257 4.87818 7.90254C3.56546 6.53875 2.86823 5.21847 3.06504 4.46917C3.30175 3.56799 4.79153 3.35755 6.96086 3.91894C9.35482 4.53849 12.1348 5.9927 14.6104 7.92045C14.6376 7.94164 14.7295 7.85824 14.8414 7.71054C14.9436 7.57577 15.0203 7.46006 15.0118 7.45344C12.1754 5.22798 8.82722 3.57959 6.19755 3.11409C5.61035 3.01012 4.5603 2.96613 4.1719 3.02922ZM4.84709 4.44935C4.3779 4.552 4.10677 4.85326 4.10737 5.27135C4.10802 5.73 4.42292 6.27592 5.11252 7.01403C6.05789 8.02589 7.53564 9.17017 9.25704 10.2234C9.82578 10.5713 9.86123 10.5866 9.91816 10.5084C10.0387 10.3429 10.1503 10.081 10.1153 10.0457C10.0956 10.0258 9.798 9.83558 9.45402 9.62296C6.89991 8.04433 4.82988 6.17208 4.72196 5.34311C4.6988 5.16528 4.70246 5.15875 4.86559 5.08819C5.17036 4.95639 5.98232 5.0721 6.93079 5.38252C8.52004 5.90258 10.7316 7.03082 12.5297 8.23869C12.8644 8.46357 13.1406 8.6214 13.1604 8.59914C13.281 8.46295 13.46 8.16448 13.4405 8.13205C13.3652 8.00656 11.6589 6.93302 10.6244 6.36031C8.23653 5.03833 5.81557 4.23753 4.84709 4.44935ZM16.1826 4.87144V5.24913H15.7944H15.4062V5.55844V5.86775L15.7836 5.88059L16.1611 5.89343L16.1735 6.28223L16.186 6.67104H16.4862H16.7865V6.27113V5.87121H17.1531H17.5197V5.56017V5.24913H17.1531H16.7865V4.87144V4.49374H16.4845H16.1826V4.87144ZM18.5549 7.14244C16.8165 7.36164 15.1979 7.89583 13.1849 8.91476C8.77189 11.1485 5.35647 14.5232 5.35647 16.6498C5.35647 16.8235 5.38279 17.0558 5.41496 17.1659C5.50934 17.489 7.03056 20.1718 7.2451 20.3936C7.45209 20.6075 7.82272 20.8027 8.24632 20.9209C8.62791 21.0274 9.81361 21.0261 10.4245 20.9186C13.9439 20.2993 18.5451 17.7083 21.1872 14.858C22.0106 13.9697 22.5391 13.1817 22.8187 12.4253C23.0021 11.9289 23.0537 11.3044 22.9396 10.9596C22.8243 10.6107 21.3162 7.95915 21.1149 7.75129C20.7355 7.35942 20.1434 7.16328 19.2666 7.13898C18.9582 7.1304 18.6379 7.132 18.5549 7.14244ZM18.2598 7.80901C14.6244 8.3176 9.36965 11.3984 7.01326 14.4027C6.30435 15.3065 5.96032 16.0427 5.96032 16.6561C5.96032 16.9914 6.02679 17.1739 6.21916 17.3669C7.08059 18.231 9.75517 17.8418 12.8416 16.4031C16.3558 14.765 19.6359 12.0726 20.6521 9.99203C21.0618 9.15324 21.0756 8.58812 20.6957 8.19967C20.2907 7.78541 19.423 7.64629 18.2598 7.80901ZM18.2745 8.58559C15.8822 8.91956 11.3317 11.3664 8.72077 13.7226C7.18808 15.1058 6.69452 16.0781 7.21499 16.6887C7.82095 17.3997 10.0791 16.8678 13.0555 15.3129C16.2888 13.6239 19.1853 11.3102 19.7615 9.95648C19.9102 9.60723 19.9237 9.23171 19.7958 9.00487C19.5916 8.64251 19.0117 8.48268 18.2745 8.58559ZM18.1883 9.22829C16.3893 9.54044 13.0403 11.1898 10.676 12.9281C9.77363 13.5915 9.23702 14.0486 8.63162 14.6692C8.03463 15.2812 7.72662 15.6954 7.63549 16.0088C7.58899 16.1687 7.59291 16.1931 7.67935 16.2822C7.76411 16.3695 7.81712 16.3796 8.17205 16.3764C8.68148 16.3717 9.13191 16.274 10.0031 15.979C13.012 14.96 17.0548 12.3982 18.6882 10.4754C19.0848 10.0084 19.2996 9.6234 19.2801 9.41452C19.2688 9.29463 19.2412 9.26157 19.1156 9.2174C18.9221 9.14946 18.6223 9.15297 18.1883 9.22829ZM21.4441 9.63704C21.4432 9.75502 21.0464 10.5803 20.8374 10.8992C20.1528 11.9434 18.8751 13.2422 17.5001 14.2914C14.7946 16.3561 11.421 17.9521 8.95308 18.335C8.10554 18.4665 7.2498 18.4647 6.78911 18.3304C6.70586 18.3062 6.75413 18.4147 7.09979 19.0294C7.32485 19.4296 7.55936 19.8222 7.62095 19.9018C7.85404 20.203 8.5275 20.4175 9.16089 20.3923L9.49055 20.3791L9.27821 20.0087C9.16141 19.805 9.06583 19.6215 9.06583 19.6009C9.06583 19.5498 9.53912 19.2744 9.57082 19.3071C9.5848 19.3215 9.71583 19.5486 9.86201 19.8118L10.1278 20.2902L10.3566 20.2801C10.6055 20.2691 11.2768 20.1143 11.891 19.9264C12.1045 19.861 12.2859 19.8027 12.294 19.7967C12.3022 19.7907 12.1918 19.58 12.0488 19.3287L11.7887 18.8716L12.0497 18.7201C12.2598 18.5981 12.3181 18.5805 12.3489 18.6296C12.3699 18.6631 12.4949 18.8855 12.6267 19.1238C12.7585 19.3621 12.8929 19.5571 12.9254 19.5571C13 19.5571 14.2406 19.0261 14.5874 18.8458C14.8048 18.7327 14.8409 18.698 14.8074 18.6337C14.7855 18.5914 14.668 18.3793 14.5464 18.1623C14.4247 17.9453 14.3307 17.7637 14.3373 17.7588C14.344 17.7538 14.4603 17.6855 14.5957 17.6071L14.8418 17.4643L14.9443 17.6331C15.0006 17.726 15.1196 17.9369 15.2086 18.1018C15.2977 18.2668 15.3948 18.4018 15.4244 18.4018C15.515 18.4018 17.2178 17.3828 17.2178 17.3286C17.2178 17.3123 17.1022 17.0922 16.9609 16.8395C16.6767 16.331 16.6746 16.3612 17.0086 16.1656L17.2092 16.0482L17.4739 16.5156C17.6485 16.824 17.7564 16.9726 17.7909 16.9524C18.1324 16.7519 19.4714 15.7022 19.4458 15.6551C19.4367 15.6383 19.3086 15.4079 19.1611 15.1431C19.0137 14.8783 18.8994 14.6554 18.9073 14.6479C18.9151 14.6404 19.0272 14.5703 19.1564 14.4922C19.4301 14.3268 19.385 14.2954 19.7078 14.8764C19.821 15.08 19.9251 15.2467 19.9392 15.2468C19.9784 15.247 21.1937 13.9587 21.3322 13.7701L21.454 13.6041L21.162 13.086C20.8343 12.5046 20.8317 12.5489 21.2045 12.3502C21.4041 12.2438 21.3911 12.233 21.6523 12.7249C21.7398 12.8897 21.8214 13.0247 21.8336 13.0249C21.8459 13.025 21.9166 12.9202 21.9908 12.7919C22.3172 12.2274 22.4722 11.6314 22.3905 11.2556C22.3472 11.0567 21.5416 9.55928 21.4779 9.55928C21.4597 9.55928 21.4445 9.59425 21.4441 9.63704ZM2.71632 14.2582L2.70385 14.647L2.32645 14.6599L1.94904 14.6727V14.982V15.2913H2.33723H2.72542V15.669V16.0467H3.00578H3.28614V15.669V15.2913H3.67433H4.06251V14.982V14.6727L3.68511 14.6599L3.3077 14.647L3.29524 14.2582L3.28277 13.8694H3.00578H2.72878L2.71632 14.2582Z" fill="black"/>
</svg>
