<svg width="24" height="24" viewBox="0 0 24 24" fill="none" xmlns="http://www.w3.org/2000/svg">
<path d="M9.01321 12.7325H3.67063C3.32394 12.7284 2.98656 12.8448 2.71619 13.0618C2.44581 13.2789 2.25922 13.5831 2.18832 13.9225L1.0277 19.7892C0.988596 20.0045 0.997783 20.2259 1.0546 20.4373C1.11141 20.6487 1.21443 20.8449 1.35623 21.0117C1.49803 21.1784 1.67507 21.3117 1.87459 21.4017C2.07411 21.4918 2.29114 21.5365 2.51001 21.5325H10.1738C10.3927 21.5365 10.6097 21.4919 10.8092 21.4018C11.0086 21.3117 11.1856 21.1785 11.3274 21.0117C11.4691 20.8449 11.572 20.6487 11.6287 20.4373C11.6854 20.2258 11.6944 20.0045 11.6552 19.7892L10.4945 13.9225C10.4237 13.5833 10.2372 13.2792 9.96705 13.0621C9.69688 12.8451 9.35973 12.7286 9.01321 12.7325ZM20.33 12.7325H14.9874C14.6409 12.7286 14.3038 12.8451 14.0336 13.0621C13.7634 13.2792 13.577 13.5833 13.5061 13.9225L12.3455 19.7892C12.3062 20.0045 12.3152 20.2258 12.3719 20.4373C12.4286 20.6487 12.5315 20.8449 12.6733 21.0117C12.815 21.1785 12.992 21.3117 13.1915 21.4018C13.391 21.4919 13.608 21.5365 13.8268 21.5325H21.4906C21.7094 21.5363 21.9264 21.4915 22.1258 21.4014C22.3252 21.3113 22.5022 21.178 22.644 21.0113C22.7857 20.8446 22.8888 20.6485 22.9457 20.4372C23.0025 20.2258 23.0119 20.0045 22.9729 19.7892L21.8123 13.9225C21.7414 13.5831 21.5548 13.2789 21.2844 13.0618C21.0141 12.8448 20.6767 12.7284 20.33 12.7325Z" fill="white"/>
<path d="M14.8804 3.93321H9.53782C9.19112 3.92906 8.85375 4.04545 8.58338 4.2625C8.313 4.47955 8.12641 4.78378 8.05551 5.12317L6.89488 10.9898C6.85578 11.2052 6.86497 11.4266 6.92178 11.638C6.97859 11.8494 7.08162 12.0456 7.22342 12.2124C7.36522 12.3791 7.54226 12.5124 7.74178 12.6024C7.9413 12.6925 8.15832 12.7372 8.37719 12.7332H16.041C16.2599 12.7372 16.4769 12.6925 16.6763 12.6025C16.8758 12.5124 17.0528 12.3791 17.1946 12.2123C17.3363 12.0455 17.4392 11.8494 17.4959 11.6379C17.5526 11.4265 17.5616 11.2052 17.5224 10.9898L16.3617 5.12317C16.2909 4.78394 16.1044 4.47985 15.8342 4.26282C15.5641 4.04579 15.2269 3.92929 14.8804 3.93321Z" fill="white"/>
<path d="M20.0667 2.46667H23ZM21.5333 1V3.93333ZM1 6.13333H3.93333ZM2.46667 4.66667V7.6Z" fill="white"/>
<path d="M20.0667 2.46667H23M21.5333 1V3.93333M1 6.13333H3.93333M2.46667 4.66667V7.6" stroke="white" stroke-linecap="round" stroke-linejoin="round"/>
</svg>
