<svg width="164" height="164" viewBox="0 0 164 164" fill="none" xmlns="http://www.w3.org/2000/svg">
<path d="M164 125.427H0V125.509H164V125.427Z" fill="#EBEBEB"/>
<path d="M147.566 130.705H136.703V130.787H147.566V130.705Z" fill="#EBEBEB"/>
<path d="M108.639 131.597H105.789V131.679H108.639V131.597Z" fill="#EBEBEB"/>
<path d="M136.376 127.661H130.082V127.743H136.376V127.661Z" fill="#EBEBEB"/>
<path d="M31.3734 128.212H17.207V128.294H31.3734V128.212Z" fill="#EBEBEB"/>
<path d="M36.3731 128.212H34.2969V128.294H36.3731V128.212Z" fill="#EBEBEB"/>
<path d="M73.8481 129.596H43.1211V129.678H73.8481V129.596Z" fill="#EBEBEB"/>
<path d="M77.7344 110.798H14.4009C13.9047 110.798 13.4292 110.6 13.0786 110.249C12.7281 109.898 12.5312 109.422 12.5313 108.926V19.8965C12.5356 19.4032 12.7343 18.9315 13.0844 18.5839C13.4345 18.2363 13.9075 18.0409 14.4009 18.04H77.7344C78.2311 18.04 78.7075 18.2373 79.0587 18.5886C79.4099 18.9398 79.6073 19.4162 79.6073 19.9129V108.926C79.6073 109.422 79.4099 109.899 79.0587 110.25C78.7075 110.601 78.2311 110.798 77.7344 110.798ZM14.4009 18.1056C13.9264 18.1065 13.4718 18.2955 13.1366 18.6313C12.8015 18.9671 12.6132 19.4221 12.6133 19.8965V108.926C12.6132 109.4 12.8015 109.855 13.1366 110.191C13.4718 110.526 13.9264 110.716 14.4009 110.716H77.7344C78.2091 110.716 78.6641 110.527 78.9998 110.191C79.3354 109.855 79.5244 109.4 79.5253 108.926V19.8965C79.5244 19.4218 79.3354 18.9668 78.9998 18.6311C78.6641 18.2954 78.2091 18.1065 77.7344 18.1056H14.4009Z" fill="#EBEBEB"/>
<path d="M148.686 110.798H85.3494C84.853 110.798 84.3771 110.6 84.0261 110.249C83.675 109.898 83.4774 109.422 83.4766 108.926V19.8965C83.4817 19.4029 83.6812 18.9312 84.0318 18.5837C84.3824 18.2362 84.8558 18.0408 85.3494 18.04H148.686C149.179 18.0417 149.651 18.2375 150.001 18.5851C150.35 18.9326 150.548 19.4038 150.553 19.8965V108.926C150.553 109.421 150.356 109.896 150.006 110.248C149.657 110.599 149.182 110.797 148.686 110.798ZM85.3494 18.1056C84.8747 18.1065 84.4197 18.2954 84.0841 18.6311C83.7484 18.9668 83.5594 19.4218 83.5586 19.8965V108.926C83.5594 109.4 83.7484 109.855 84.0841 110.191C84.4197 110.527 84.8747 110.716 85.3494 110.716H148.686C149.161 110.716 149.616 110.527 149.952 110.191C150.287 109.855 150.476 109.4 150.477 108.926V19.8965C150.476 19.4218 150.287 18.9668 149.952 18.6311C149.616 18.2954 149.161 18.1065 148.686 18.1056H85.3494Z" fill="#EBEBEB"/>
<path d="M117.858 62.402C127.354 62.402 135.052 54.7041 135.052 45.2083C135.052 35.7124 127.354 28.0145 117.858 28.0145C108.362 28.0145 100.664 35.7124 100.664 45.2083C100.664 54.7041 108.362 62.402 117.858 62.402Z" fill="#E0E0E0"/>
<path d="M116.553 62.402C126.049 62.402 133.747 54.7041 133.747 45.2083C133.747 35.7124 126.049 28.0145 116.553 28.0145C107.057 28.0145 99.3594 35.7124 99.3594 45.2083C99.3594 54.7041 107.057 62.402 116.553 62.402Z" fill="#F2F2F2"/>
<path d="M127.789 56.4477C133.995 50.2416 133.995 40.1796 127.789 33.9735C121.583 27.7675 111.521 27.7675 105.315 33.9735C99.1091 40.1796 99.1091 50.2416 105.315 56.4477C111.521 62.6537 121.583 62.6537 127.789 56.4477Z" fill="white"/>
<path d="M119.262 56.7735C119.176 56.7737 119.092 56.7446 119.024 56.691C118.956 56.6374 118.908 56.5625 118.888 56.4783L116.179 45.3001C116.16 45.2024 116.179 45.1011 116.233 45.0172C116.286 44.9333 116.37 44.8733 116.467 44.8497C116.564 44.826 116.666 44.8405 116.752 44.8902C116.838 44.9399 116.902 45.0209 116.93 45.1164L119.636 56.2979C119.66 56.3975 119.643 56.5025 119.59 56.5897C119.536 56.677 119.45 56.7396 119.351 56.7637C119.322 56.7702 119.292 56.7735 119.262 56.7735Z" fill="#F2F2F2"/>
<path d="M116.553 45.979C116.452 45.9791 116.351 45.9591 116.258 45.9203C116.164 45.8814 116.08 45.8245 116.008 45.7527L106.709 36.4539C106.638 36.3822 106.581 36.2971 106.543 36.2035C106.504 36.1099 106.484 36.0096 106.484 35.9083C106.485 35.7038 106.566 35.5077 106.711 35.3633C106.856 35.2189 107.052 35.138 107.257 35.1383C107.461 35.1386 107.657 35.2201 107.802 35.365L116.553 44.1193L121.66 39.0123C121.805 38.8679 122.001 38.787 122.205 38.7873C122.41 38.7876 122.606 38.8691 122.75 39.014C122.895 39.1588 122.976 39.3551 122.975 39.5596C122.975 39.7641 122.893 39.9602 122.749 40.1046L117.097 45.7527C116.953 45.8973 116.757 45.9787 116.553 45.979Z" fill="#EBEBEB"/>
<path d="M72.651 123.033H75.2422V105.288H72.651V123.033Z" fill="#F2F2F2"/>
<path d="M20.2417 125.427H73.5352V123.033H20.2417V125.427Z" fill="#F2F2F2"/>
<path d="M72.6506 105.288H18.5273V123.033H72.6506V105.288Z" fill="#F2F2F2"/>
<path d="M69.1478 108.378H22.0273V118.513H69.1478V108.378Z" fill="#F2F2F2"/>
<path d="M34.1275 109.732H57.0547C57.484 109.732 57.832 109.384 57.832 108.955V108.811C57.832 108.381 57.484 108.033 57.0547 108.033H34.1275C33.6981 108.033 33.3501 108.381 33.3501 108.811V108.955C33.3501 109.384 33.6981 109.732 34.1275 109.732Z" fill="#F2F2F2"/>
<path d="M17.3417 105.288H72.6523V103.704H17.3417V105.288Z" fill="#F2F2F2"/>
<path d="M76.4867 103.704H72.6523V105.288H76.4867V103.704Z" fill="#E6E6E6"/>
<path d="M140.938 86.5526H135.887V125.427H140.938V86.5526Z" fill="#F2F2F2"/>
<path d="M91.6756 125.427H135.887V86.5527H91.6756V125.427Z" fill="#F2F2F2"/>
<path d="M91.2743 122.013H130.09V101.221H91.2743V122.013Z" fill="#FAFAFA"/>
<path d="M91.2743 99.0167H130.09V92.1713H91.2743V99.0167Z" fill="#FAFAFA"/>
<g style="mix-blend-mode:multiply" opacity="0.7">
<path d="M130.438 101.221H130.09V122.013H130.438V101.221Z" fill="#E6E6E6"/>
</g>
<g style="mix-blend-mode:multiply" opacity="0.7">
<path d="M130.438 92.1713H130.09V99.0167H130.438V92.1713Z" fill="#E6E6E6"/>
</g>
<g style="mix-blend-mode:multiply" opacity="0.7">
<path d="M140.94 88.1927H91.5664V89.0717H140.94V88.1927Z" fill="#E6E6E6"/>
</g>
<path d="M141.528 86.0213H135.887V88.5633H141.528V86.0213Z" fill="#F2F2F2"/>
<path d="M91.0852 88.5633H135.887V86.0213H91.0852V88.5633Z" fill="#F2F2F2"/>
<path d="M107.892 78.5363C107.587 78.0562 107.386 77.5177 107.301 76.9554C107.212 76.3937 107.184 75.8241 107.216 75.2563C107.286 74.1266 107.527 73.0141 107.931 71.9566C108.123 71.4319 108.342 70.9174 108.587 70.415C108.849 69.923 109.112 69.431 109.407 68.962C109.702 68.493 110.027 68.0403 110.361 67.6008C110.696 67.1613 111.073 66.7513 111.464 66.3544C111.273 66.8825 111.047 67.381 110.808 67.8796C110.568 68.3782 110.381 68.88 110.152 69.3654L109.515 70.8414L109.223 71.586L109.072 71.9566L108.941 72.3306C108.567 73.3161 108.269 74.3294 108.052 75.3613C107.94 75.8768 107.863 76.3996 107.823 76.9258C107.774 77.4633 107.797 78.005 107.892 78.5363Z" fill="#E6E6E6"/>
<path d="M101.527 79.4055C101.569 78.6136 101.499 77.8197 101.32 77.0472C101.152 76.3429 100.823 75.6872 100.359 75.1317C99.864 74.5811 99.2782 74.1196 98.6271 73.7672C97.9547 73.3769 97.2135 73.0718 96.4492 72.711C97.2985 72.6205 98.1573 72.7122 98.9683 72.98C99.3872 73.1172 99.7881 73.3044 100.162 73.5376C100.545 73.7839 100.89 74.0831 101.189 74.4265C101.784 75.129 102.131 76.0091 102.173 76.9291C102.218 77.8015 101.992 78.6665 101.527 79.4055Z" fill="#E6E6E6"/>
<path d="M101.812 79.2907C101.784 78.3678 101.698 77.4475 101.553 76.5355C101.418 75.6664 101.176 74.8172 100.835 74.0066C100.493 73.2098 100.023 72.4741 99.4441 71.8287C98.819 71.1614 98.124 70.5632 97.3711 70.0444C98.3411 70.1948 99.2561 70.5924 100.028 71.199C100.819 71.8274 101.44 72.6437 101.835 73.5737C102.225 74.4888 102.418 75.4755 102.403 76.4699C102.408 77.4414 102.207 78.403 101.812 79.2907Z" fill="#E6E6E6"/>
<path d="M107.458 77.6147C106.745 76.6901 106.14 75.6877 105.654 74.6266C105.159 73.5682 104.752 72.4712 104.437 71.3466C104.117 70.2189 103.905 69.0636 103.804 67.896C103.696 66.7287 103.75 65.5521 103.964 64.3995C104.204 65.5508 104.387 66.6627 104.65 67.7681C104.912 68.8735 105.175 69.9624 105.486 71.0481C105.798 72.1338 106.113 73.2195 106.451 74.3051C106.788 75.3908 107.133 76.4929 107.458 77.6147Z" fill="#E6E6E6"/>
<path d="M107.159 77.5326C106.347 76.7384 105.624 75.8586 105.001 74.9086C104.378 73.9613 103.829 72.9666 103.361 71.9337C102.886 70.8983 102.509 69.8211 102.233 68.716C101.954 67.609 101.827 66.4691 101.856 65.3278C102.269 66.397 102.626 67.4335 103.05 68.4536C103.473 69.4737 103.892 70.4839 104.362 71.4843C104.831 72.4847 105.283 73.4818 105.762 74.4855C106.241 75.4892 106.703 76.4896 107.159 77.5326Z" fill="#E6E6E6"/>
<path d="M108.38 78.5823C107.46 78.0952 106.606 77.4935 105.838 76.7914C105.064 76.094 104.358 75.3253 103.729 74.4954C103.087 73.67 102.537 72.7769 102.089 71.832C101.64 70.8879 101.342 69.8798 101.203 68.8439C101.767 69.7263 102.266 70.5889 102.843 71.4122C103.42 72.2355 103.978 73.0522 104.591 73.8361C105.205 74.62 105.818 75.4072 106.454 76.1879C107.091 76.9685 107.737 77.7623 108.38 78.5823Z" fill="#E6E6E6"/>
<path d="M106.599 77.5392C105.705 77.1713 104.877 76.6619 104.145 76.0304C103.408 75.4097 102.747 74.7027 102.177 73.9246C101.888 73.5366 101.621 73.1325 101.377 72.7143C101.14 72.2902 100.928 71.8521 100.744 71.4023C100.367 70.5114 100.135 69.5656 100.059 68.6012C100.574 69.4245 100.997 70.2412 101.508 71.0087C101.738 71.4056 102.013 71.773 102.253 72.16C102.492 72.547 102.771 72.9078 103.053 73.2686C103.596 73.999 104.164 74.7151 104.759 75.417C105.336 76.1288 105.943 76.8209 106.599 77.5392Z" fill="#E6E6E6"/>
<path d="M107.998 78.1001C107.574 77.8006 107.235 77.396 107.014 76.9259C106.786 76.4567 106.626 75.9575 106.538 75.4433C106.374 74.4236 106.403 73.3822 106.624 72.3732C106.73 71.8781 106.861 71.3887 107.017 70.9071C107.204 70.438 107.371 69.9624 107.594 69.5131C107.817 69.0637 108.054 68.6242 108.319 68.2011C108.593 67.7818 108.887 67.3767 109.202 66.9875C109.097 67.4827 108.949 67.9518 108.808 68.4208C108.667 68.8899 108.549 69.3622 108.395 69.8181C108.241 70.274 108.149 70.7463 108.008 71.2023L107.847 71.8943C107.791 72.1239 107.726 72.3535 107.693 72.5864C107.495 73.4971 107.394 74.4261 107.391 75.358C107.387 75.8235 107.429 76.2882 107.516 76.7455C107.598 77.2213 107.761 77.6795 107.998 78.1001Z" fill="#E6E6E6"/>
<path d="M107.386 77.0537C106.667 76.2851 106.145 75.353 105.867 74.3379C105.564 73.3131 105.467 72.2385 105.582 71.176C105.598 70.9103 105.664 70.6512 105.706 70.3888L105.782 69.9952L105.897 69.6147C105.982 69.3622 106.054 69.1096 106.149 68.8636C106.244 68.6176 106.369 68.3814 106.477 68.1453L106.654 67.7943L106.867 67.4663L107.3 66.8103C107.624 66.4066 107.974 66.0242 108.347 65.6656C108.176 66.1609 107.95 66.6102 107.766 67.076L107.507 67.7746L107.376 68.1026L107.271 68.4569C107.202 68.6898 107.13 68.9226 107.054 69.1522L106.894 69.8574L106.808 70.2084L106.759 70.5626C106.73 70.7988 106.671 71.0349 106.658 71.2711C106.558 72.226 106.571 73.1893 106.697 74.1411C106.818 75.1344 107.049 76.1112 107.386 77.0537Z" fill="#E6E6E6"/>
<path d="M106.005 76.6536L101.305 72.4716L102 78.1493L106.005 76.6536Z" fill="#E6E6E6"/>
<path d="M96.9453 75.8894H110.584L108.796 86.0213H98.7329L96.9453 75.8894Z" fill="#F2F2F2"/>
<path d="M105.465 75.8894H110.582L108.794 86.0213H106.108L105.465 75.8894Z" fill="#EBEBEB"/>
<path d="M122.628 78.556C122.692 78.1081 122.673 77.6522 122.572 77.2112C122.485 76.7892 122.35 76.3786 122.168 75.9878C121.801 75.2035 121.335 74.4694 120.781 73.8033C120.656 73.6229 120.496 73.4753 120.355 73.3014C120.213 73.1276 120.069 72.9734 119.918 72.7996C119.59 72.4716 119.308 72.1436 118.983 71.8156C118.659 71.4876 118.347 71.1596 118.019 70.8316C117.691 70.5036 117.363 70.1756 117.035 69.8181C117.478 69.9854 117.898 70.192 118.324 70.4019C118.738 70.6294 119.14 70.8779 119.528 71.1465C119.724 71.2805 119.912 71.4251 120.092 71.5794C120.276 71.7303 120.456 71.8878 120.637 72.0419C120.986 72.3719 121.315 72.7236 121.621 73.0948C122.25 73.8532 122.71 74.738 122.969 75.6893C123.093 76.1707 123.136 76.6696 123.097 77.1653C123.074 77.6638 122.912 78.1458 122.628 78.556Z" fill="#E6E6E6"/>
<path d="M130.293 77.1817C129.947 76.8838 129.692 76.4953 129.555 76.0599C129.479 75.8357 129.43 75.6035 129.407 75.3678C129.401 75.2477 129.401 75.1272 129.407 75.007C129.403 74.887 129.414 74.7669 129.44 74.6495C129.633 73.7165 130.12 72.8701 130.831 72.2354C130.995 72.0747 131.182 71.9468 131.356 71.8025C131.529 71.6588 131.713 71.5294 131.907 71.4154C132.097 71.3039 132.287 71.1891 132.484 71.0874C132.579 71.035 132.674 70.9759 132.776 70.93L133.078 70.8021C133.281 70.7168 133.484 70.6381 133.688 70.5594C133.89 70.4775 134.098 70.4117 134.311 70.3626C134.733 70.2525 135.162 70.1649 135.593 70.1002C135.254 70.3688 134.901 70.6184 134.534 70.848C134.354 70.9562 134.183 71.0776 134.012 71.2022C133.842 71.3269 133.684 71.4384 133.494 71.5532C133.137 71.7664 132.838 72.0386 132.51 72.2682C132.346 72.3831 132.191 72.5091 132.044 72.6454C131.893 72.7766 131.716 72.8947 131.592 73.0325C131.024 73.5347 130.575 74.1579 130.28 74.8562C130.217 75.0318 130.167 75.2115 130.129 75.3941C130.099 75.5839 130.083 75.7758 130.083 75.9681C130.083 76.3817 130.154 76.7922 130.293 77.1817Z" fill="#E6E6E6"/>
<path d="M129.942 77.1817C129.35 76.41 129.027 75.465 129.024 74.4921C129.01 73.4955 129.264 72.5135 129.759 71.6483L130.152 71.0251C130.303 70.8316 130.464 70.6479 130.625 70.4642L130.871 70.192L131.14 69.9558L131.691 69.4934C132.08 69.2231 132.484 68.9746 132.901 68.7488C133.329 68.5548 133.767 68.384 134.213 68.2371C133.885 68.5848 133.557 68.8931 133.206 69.1883C132.855 69.4835 132.57 69.8214 132.261 70.133C132.117 70.3035 131.976 70.461 131.828 70.6282L131.609 70.8677L131.422 71.1301C131.297 71.3039 131.159 71.4581 131.038 71.6418L130.71 72.183C130.294 72.9129 130.013 73.7117 129.88 74.5413C129.744 75.4182 129.765 76.3122 129.942 77.1817Z" fill="#E6E6E6"/>
<path d="M123.047 77.6671C123.319 76.6536 123.614 75.6762 123.9 74.7151C124.185 73.7541 124.464 72.7734 124.72 71.8025C124.976 70.8316 125.189 69.8542 125.376 68.8505C125.563 67.8468 125.664 66.8825 125.753 65.8198C126.098 66.8214 126.26 67.8768 126.232 68.9358C126.192 69.99 126.039 71.0368 125.776 72.0583C125.508 73.0736 125.147 74.0619 124.697 75.0103C124.257 75.9596 123.703 76.8517 123.047 77.6671Z" fill="#E6E6E6"/>
<path d="M123.387 77.5031C123.813 76.5191 124.272 75.5351 124.725 74.5938C125.178 73.6524 125.634 72.6947 126.07 71.7435C126.506 70.7923 126.926 69.8378 127.316 68.8702C127.706 67.9026 128.041 66.9022 128.369 65.8723C128.47 66.9612 128.392 68.0594 128.136 69.1227C127.877 70.1801 127.518 71.2103 127.064 72.1994C126.607 73.1805 126.073 74.1238 125.466 75.0202C124.866 75.9211 124.168 76.7537 123.387 77.5031Z" fill="#E6E6E6"/>
<path d="M122.051 78.7528C122.69 77.8738 123.363 77.0439 124.019 76.2141C124.675 75.3843 125.331 74.5741 125.967 73.7377C126.603 72.9013 127.227 72.0715 127.824 71.2121C128.421 70.3527 128.965 69.4671 129.519 68.5291C129.374 69.613 129.052 70.6657 128.565 71.6451C128.077 72.6178 127.497 73.5415 126.833 74.4035C126.168 75.2573 125.437 76.0568 124.645 76.7947C123.854 77.54 122.984 78.1967 122.051 78.7528Z" fill="#E6E6E6"/>
<path d="M124.059 77.3227C124.685 76.5388 125.312 75.7975 125.928 75.0464C126.545 74.2953 127.142 73.5507 127.726 72.793C128.309 72.0354 128.851 71.2547 129.366 70.4577C129.881 69.6606 130.35 68.8177 130.855 67.9452C130.781 68.9535 130.532 69.9413 130.12 70.8644C129.709 71.7862 129.191 72.656 128.575 73.4556C127.965 74.2513 127.277 74.9841 126.522 75.6434C125.779 76.3094 124.95 76.8741 124.059 77.3227Z" fill="#E6E6E6"/>
<path d="M122.456 78.2379C122.812 77.5264 122.983 76.7369 122.954 75.9419C122.911 75.183 122.717 74.4404 122.384 73.7574L122.272 73.4917L122.131 73.2359L121.855 72.7176C121.636 72.3896 121.439 72.0387 121.199 71.7008C120.96 71.363 120.744 71.0251 120.501 70.6873C120.246 70.3474 120.008 69.9949 119.789 69.6311C120.166 69.8386 120.532 70.0663 120.885 70.3134C121.229 70.5752 121.557 70.8567 121.869 71.1563C122.024 71.3087 122.17 71.4708 122.305 71.6418C122.445 71.8101 122.583 71.9807 122.718 72.1535L123.069 72.7209L123.236 73.0095L123.374 73.3179C123.774 74.1493 123.922 75.0797 123.801 75.9943C123.742 76.4405 123.593 76.87 123.361 77.2559C123.13 77.6419 122.822 77.9761 122.456 78.2379Z" fill="#E6E6E6"/>
<path d="M123.066 77.1915C123.335 76.3786 123.52 75.5399 123.617 74.6889C123.705 73.8955 123.646 73.0926 123.443 72.3207C123.341 71.9402 123.198 71.5718 123.016 71.2219C122.836 70.8611 122.623 70.5174 122.38 70.1953C121.858 69.5129 121.286 68.8704 120.668 68.2732C121.547 68.5335 122.352 68.9963 123.02 69.6246C123.368 69.9447 123.67 70.3111 123.918 70.7135C124.174 71.1201 124.369 71.5622 124.496 72.0255C124.743 72.9527 124.728 73.9303 124.453 74.8496C124.205 75.7387 123.726 76.5465 123.066 77.1915Z" fill="#E6E6E6"/>
<path d="M124.668 76.4142L129.798 71.4876L129.591 76.319L124.668 76.4142Z" fill="#E6E6E6"/>
<path d="M119.059 75.8894H132.697L130.909 86.0213H120.846L119.059 75.8894Z" fill="#F2F2F2"/>
<path d="M127.574 75.8894H132.694L130.907 86.0213H128.22L127.574 75.8894Z" fill="#EBEBEB"/>
<path d="M34.0695 29.7562V82.8922C34.0695 85.1017 33.1917 87.2208 31.6293 88.7832C30.0669 90.3456 27.9479 91.2234 25.7383 91.2234H64.4423C66.6522 91.2234 68.7716 90.3457 70.3345 88.7834C71.8974 87.2211 72.7759 85.102 72.7768 82.8922V29.7562H34.0695Z" fill="#F2F2F2"/>
<path d="M66.7014 43.2075H41.6914V68.2175H66.7014V43.2075Z" fill="#F2F2F2"/>
<path d="M65.9358 42.4366H40.9258V67.4466H65.9358V42.4366Z" fill="white"/>
<path d="M47.063 71.1498H40.7031V77.5097H47.063V71.1498Z" fill="white"/>
<path d="M65.9302 71.1498H59.5703V77.5097H65.9302V71.1498Z" fill="white"/>
<path d="M56.4966 71.1498H50.1367V77.5097H56.4966V71.1498Z" fill="white"/>
<path d="M72.7841 29.7562H34.0703V36.08H72.7841V29.7562Z" fill="#F2F2F2"/>
<path d="M36.4063 27.7258V31.7865C36.4058 31.9352 36.4348 32.0825 36.4915 32.22C36.5482 32.3575 36.6316 32.4824 36.7367 32.5876C36.8419 32.6928 36.9668 32.7761 37.1043 32.8328C37.2418 32.8895 37.3891 32.9185 37.5379 32.9181C37.6865 32.9181 37.8336 32.8888 37.9709 32.8319C38.1082 32.7751 38.2329 32.6917 38.338 32.5866C38.4431 32.4816 38.5264 32.3568 38.5833 32.2195C38.6402 32.0822 38.6695 31.9351 38.6695 31.7865V27.7258C38.6686 27.426 38.5491 27.1387 38.3371 26.9266C38.125 26.7146 37.8377 26.5951 37.5379 26.5942C37.2377 26.5942 36.9499 26.7135 36.7377 26.9257C36.5255 27.1379 36.4063 27.4257 36.4063 27.7258Z" fill="#E6E6E6"/>
<path d="M68.1992 27.7258V31.7865C68.1992 32.0866 68.3184 32.3744 68.5307 32.5866C68.7429 32.7989 69.0307 32.9181 69.3308 32.9181C69.4795 32.9185 69.6269 32.8895 69.7644 32.8328C69.9019 32.7761 70.0268 32.6928 70.1319 32.5876C70.2371 32.4824 70.3204 32.3575 70.3772 32.22C70.4339 32.0825 70.4629 31.9352 70.4624 31.7865V27.7258C70.4624 27.4257 70.3432 27.1379 70.131 26.9257C69.9188 26.7135 69.6309 26.5942 69.3308 26.5942C69.031 26.5951 68.7436 26.7146 68.5316 26.9266C68.3196 27.1387 68.2001 27.426 68.1992 27.7258Z" fill="#E6E6E6"/>
<path d="M61.8359 27.7258V31.7865C61.8359 31.9351 61.8652 32.0822 61.9221 32.2195C61.9789 32.3568 62.0623 32.4816 62.1674 32.5866C62.2725 32.6917 62.3972 32.7751 62.5345 32.8319C62.6718 32.8888 62.8189 32.9181 62.9675 32.9181C63.1161 32.9181 63.2633 32.8888 63.4006 32.8319C63.5379 32.7751 63.6626 32.6917 63.7677 32.5866C63.8728 32.4816 63.9561 32.3568 64.013 32.2195C64.0699 32.0822 64.0991 31.9351 64.0991 31.7865V27.7258C64.0983 27.4271 63.9797 27.1408 63.7691 26.9289C63.5585 26.7171 63.2728 26.5968 62.9741 26.5942C62.8251 26.5938 62.6774 26.6227 62.5395 26.6794C62.4017 26.736 62.2763 26.8192 62.1707 26.9243C62.065 27.0294 61.981 27.1543 61.9236 27.2918C61.8661 27.4293 61.8364 27.5768 61.8359 27.7258Z" fill="#E6E6E6"/>
<path d="M55.4766 27.7258V31.7865C55.4761 31.9352 55.5051 32.0825 55.5618 32.22C55.6185 32.3575 55.7019 32.4824 55.807 32.5876C55.9122 32.6928 56.0371 32.7761 56.1746 32.8328C56.3121 32.8895 56.4594 32.9185 56.6082 32.9181C56.9063 32.9155 57.1912 32.795 57.4008 32.583C57.6104 32.3709 57.7275 32.0846 57.7266 31.7865V27.7258C57.7266 27.4263 57.6079 27.139 57.3964 26.9268C57.1849 26.7147 56.8979 26.5951 56.5983 26.5942C56.2999 26.5968 56.0146 26.7172 55.8045 26.9291C55.5944 27.1411 55.4766 27.4274 55.4766 27.7258Z" fill="#E6E6E6"/>
<path d="M49.1172 27.7258V31.7865C49.1168 31.9349 49.1456 32.082 49.2021 32.2193C49.2586 32.3565 49.3417 32.4813 49.4465 32.5864C49.5513 32.6916 49.6759 32.775 49.813 32.8319C49.9501 32.8888 50.0971 32.9181 50.2455 32.9181C50.3942 32.9185 50.5416 32.8895 50.6791 32.8328C50.8166 32.7761 50.9415 32.6928 51.0466 32.5876C51.1518 32.4824 51.2351 32.3575 51.2919 32.22C51.3486 32.0825 51.3775 31.9352 51.3771 31.7865V27.7258C51.3771 27.4257 51.2579 27.1379 51.0457 26.9257C50.8335 26.7135 50.5456 26.5942 50.2455 26.5942C49.946 26.5951 49.659 26.7147 49.4475 26.9268C49.236 27.139 49.1172 27.4263 49.1172 27.7258Z" fill="#E6E6E6"/>
<path d="M42.7539 27.7258V31.7865C42.7539 31.9351 42.7832 32.0822 42.84 32.2195C42.8969 32.3568 42.9803 32.4816 43.0853 32.5866C43.1904 32.6917 43.3152 32.7751 43.4525 32.8319C43.5897 32.8888 43.7369 32.9181 43.8855 32.9181C44.0341 32.9181 44.1813 32.8888 44.3185 32.8319C44.4558 32.7751 44.5806 32.6917 44.6857 32.5866C44.7907 32.4816 44.8741 32.3568 44.931 32.2195C44.9878 32.0822 45.0171 31.9351 45.0171 31.7865V27.7258C45.0162 27.426 44.8967 27.1387 44.6847 26.9266C44.4727 26.7146 44.1854 26.5951 43.8855 26.5942C43.5857 26.5951 43.2983 26.7146 43.0863 26.9266C42.8743 27.1387 42.7548 27.426 42.7539 27.7258Z" fill="#E6E6E6"/>
<path d="M60.964 87.7203C60.964 88.6451 61.3314 89.5319 61.9852 90.1858C62.6391 90.8396 63.526 91.207 64.4507 91.207H20.889C19.9643 91.207 19.0774 90.8396 18.4236 90.1858C17.7697 89.5319 17.4023 88.6451 17.4023 87.7203H60.964Z" fill="#E6E6E6"/>
<path d="M81.9983 140.24C117.121 140.24 145.594 138.577 145.594 136.527C145.594 134.476 117.121 132.814 81.9983 132.814C46.8752 132.814 18.4023 134.476 18.4023 136.527C18.4023 138.577 46.8752 140.24 81.9983 140.24Z" fill="#F2F2F2"/>
<path opacity="0.2" d="M79.0192 93.1182C79.0192 93.1182 49.5859 110.496 49.5859 126.961H108.46C108.456 110.496 79.0192 93.1182 79.0192 93.1182Z" fill="#013FE8"/>
<path opacity="0.2" d="M79.0221 113.852C79.0221 113.852 51.8438 120.585 51.8438 126.961H106.201C106.201 120.585 79.0221 113.852 79.0221 113.852Z" fill="#013FE8"/>
<path opacity="0.3" d="M82.5938 97.9162C88.1207 103.351 98.8623 115.394 98.8623 126.961H91.497C91.497 115.394 85.6176 103.351 82.5938 97.9162Z" fill="white"/>
<path opacity="0.2" d="M79.0192 93.1182C79.0192 93.1182 49.5859 75.7402 49.5859 59.2753H108.46C108.456 75.7402 79.0192 93.1182 79.0192 93.1182Z" fill="#013FE8"/>
<path opacity="0.2" d="M79.0231 91.5321C79.0231 91.5321 63.9961 84.323 63.9961 77.4744H94.0541C94.0541 84.311 79.0231 91.5321 79.0231 91.5321Z" fill="#013FE8"/>
<path opacity="0.3" d="M75.8151 88.3201C70.2921 82.8852 59.5625 70.842 59.5625 59.2753H66.9278C66.9118 70.842 72.7792 82.8852 75.8151 88.3201Z" fill="white"/>
<path opacity="0.3" d="M82.5938 88.3201C88.1207 82.8852 98.594 69.4482 98.8623 59.2753H96.8998C95.9787 71.679 86.9673 83.0614 82.5938 88.3201Z" fill="white"/>
<path d="M104.461 53.464H101.125V53.8645H104.461V53.464Z" fill="#013FE8"/>
<path d="M115.785 58.967H115.385C115.383 57.6147 114.846 56.3181 113.89 55.3616C112.934 54.405 111.638 53.8666 110.286 53.8645H106.766V53.464H110.286C111.744 53.4672 113.142 54.0481 114.172 55.0795C115.203 56.111 115.783 57.5088 115.785 58.967Z" fill="#013FE8"/>
<path d="M110.285 54.8658H47.7574C45.4924 54.8658 43.6562 56.7019 43.6562 58.9669V59.5837C43.6562 61.8487 45.4924 63.6849 47.7574 63.6849H110.285C112.55 63.6849 114.386 61.8487 114.386 59.5837V58.9669C114.386 56.7019 112.55 54.8658 110.285 54.8658Z" fill="#013FE8"/>
<path d="M110.285 122.551H47.7574C45.4924 122.551 43.6562 124.388 43.6562 126.653V127.269C43.6562 129.534 45.4924 131.371 47.7574 131.371H110.285C112.55 131.371 114.386 129.534 114.386 127.269V126.653C114.386 124.388 112.55 122.551 110.285 122.551Z" fill="#013FE8"/>
</svg>
