<svg width="24" height="24" viewBox="0 0 24 24" fill="none" xmlns="http://www.w3.org/2000/svg">
<path d="M1 5.32983L4.73934 7.34097L8.07987 6.7649C8.63603 6.66866 9.20665 6.6975 9.75027 6.84932C10.2939 7.00115 10.7969 7.27215 11.2227 7.64264M19.2945 15.8917L14.0076 19.6481C13.44 20.0513 12.7625 20.2711 12.0663 20.2778C11.37 20.2845 10.6884 20.0778 10.1132 19.6856L1 13.4732" stroke="#1A1A1A" stroke-width="1.4" stroke-linecap="round" stroke-linejoin="round"/>
<path d="M22.9108 13.4341L19.1697 15.9906L13.3647 11.3036L11.2292 12.8563C10.8112 13.1597 10.2918 13.2892 9.78025 13.2173C9.26875 13.1455 8.80508 12.878 8.48687 12.4711C8.17036 12.0644 8.02357 11.551 8.07727 11.0385C8.13097 10.526 8.38098 10.0542 8.7749 9.72198L10.9991 7.85231C11.5263 7.40853 12.1377 7.07589 12.7967 6.87439C13.4557 6.67288 14.1486 6.60666 14.8339 6.67972L18.2988 7.05126L22.9108 4.5578" stroke="#1A1A1A" stroke-width="1.4" stroke-linecap="round" stroke-linejoin="round"/>
<path d="M13.3633 11.3155C14.7608 12.5597 16.7413 11.924 17.4776 10.9082" stroke="#1A1A1A" stroke-width="1.4" stroke-linecap="round" stroke-linejoin="round"/>
</svg>
