<svg width="22" height="22" viewBox="0 0 22 22" fill="none" xmlns="http://www.w3.org/2000/svg">
<path d="M10.9274 7.28519C8.92034 7.28519 7.28245 8.92308 7.28245 10.9301C7.28245 12.9371 8.92034 14.575 10.9274 14.575C12.9344 14.575 14.5723 12.9371 14.5723 10.9301C14.5723 8.92308 12.9344 7.28519 10.9274 7.28519ZM21.8594 10.9301C21.8594 9.42074 21.8731 7.92503 21.7883 6.41839C21.7035 4.66839 21.3043 3.11527 20.0246 1.83558C18.7422 0.553157 17.1918 0.156673 15.4418 0.071907C13.9325 -0.0128586 12.4367 0.000813324 10.9301 0.000813324C9.42073 0.000813324 7.92503 -0.0128586 6.41839 0.071907C4.66839 0.156673 3.11527 0.555891 1.83558 1.83558C0.553157 3.118 0.156673 4.66839 0.071907 6.41839C-0.0128586 7.92777 0.000813324 9.42347 0.000813324 10.9301C0.000813324 12.4368 -0.0128586 13.9352 0.071907 15.4418C0.156673 17.1918 0.555891 18.745 1.83558 20.0246C3.118 21.3071 4.66839 21.7036 6.41839 21.7883C7.92777 21.8731 9.42347 21.8594 10.9301 21.8594C12.4395 21.8594 13.9352 21.8731 15.4418 21.7883C17.1918 21.7036 18.745 21.3043 20.0246 20.0246C21.3071 18.7422 21.7035 17.1918 21.7883 15.4418C21.8758 13.9352 21.8594 12.4395 21.8594 10.9301ZM10.9274 16.5383C7.82386 16.5383 5.31917 14.0336 5.31917 10.9301C5.31917 7.8266 7.82386 5.32191 10.9274 5.32191C14.0309 5.32191 16.5356 7.8266 16.5356 10.9301C16.5356 14.0336 14.0309 16.5383 10.9274 16.5383ZM16.7653 6.40199C16.0407 6.40199 15.4555 5.81683 15.4555 5.09222C15.4555 4.36761 16.0407 3.78245 16.7653 3.78245C17.4899 3.78245 18.075 4.36761 18.075 5.09222C18.0752 5.26428 18.0415 5.4347 17.9758 5.5937C17.91 5.75271 17.8136 5.89718 17.6919 6.01885C17.5702 6.14051 17.4258 6.23698 17.2667 6.30273C17.1077 6.36847 16.9373 6.4022 16.7653 6.40199Z" fill="url(#paint0_linear_55_683)"/>
<defs>
<linearGradient id="paint0_linear_55_683" x1="0" y1="0" x2="6.20196" y2="25.6468" gradientUnits="userSpaceOnUse">
<stop stop-color="#013FE8"/>
<stop offset="1" stop-color="#8725EA"/>
</linearGradient>
</defs>
</svg>
