<svg width="38" height="38" viewBox="0 0 38 38" fill="none" xmlns="http://www.w3.org/2000/svg">
<path d="M22.3356 2.14178L13.1045 11.5262V2.38141H0V35.6251H13.1045V26.4803L22.3356 35.8647L31.5986 26.4479L24.2723 19L31.5986 11.5521L22.3356 2.13531V2.14178ZM22.9026 4.36321L29.4135 10.9821H22.9026V4.36321ZM11.1551 3.5407L6.54907 8.22318L1.94306 3.5407H11.1551ZM11.9642 4.35673V12.6855L7.12243 17.6076V9.27884L11.9642 4.35673ZM1.14035 4.36321L5.98208 9.28532V28.7341L1.14035 33.5591V4.36321ZM1.84113 34.4723L6.5427 29.7898L11.0531 34.4723H1.84113ZM11.9642 33.7598L7.12243 28.7341V20.3989L11.9642 25.321V33.7534V33.7598ZM21.7686 33.6562L7.35815 19.0065L21.7623 4.36321V11.3254L14.2003 19.013L21.7623 26.7005V33.6627L21.7686 33.6562ZM22.9026 33.6497V27.0308H29.4135L22.9026 33.6497ZM29.4198 25.8715H22.5714L15.8184 19.0065L22.5777 12.135H29.4262L22.6669 19.0065L29.4198 25.8715Z" fill="#013FE8"/>
<path d="M36.0351 10.3669L36.7168 9.6739L36.4811 9.43427L35.7994 10.1273C35.1496 10.7879 34.0984 10.7879 33.4486 10.1273L32.767 9.43427L32.5312 9.6739L33.2129 10.3669C33.8627 11.0275 33.8627 12.0961 33.2129 12.7567L32.5312 13.4497L32.767 13.6893L33.4486 12.9963C34.0984 12.3357 35.1496 12.3357 35.7994 12.9963L36.4811 13.6893L36.7168 13.4497L36.0351 12.7567C35.3853 12.0961 35.3853 11.0275 36.0351 10.3669Z" fill="#5387F9"/>
</svg>
