<svg width="1024" height="1024" viewBox="0 0 1024 1024" fill="none" xmlns="http://www.w3.org/2000/svg">
<rect width="1024" height="1024" fill="url(#paint0_linear_347_1247)"/>
<path d="M630.779 240.463L478.787 393.369V244.354H263.078V786.06H478.787V637.045L630.779 789.951L783.296 636.516L662.731 515.226L783.296 393.936L630.779 240.463ZM640.165 276.574L747.4 384.455H640.165V276.574ZM446.722 263.24L370.876 339.542L295.068 263.24H446.722ZM460.051 276.499V412.218L380.301 492.448V356.729L460.051 276.499ZM281.814 276.574L361.565 356.805V673.647L281.814 752.253V276.574ZM293.416 767.211L370.801 690.909L445.07 767.211H293.416ZM460.051 755.615L380.301 673.722V537.965L460.051 618.196V755.615ZM621.467 753.915L384.206 515.226L621.429 276.574V390.007L496.96 515.226L621.467 640.482V753.915ZM640.203 753.84V645.959H747.438L640.203 753.84ZM747.438 627.11H634.684L523.468 515.226L634.721 403.303H747.476L636.223 515.226L747.438 627.11Z" fill="white"/>
<path d="M856.366 374.401L867.555 363.145L863.688 359.254L852.499 370.51C841.835 381.238 824.526 381.238 813.825 370.51L802.636 359.254L798.769 363.145L809.958 374.401C820.621 385.129 820.621 402.542 809.958 413.307L798.769 424.564L802.636 428.455L813.825 417.198C824.488 406.471 841.798 406.471 852.499 417.198L863.688 428.455L867.555 424.564L856.366 413.307C845.703 402.58 845.703 385.166 856.366 374.401Z" fill="white"/>
<defs>
<linearGradient id="paint0_linear_347_1247" x1="0" y1="0" x2="290.524" y2="1201.37" gradientUnits="userSpaceOnUse">
<stop stop-color="#013FE8"/>
<stop offset="1" stop-color="#8725EA"/>
</linearGradient>
</defs>
</svg>
