<svg width="225" height="37" viewBox="0 0 225 37" fill="none" xmlns="http://www.w3.org/2000/svg">
<g clip-path="url(#clip0_280_23650)">
<path d="M22.3356 2.46105L13.1045 11.8454V2.70068H0V35.9443H13.1045V26.7996L22.3356 36.184L31.5986 26.7672L24.2723 19.3193L31.5986 11.8713L22.3356 2.45458V2.46105ZM22.9026 4.68248L29.4135 11.3014H22.9026V4.68248ZM11.1551 3.85997L6.54907 8.54245L1.94306 3.85997H11.1551ZM11.9642 4.676V13.0047L7.12243 17.9268V9.59811L11.9642 4.676ZM1.14035 4.68248L5.98208 9.60458V29.0534L1.14035 33.8783V4.68248ZM1.84113 34.7915L6.5427 30.109L11.0531 34.7915H1.84113ZM11.9642 34.0791L7.12243 29.0534V20.7182L11.9642 25.6403V34.0726V34.0791ZM21.7686 33.9755L7.35815 19.3257L21.7623 4.68248V11.6447L14.2003 19.3322L21.7623 27.0198V33.982L21.7686 33.9755ZM22.9026 33.969V27.3501H29.4135L22.9026 33.969ZM29.4198 26.1908H22.5714L15.8184 19.3257L22.5777 12.4542H29.4262L22.6669 19.3257L29.4198 26.1908Z" fill="#013FE8"/>
<path d="M36.0326 10.6862L36.7143 9.99317L36.4786 9.75354L35.7969 10.4465C35.1471 11.1071 34.0959 11.1071 33.4461 10.4465L32.7645 9.75354L32.5287 9.99317L33.2104 10.6862C33.8602 11.3468 33.8602 12.4154 33.2104 13.076L32.5287 13.7689L32.7645 14.0086L33.4461 13.3156C34.0959 12.655 35.1471 12.655 35.7969 13.3156L36.4786 14.0086L36.7143 13.7689L36.0326 13.076C35.3828 12.4154 35.3828 11.3468 36.0326 10.6862Z" fill="#5387F9"/>
<path d="M63.6559 36.5661L50.0927 21.2881V36.5661H45.7925V3.07632H50.0927V18.5939L63.7069 3.07632H69.1411L54.2082 19.8439L69.2876 36.5661H63.6623H63.6559Z" fill="#1A1A1A"/>
<path d="M97.5862 25.0315H76.8879C77.0471 27.6286 77.9199 29.6557 79.5126 31.1064C81.1052 32.5636 83.0356 33.2955 85.3035 33.2955C87.1638 33.2955 88.7119 32.8551 89.9605 31.9743C91.2028 31.0935 92.0819 29.9148 92.5852 28.4446H97.2167C96.5223 30.9769 95.1399 33.0364 93.0567 34.6167C90.9798 36.2034 88.3933 36.9935 85.3035 36.9935C82.8444 36.9935 80.6466 36.4301 78.7099 35.3096C76.7732 34.1892 75.2506 32.596 74.1485 30.53C73.0463 28.464 72.4921 26.0677 72.4921 23.3476C72.4921 20.6275 73.0272 18.2377 74.0975 16.1911C75.1678 14.1446 76.6712 12.5643 78.6143 11.4569C80.551 10.3494 82.7807 9.79888 85.3035 9.79888C87.8263 9.79888 89.935 10.3429 91.8271 11.4309C93.7192 12.519 95.1717 14.0151 96.1974 15.9256C97.2231 17.8297 97.7327 19.9863 97.7327 22.3891C97.7327 23.2246 97.6882 24.1054 97.5926 25.0315H97.5862ZM92.203 17.1756C91.4767 15.9709 90.4956 15.0642 89.247 14.436C88.0047 13.8143 86.6223 13.4969 85.1124 13.4969C82.94 13.4969 81.0861 14.2029 79.5572 15.6083C78.0282 17.0201 77.1554 18.9695 76.9324 21.4695H93.286C93.286 19.805 92.9229 18.3672 92.1966 17.1691L92.203 17.1756Z" fill="#1A1A1A"/>
<path d="M123.674 12.6615C125.63 14.5979 126.605 17.3958 126.605 21.0485V36.5661H122.349V21.6702C122.349 19.0473 121.706 17.0331 120.412 15.6406C119.119 14.2482 117.354 13.5487 115.118 13.5487C112.882 13.5487 111.047 14.2676 109.71 15.7119C108.372 17.1561 107.703 19.2545 107.703 22.007V36.5661H103.403V10.2328H107.703V13.9827C108.557 12.6356 109.71 11.5993 111.175 10.861C112.64 10.1227 114.252 9.75354 116.017 9.75354C119.17 9.75354 121.718 10.725 123.674 12.6615Z" fill="#1A1A1A"/>
<path d="M136.862 32.9587H149.577V36.5596H131.95V32.9587L144.519 13.7884H132.039V10.2328H149.482V13.7884L136.862 32.9587Z" fill="#1A1A1A"/>
<path d="M155.152 16.2171C156.222 14.1834 157.694 12.6032 159.573 11.4828C161.446 10.3623 163.536 9.79888 165.835 9.79888C168.135 9.79888 170.072 10.2976 171.741 11.2885C173.41 12.2794 174.652 13.5293 175.474 15.0383V10.2328H179.825V36.5661H175.474V31.6634C174.621 33.1983 173.353 34.4742 171.671 35.4845C169.983 36.4948 168.021 37 165.784 37C163.548 37 161.401 36.4236 159.548 35.2708C157.687 34.118 156.222 32.4989 155.152 30.4199C154.081 28.341 153.546 25.9706 153.546 23.3088C153.546 20.6469 154.081 18.2571 155.152 16.2235V16.2171ZM174.296 18.16C173.506 16.6834 172.442 15.5565 171.104 14.7728C169.766 13.9891 168.295 13.5941 166.683 13.5941C165.071 13.5941 163.612 13.9762 162.287 14.7469C160.962 15.5176 159.911 16.638 159.121 18.1082C158.331 19.5848 157.942 21.314 157.942 23.2958C157.942 25.2776 158.337 27.0651 159.121 28.5547C159.911 30.0443 160.962 31.1841 162.287 31.9678C163.612 32.7514 165.077 33.1465 166.683 33.1465C168.288 33.1465 169.76 32.7579 171.104 31.9678C172.442 31.1841 173.506 30.0443 174.296 28.5547C175.086 27.0651 175.481 25.3294 175.481 23.3412C175.481 21.3529 175.086 19.6237 174.296 18.1535V18.16Z" fill="#1A1A1A"/>
<path d="M194.644 11.0035C196.045 10.168 197.753 9.75354 199.772 9.75354V14.2676H198.638C193.815 14.2676 191.407 16.923 191.407 22.2402V36.5596H187.107V10.2328H191.407V14.5073C192.165 13.0047 193.242 11.8325 194.644 10.997V11.0035Z" fill="#1A1A1A"/>
<path d="M204.875 5.09049C204.308 4.51409 204.021 3.80816 204.021 2.97269C204.021 2.13723 204.308 1.43777 204.875 0.861368C205.442 0.284963 206.136 -0.00647736 206.952 -0.00647736C207.767 -0.00647736 208.411 0.284963 208.959 0.861368C209.506 1.43777 209.787 2.14371 209.787 2.97269C209.787 3.80168 209.513 4.50761 208.959 5.09049C208.404 5.6669 207.735 5.95834 206.952 5.95834C206.168 5.95834 205.442 5.6669 204.875 5.09049ZM209.035 10.2328V36.5661H204.735V10.2328H209.035Z" fill="#1A1A1A"/>
<path d="M218.668 0.2202V1.06214H217.304V5.42727H216.279V1.06214H214.915V0.2202H218.674H218.668Z" fill="#1A1A1A"/>
<path d="M225 0.2202V5.43375H223.974V2.04008L222.598 5.42727H221.821L220.439 2.04008V5.42727H219.413V0.2202H220.579L222.21 4.09312L223.841 0.2202H225Z" fill="#1A1A1A"/>
</g>
<defs>
<clipPath id="clip0_280_23650">
<rect width="225" height="37" fill="white"/>
</clipPath>
</defs>
</svg>
