<svg width="18" height="18" viewBox="0 0 18 18" fill="none" xmlns="http://www.w3.org/2000/svg">
<path d="M12.8502 7.95001L14.2502 9.35001M10.4002 10.4L11.8002 11.8M7.9502 12.85L9.3502 14.25" stroke="#1A1A1A" stroke-width="1.2" stroke-linecap="round"/>
<path d="M7.97487 3.87437C8.93017 2.91907 9.40782 2.44142 9.94066 2.22071C10.6511 1.92643 11.4494 1.92643 12.1598 2.22071C12.6927 2.44142 13.1703 2.91907 14.1256 3.87437C15.0809 4.82967 15.5586 5.30732 15.7793 5.84016C16.0736 6.55062 16.0736 7.34888 15.7793 8.05934C15.5586 8.59218 15.0809 9.06983 14.1256 10.0251L10.0251 14.1256C9.06983 15.0809 8.59218 15.5586 8.05934 15.7793C7.34888 16.0736 6.55062 16.0736 5.84016 15.7793C5.30732 15.5586 4.82967 15.0809 3.87437 14.1256C2.91907 13.1703 2.44142 12.6927 2.22071 12.1598C1.92643 11.4494 1.92643 10.6511 2.22071 9.94066C2.44142 9.40782 2.91907 8.93017 3.87437 7.97487L7.97487 3.87437Z" stroke="#1A1A1A" stroke-width="1.2" stroke-linecap="round" stroke-linejoin="round"/>
</svg>
