<svg width="13" height="16" viewBox="0 0 13 16" fill="none" xmlns="http://www.w3.org/2000/svg">
<path d="M6.1875 0C4.54707 0.00193526 2.97438 0.654452 1.81442 1.81441C0.654456 2.97438 0.00193915 4.54707 3.8836e-06 6.1875C-0.00150437 7.52799 0.436339 8.83204 1.2465 9.9C1.2465 9.9 1.41525 10.1222 1.44282 10.1543L6.1875 15.75L10.9344 10.1514C10.9592 10.1216 11.1285 9.9 11.1285 9.9L11.1291 9.89831C11.9387 8.83074 12.3763 7.52735 12.375 6.1875C12.3731 4.54707 11.7206 2.97438 10.5606 1.81441C9.40063 0.654452 7.82794 0.00193526 6.1875 0ZM6.1875 8.4375C5.7425 8.4375 5.30748 8.30554 4.93747 8.05831C4.56746 7.81107 4.27907 7.45967 4.10877 7.04854C3.93848 6.6374 3.89392 6.185 3.98074 5.74855C4.06755 5.31209 4.28184 4.91118 4.59651 4.59651C4.91118 4.28184 5.31209 4.06755 5.74855 3.98073C6.18501 3.89392 6.63741 3.93847 7.04854 4.10877C7.45967 4.27907 7.81108 4.56746 8.05831 4.93747C8.30554 5.30748 8.4375 5.74249 8.4375 6.1875C8.43676 6.78401 8.19947 7.35587 7.77767 7.77767C7.35588 8.19946 6.78401 8.43676 6.1875 8.4375Z" fill="url(#paint0_linear_55_673)"/>
<defs>
<linearGradient id="paint0_linear_55_673" x1="0" y1="0" x2="5.49887" y2="17.8663" gradientUnits="userSpaceOnUse">
<stop stop-color="#013FE8"/>
<stop offset="1" stop-color="#8725EA"/>
</linearGradient>
</defs>
</svg>
