<svg width="66" height="66" viewBox="0 0 66 66" fill="none" xmlns="http://www.w3.org/2000/svg">
<circle cx="33" cy="33" r="33" fill="url(#paint0_linear_46_975)"/>
<path d="M36.5423 28.7497C36.5423 30.7057 34.9567 32.2913 33.0007 32.2913C31.0446 32.2913 29.459 30.7057 29.459 28.7497C29.459 26.7937 31.0446 25.208 33.0007 25.208C34.9567 25.208 36.5423 26.7937 36.5423 28.7497Z" stroke="white" stroke-width="1.8"/>
<path d="M34.782 40.7822C34.3042 41.2424 33.6655 41.4997 33.0009 41.4997C32.3362 41.4997 31.6976 41.2424 31.2198 40.7822C26.8442 36.5425 20.9805 31.8062 23.8401 24.93C25.3862 21.2121 29.0977 18.833 33.0009 18.833C36.9041 18.833 40.6155 21.2121 42.1617 24.93C45.0176 31.7975 39.1683 36.5571 34.782 40.7822Z" stroke="white" stroke-width="1.8"/>
<path d="M41.5 44.333C41.5 45.8978 37.6944 47.1663 33 47.1663C28.3056 47.1663 24.5 45.8978 24.5 44.333" stroke="white" stroke-width="1.8" stroke-linecap="round"/>
<defs>
<linearGradient id="paint0_linear_46_975" x1="0" y1="0" x2="18.7252" y2="77.4323" gradientUnits="userSpaceOnUse">
<stop stop-color="#013FE8"/>
<stop offset="1" stop-color="#8725EA"/>
</linearGradient>
</defs>
</svg>
