<svg width="18" height="18" viewBox="0 0 18 18" fill="none" xmlns="http://www.w3.org/2000/svg">
<path d="M17 7.16L13.2667 3H4.73333L1 7.16L9 16L17 7.16ZM12.4667 7.16L13.2667 4.04L15.9333 7.16H12.4667ZM12.2 7.94H15.1333L10.0667 13.92L12.2 7.94ZM11.6667 7.16L9.53333 3.78H12.4667L11.6667 7.16ZM6.86667 7.94H11.1333L9 14.44L6.86667 7.94ZM7.13333 7.16L9 4.04L10.8667 7.16H7.13333ZM6.33333 7.16L5.53333 3.78H8.46667L6.33333 7.16ZM7.93333 13.92L2.6 7.94H5.8L7.93333 13.92ZM4.73333 4.04L5.53333 7.16H2.06667L4.73333 4.04Z" fill="#1A1A1A"/>
</svg>
