<svg width="24" height="24" viewBox="0 0 24 24" fill="none" xmlns="http://www.w3.org/2000/svg">
<path fill-rule="evenodd" clip-rule="evenodd" d="M7.32304 0.211958C7.11244 0.408045 7.09867 0.44001 7.06582 0.810279C6.83642 3.39697 6.56131 5.20551 6.18258 6.61669C5.90485 7.65155 5.7568 7.91956 4.99801 8.7613C3.99386 9.87524 3.42665 10.7699 3.13034 11.7071C2.9575 12.2539 2.95638 13.1757 3.12804 13.6608C3.44844 14.5663 4.23687 15.3552 5.46257 15.9966C6.01306 16.2847 6.29592 16.3706 7.00974 16.4666C7.78984 16.5714 8.57106 16.7717 8.94354 16.9624C9.16898 17.0777 9.25171 17.1627 9.39186 17.4231C9.74137 18.0722 10.6227 19.2197 11.195 19.7706C11.9202 20.4687 12.9361 20.9562 14.5408 21.3763C15.6203 21.6589 15.9173 21.8082 16.3238 22.2727C16.4602 22.4286 16.6679 22.7405 16.7854 22.9657C17.0872 23.5442 17.1866 23.6003 18.331 23.8366C19.1652 24.0089 19.3157 24.0256 19.5779 23.9749C19.9953 23.8941 20.2917 23.7298 20.5512 23.4353C20.8862 23.0551 20.9994 22.7466 21 22.2128C21.0004 21.8141 20.9758 21.7029 20.7721 21.1828C20.4019 20.2374 20.2242 19.9846 19.4372 19.2848C18.3894 18.3531 16.9373 16.1328 14.2346 11.3295C13.9432 10.8117 13.775 10.3558 13.643 9.72609C13.547 9.26786 13.5313 9.00695 13.532 7.87927C13.5328 6.49526 13.5802 5.98221 13.8528 4.4082C13.9742 3.70711 14.3787 1.9483 14.6554 0.918689L14.7464 0.580048L14.5394 0.290024L14.3325 0L10.939 0.00240286L7.54554 0.00474986L7.32304 0.211958ZM7.92187 0.963953C7.91038 1.0024 7.86141 1.44872 7.81307 1.95585C7.62603 3.91734 7.30653 5.80685 6.959 7.00612C6.73511 7.77879 6.71219 7.70727 7.32453 8.14901C8.88436 9.27423 10.6036 9.51849 12.2189 8.84428L12.6194 8.67709L12.6545 7.64809C12.7251 5.57444 13.0738 3.45246 13.7482 0.991894C13.7735 0.899634 13.6107 0.894101 10.8589 0.894101C8.57271 0.894101 7.93826 0.909189 7.92187 0.963953ZM5.70703 9.25557C4.82812 10.2266 4.28825 11.0269 4.01074 11.7703C3.89265 12.0867 3.8668 12.2476 3.86386 12.6851C3.86076 13.1442 3.87892 13.2575 3.9984 13.5233C4.28387 14.1585 4.91699 14.7185 5.92745 15.2297C6.37053 15.4538 6.51997 15.4993 7.04563 15.5701C8.33996 15.7445 9.30101 16.0571 9.74217 16.4474C9.83403 16.5287 10.0069 16.7672 10.1262 16.9774C10.4501 17.5479 11.0589 18.3492 11.6024 18.9207C12.022 19.3619 12.1624 19.4692 12.6729 19.7386C13.4384 20.1428 13.8896 20.3089 14.8524 20.5413C15.3113 20.652 15.7823 20.8042 15.974 20.9038C16.6358 21.2472 17.1399 21.7618 17.4574 22.4183C17.5418 22.5928 17.6331 22.75 17.6603 22.7675C17.6875 22.7851 18.0738 22.8756 18.5189 22.9686C19.1879 23.1083 19.364 23.1274 19.536 23.079C19.8012 23.0043 20.0494 22.745 20.132 22.4565C20.2096 22.1855 20.1684 21.9934 19.8759 21.2631C19.6637 20.7333 19.6662 20.7364 18.6604 19.7261C17.5745 18.6353 16.0468 16.3316 14.0867 12.8289C13.4415 11.6761 13.1671 11.1285 13.0365 10.7334C12.895 10.3053 12.841 10.2021 12.7663 10.2173C12.4167 10.2886 12.2719 10.2848 12.1162 10.2006C12.0228 10.1501 11.932 10.0695 11.9144 10.0217C11.8889 9.95213 11.8304 9.9419 11.6228 9.97074C11.2105 10.028 11.1929 10.0415 11.2855 10.229C11.4986 10.6601 11.1923 11.1763 10.7234 11.1763C10.2431 11.1763 9.96078 10.6931 10.1602 10.2123C10.1937 10.1316 10.173 10.1145 10.0418 10.1145C9.86464 10.1145 9.02274 9.96822 8.88746 9.91391C8.82054 9.88703 8.80067 9.91363 8.80067 10.0303C8.80067 10.5608 8.28767 10.888 7.83753 10.6444C7.5128 10.4688 7.43071 10.0425 7.65498 9.69664C7.72991 9.58119 7.78396 9.48021 7.77515 9.47222C7.76639 9.46423 7.66246 9.40667 7.54421 9.34431C7.35492 9.24456 7.31343 9.24015 7.19705 9.30754C7.02138 9.4093 6.74856 9.40762 6.5564 9.30368C6.39628 9.21701 6.30201 9.07831 6.24101 8.8397C6.20859 8.71291 6.17345 8.74029 5.70703 9.25557Z" fill="#272622"/>
</svg>
