<svg width="24" height="25" viewBox="0 0 24 25" fill="none" xmlns="http://www.w3.org/2000/svg">
<path fill-rule="evenodd" clip-rule="evenodd" d="M5.07885 5.56902C8.87385 1.77902 15.0439 1.81902 18.8619 5.63802C22.6819 9.45802 22.7219 15.631 18.9259 19.426C15.1299 23.221 8.95785 23.182 5.13785 19.362C4.06322 18.292 3.25128 16.9875 2.7658 15.5508C2.28033 14.1142 2.13452 12.5845 2.33985 11.082C2.36677 10.8848 2.47092 10.7064 2.62939 10.586C2.78786 10.4656 2.98766 10.4131 3.18485 10.44C3.38204 10.4669 3.56046 10.5711 3.68086 10.7296C3.80125 10.888 3.85377 11.0878 3.82685 11.285C3.65253 12.5583 3.77593 13.8547 4.18734 15.0723C4.59874 16.2899 5.28695 17.3954 6.19785 18.302C9.44285 21.546 14.6659 21.565 17.8659 18.366C21.0648 15.166 21.0459 9.94302 17.8019 6.69802C14.5589 3.45602 9.33885 3.43502 6.13885 6.63002L6.88685 6.63302C6.98534 6.63348 7.08278 6.65334 7.1736 6.69145C7.26442 6.72957 7.34684 6.7852 7.41616 6.85517C7.48548 6.92514 7.54033 7.00807 7.5776 7.09924C7.61487 7.19041 7.63381 7.28803 7.63335 7.38652C7.63289 7.48501 7.61304 7.58245 7.57492 7.67327C7.53681 7.76409 7.48118 7.84651 7.41121 7.91583C7.34124 7.98515 7.2583 8.04 7.16713 8.07727C7.07596 8.11454 6.97834 8.13348 6.87985 8.13302L4.33385 8.12102C4.13615 8.11997 3.94686 8.0409 3.80716 7.90101C3.66746 7.76112 3.58864 7.57172 3.58785 7.37402L3.57485 4.83002C3.57433 4.73153 3.59321 4.6339 3.63041 4.5427C3.66762 4.45151 3.72242 4.36854 3.79169 4.29852C3.86097 4.2285 3.94335 4.17282 4.03414 4.13464C4.12494 4.09647 4.22236 4.07655 4.32085 4.07602C4.41934 4.0755 4.51697 4.09438 4.60817 4.13158C4.69936 4.16879 4.78234 4.22359 4.85235 4.29286C4.92237 4.36214 4.97805 4.44452 5.01623 4.53531C5.05441 4.62611 5.07433 4.72353 5.07485 4.82202L5.07885 5.56902ZM11.9989 7.74902C12.1978 7.74902 12.3885 7.82804 12.5292 7.96869C12.6698 8.10934 12.7489 8.30011 12.7489 8.49902V12.189L15.0299 14.469C15.1015 14.5382 15.1587 14.6209 15.198 14.7124C15.2374 14.8039 15.2581 14.9023 15.259 15.0019C15.2599 15.1014 15.241 15.2002 15.2034 15.2924C15.1657 15.3846 15.11 15.4684 15.0396 15.5388C14.9693 15.6093 14.8856 15.665 14.7934 15.7027C14.7012 15.7405 14.6025 15.7595 14.5029 15.7587C14.4033 15.7579 14.3049 15.7372 14.2134 15.698C14.1219 15.6587 14.0391 15.6016 13.9699 15.53L11.2499 12.81V8.50002C11.2499 8.30111 11.3289 8.11034 11.4695 7.96969C11.6102 7.82904 11.8009 7.75002 11.9999 7.75002" fill="black"/>
</svg>
