<svg width="24" height="24" viewBox="0 0 24 24" fill="none" xmlns="http://www.w3.org/2000/svg">
<path fill-rule="evenodd" clip-rule="evenodd" d="M1.46078 0.836089C1.39145 0.90537 1.3457 1.00521 1.3457 1.0872C1.3457 1.19768 2.25297 2.35048 6.16816 7.21479L10.9906 13.2064L10.9201 13.4133C10.8132 13.7269 10.8593 14.2466 11.018 14.5173C11.1604 14.7604 11.4244 14.9947 11.6465 15.0753L11.7988 15.1305V15.4961C11.7988 15.6971 11.7894 15.8616 11.7777 15.8616C11.7662 15.8616 11.6604 15.7967 11.5427 15.7172C11.1265 15.4363 10.8638 15.3717 10.1338 15.3705C9.48667 15.3694 9.47181 15.3718 9.16853 15.5211C7.95798 16.117 7.56016 17.8181 8.26131 19.4002C8.57711 20.1129 9.26847 20.9518 9.98486 21.4917C10.794 22.1014 11.9622 22.6894 12.2676 22.6407C12.5281 22.5991 13.7023 21.986 14.1842 21.6401C15.0284 21.0338 15.6251 20.3518 16.0205 19.5413C16.3093 18.9494 16.4389 18.4188 16.4384 17.8304C16.4375 16.7414 15.9797 15.8955 15.1886 15.5208C14.8751 15.3723 14.8568 15.3695 14.2129 15.3712C13.4807 15.3732 13.2424 15.4354 12.7825 15.7449L12.5488 15.9022V15.5311V15.1601L12.7715 15.0463C13.3677 14.7416 13.6577 14.068 13.453 13.4634L13.363 13.1981L18.1825 7.21287C22.1358 2.30337 23.002 1.20289 23.002 1.08945C23.002 0.77651 22.596 0.60537 22.3781 0.826479C22.321 0.884464 20.1493 3.57143 17.5521 6.79751L12.8301 12.6631L12.6543 12.6004C12.4206 12.517 11.9504 12.5173 11.7131 12.601L11.5219 12.6685L6.79759 6.80018C4.19917 3.57265 2.02652 0.88451 1.96942 0.826479C1.82898 0.683792 1.60886 0.687964 1.46078 0.836089ZM11.7707 13.4429C11.6318 13.5818 11.6113 13.6324 11.6113 13.8377C11.6113 14.3836 12.2117 14.6447 12.5921 14.2643C12.8499 14.0065 12.8276 13.6425 12.5392 13.3998C12.4322 13.3098 12.3478 13.2835 12.1655 13.2835C11.9603 13.2835 11.9096 13.3039 11.7707 13.4429ZM9.85352 16.0951C9.40811 16.1486 9.09405 16.3826 8.87744 16.8226C8.46953 17.651 8.65347 18.819 9.34431 19.7871C9.64872 20.2137 10.1887 20.73 10.689 21.0726C11.1446 21.3847 12.0411 21.8616 12.172 21.8616C12.2155 21.8616 12.4498 21.7651 12.6929 21.6471C14.0717 20.9777 15.1051 19.9563 15.5054 18.8671C15.7543 18.1901 15.7496 17.3354 15.4944 16.8322C15.3562 16.5597 15.0792 16.2785 14.848 16.1758C14.5421 16.0401 13.8902 16.0481 13.5101 16.1922C13.1156 16.3418 12.7393 16.7232 12.5946 17.1199C12.4897 17.4077 12.3461 17.5491 12.1591 17.5491C12.0252 17.5491 11.8509 17.3545 11.7721 17.1172C11.6587 16.7758 11.2143 16.3293 10.8613 16.2019C10.5637 16.0946 10.1889 16.0549 9.85352 16.0951Z" fill="#272622" stroke="#272622" stroke-width="0.4"/>
</svg>
