<svg width="16" height="16" viewBox="0 0 16 16" fill="none" xmlns="http://www.w3.org/2000/svg">
<path d="M12.6176 15.7497C11.9314 15.7497 10.9674 15.5015 9.52389 14.695C7.76854 13.7106 6.4108 12.8018 4.66495 11.0605C2.98166 9.37831 2.16252 8.28917 1.01608 6.20299C-0.279077 3.84753 -0.0582961 2.61284 0.188501 2.08514C0.482407 1.45444 0.916235 1.07721 1.47698 0.702799C1.79548 0.494124 2.13253 0.315242 2.48385 0.168424C2.51901 0.153307 2.5517 0.138893 2.58088 0.125885C2.75491 0.0474863 3.01858 -0.0709902 3.35256 0.0555723C3.57545 0.139244 3.77444 0.310455 4.08592 0.618072C4.72471 1.24807 5.59764 2.65116 5.91967 3.34022C6.13588 3.80463 6.27897 4.1112 6.27932 4.45503C6.27932 4.85756 6.07682 5.16799 5.83108 5.50303C5.78502 5.56596 5.73932 5.62608 5.69502 5.68444C5.42748 6.036 5.36877 6.1376 5.40745 6.31901C5.48584 6.68358 6.07049 7.76885 7.03131 8.72756C7.99213 9.68628 9.04612 10.234 9.41209 10.3121C9.60123 10.3525 9.70494 10.2913 10.0678 10.0143C10.1198 9.97456 10.1732 9.93342 10.2291 9.89229C10.6039 9.6135 10.8999 9.41628 11.293 9.41628H11.2951C11.6371 9.41628 11.93 9.56463 12.4151 9.80932C13.048 10.1285 14.4932 10.9902 15.1271 11.6297C15.4354 11.9405 15.6073 12.1388 15.6913 12.3613C15.8179 12.6964 15.6987 12.959 15.621 13.1348C15.608 13.1639 15.5936 13.1959 15.5785 13.2314C15.4305 13.5821 15.2506 13.9185 15.041 14.2362C14.6672 14.7952 14.2886 15.228 13.6565 15.5222C13.3319 15.6758 12.9767 15.7535 12.6176 15.7497Z" fill="url(#paint0_linear_55_662)"/>
<defs>
<linearGradient id="paint0_linear_55_662" x1="0" y1="0" x2="4.46921" y2="18.4775" gradientUnits="userSpaceOnUse">
<stop stop-color="#013FE8"/>
<stop offset="1" stop-color="#8725EA"/>
</linearGradient>
</defs>
</svg>
