<svg width="24" height="24" viewBox="0 0 24 24" fill="none" xmlns="http://www.w3.org/2000/svg">
<g clip-path="url(#clip0_188_7268)">
<path d="M18.3551 16.0002C17.9061 16.0019 17.462 16.0943 17.0496 16.2719C16.6372 16.4494 16.2649 16.7085 15.9551 17.0335L7.82842 12.9668C8.02833 12.3607 8.02833 11.7063 7.82842 11.1002L15.9684 6.96016C16.5515 7.57458 17.3421 7.95027 18.1868 8.0142C19.0314 8.07813 19.8696 7.82574 20.5385 7.30609C21.2074 6.78644 21.6592 6.03664 21.806 5.20245C21.9529 4.36825 21.7843 3.50924 21.3331 2.79238C20.882 2.07553 20.1803 1.55204 19.3647 1.32367C18.549 1.0953 17.6776 1.17836 16.9197 1.5567C16.1619 1.93505 15.5718 2.58165 15.2642 3.37083C14.9565 4.16002 14.9533 5.0354 15.2551 5.82683L7.19509 9.92683C6.75979 9.39446 6.17049 9.00976 5.50796 8.82545C4.84544 8.64114 4.14213 8.66625 3.49444 8.89734C2.84675 9.12843 2.28639 9.55418 1.89017 10.1162C1.49394 10.6783 1.28125 11.3492 1.28125 12.0368C1.28125 12.7245 1.49394 13.3954 1.89017 13.9574C2.28639 14.5195 2.84675 14.9452 3.49444 15.1763C4.14213 15.4074 4.84544 15.4325 5.50796 15.2482C6.17049 15.0639 6.75979 14.6792 7.19509 14.1468L15.2351 18.1935C15.0988 18.5581 15.0288 18.9442 15.0284 19.3335C15.0284 19.9928 15.2239 20.6372 15.5902 21.1854C15.9565 21.7336 16.4771 22.1608 17.0861 22.4131C17.6952 22.6654 18.3655 22.7314 19.0121 22.6028C19.6587 22.4742 20.2526 22.1567 20.7188 21.6905C21.185 21.2243 21.5024 20.6304 21.631 19.9838C21.7597 19.3372 21.6936 18.667 21.4414 18.0579C21.1891 17.4488 20.7618 16.9282 20.2137 16.5619C19.6655 16.1957 19.021 16.0002 18.3618 16.0002H18.3551ZM18.3551 2.66683C18.7507 2.66683 19.1373 2.78413 19.4662 3.00389C19.7951 3.22365 20.0515 3.53601 20.2028 3.90146C20.3542 4.26691 20.3938 4.66905 20.3167 5.05701C20.2395 5.44497 20.049 5.80134 19.7693 6.08104C19.4896 6.36075 19.1332 6.55123 18.7453 6.6284C18.3573 6.70557 17.9552 6.66596 17.5897 6.51459C17.2243 6.36321 16.9119 6.10687 16.6921 5.77797C16.4724 5.44907 16.3551 5.06239 16.3551 4.66683C16.3551 4.1364 16.5658 3.62769 16.9409 3.25262C17.3159 2.87754 17.8247 2.66683 18.3551 2.66683ZM4.66842 14.0002C4.27286 14.0002 3.88618 13.8829 3.55728 13.6631C3.22838 13.4433 2.97204 13.131 2.82066 12.7655C2.66929 12.4001 2.62968 11.9979 2.70685 11.61C2.78402 11.222 2.9745 10.8657 3.25421 10.5859C3.53391 10.3062 3.89028 10.1158 4.27824 10.0386C4.6662 9.96142 5.06834 10.001 5.43379 10.1524C5.79924 10.3038 6.1116 10.5601 6.33136 10.889C6.55112 11.2179 6.66842 11.6046 6.66842 12.0002C6.66842 12.5306 6.45771 13.0393 6.08264 13.4144C5.70756 13.7895 5.19886 14.0002 4.66842 14.0002ZM18.3551 21.3335C17.9595 21.3335 17.5728 21.2162 17.2439 20.9964C16.915 20.7767 16.6587 20.4643 16.5073 20.0989C16.356 19.7334 16.3163 19.3313 16.3935 18.9433C16.4707 18.5554 16.6612 18.199 16.9409 17.9193C17.2206 17.6396 17.5769 17.4491 17.9649 17.3719C18.3529 17.2948 18.755 17.3344 19.1205 17.4857C19.4859 17.6371 19.7983 17.8935 20.018 18.2224C20.2378 18.5513 20.3551 18.9379 20.3551 19.3335C20.3551 19.8639 20.1444 20.3726 19.7693 20.7477C19.3942 21.1228 18.8855 21.3335 18.3551 21.3335Z" fill="white"/>
</g>
<defs>
<clipPath id="clip0_188_7268">
<rect width="24" height="24" fill="white"/>
</clipPath>
</defs>
</svg>
