<svg width="24" height="24" viewBox="0 0 24 24" fill="none" xmlns="http://www.w3.org/2000/svg">
<g clip-path="url(#clip0_177_2574)">
<path d="M18.3531 16.0002C17.9041 16.0019 17.4601 16.0943 17.0477 16.2719C16.6352 16.4494 16.263 16.7085 15.9531 17.0335L7.82647 12.9668C8.02638 12.3607 8.02638 11.7063 7.82647 11.1002L15.9665 6.96016C16.5495 7.57458 17.3402 7.95027 18.1848 8.0142C19.0294 8.07813 19.8676 7.82574 20.5365 7.30609C21.2054 6.78644 21.6572 6.03664 21.8041 5.20245C21.9509 4.36825 21.7824 3.50924 21.3312 2.79238C20.88 2.07553 20.1784 1.55204 19.3627 1.32367C18.5471 1.0953 17.6756 1.17836 16.9178 1.5567C16.16 1.93505 15.5699 2.58165 15.2622 3.37083C14.9546 4.16002 14.9513 5.0354 15.2531 5.82683L7.19314 9.92683C6.75783 9.39446 6.16853 9.00976 5.50601 8.82545C4.84349 8.64114 4.14018 8.66625 3.49249 8.89734C2.8448 9.12843 2.28444 9.55418 1.88821 10.1162C1.49199 10.6783 1.2793 11.3492 1.2793 12.0368C1.2793 12.7245 1.49199 13.3954 1.88821 13.9574C2.28444 14.5195 2.8448 14.9452 3.49249 15.1763C4.14018 15.4074 4.84349 15.4325 5.50601 15.2482C6.16853 15.0639 6.75783 14.6792 7.19314 14.1468L15.2331 18.1935C15.0969 18.5581 15.0269 18.9442 15.0265 19.3335C15.0265 19.9928 15.222 20.6372 15.5882 21.1854C15.9545 21.7336 16.4751 22.1608 17.0842 22.4131C17.6933 22.6654 18.3635 22.7314 19.0101 22.6028C19.6567 22.4742 20.2507 22.1567 20.7168 21.6905C21.183 21.2243 21.5005 20.6304 21.6291 19.9838C21.7577 19.3372 21.6917 18.667 21.4394 18.0579C21.1871 17.4488 20.7599 16.9282 20.2117 16.5619C19.6635 16.1957 19.0191 16.0002 18.3598 16.0002H18.3531ZM18.3531 2.66683C18.7487 2.66683 19.1354 2.78413 19.4643 3.00389C19.7932 3.22365 20.0495 3.53601 20.2009 3.90146C20.3523 4.26691 20.3919 4.66905 20.3147 5.05701C20.2375 5.44497 20.0471 5.80134 19.7673 6.08104C19.4876 6.36075 19.1313 6.55123 18.7433 6.6284C18.3554 6.70557 17.9532 6.66596 17.5878 6.51459C17.2223 6.36321 16.91 6.10687 16.6902 5.77797C16.4704 5.44907 16.3531 5.06239 16.3531 4.66683C16.3531 4.1364 16.5638 3.62769 16.9389 3.25262C17.314 2.87754 17.8227 2.66683 18.3531 2.66683ZM4.66647 14.0002C4.27091 14.0002 3.88423 13.8829 3.55533 13.6631C3.22643 13.4433 2.97009 13.131 2.81871 12.7655C2.66734 12.4001 2.62773 11.9979 2.7049 11.61C2.78207 11.222 2.97255 10.8657 3.25226 10.5859C3.53196 10.3062 3.88833 10.1158 4.27629 10.0386C4.66425 9.96142 5.06638 10.001 5.43184 10.1524C5.79729 10.3038 6.10965 10.5601 6.32941 10.889C6.54917 11.2179 6.66647 11.6046 6.66647 12.0002C6.66647 12.5306 6.45576 13.0393 6.08068 13.4144C5.70561 13.7895 5.1969 14.0002 4.66647 14.0002ZM18.3531 21.3335C17.9576 21.3335 17.5709 21.2162 17.242 20.9964C16.9131 20.7767 16.6568 20.4643 16.5054 20.0989C16.354 19.7334 16.3144 19.3313 16.3916 18.9433C16.4687 18.5554 16.6592 18.199 16.9389 17.9193C17.2186 17.6396 17.575 17.4491 17.963 17.3719C18.3509 17.2948 18.753 17.3344 19.1185 17.4857C19.484 17.6371 19.7963 17.8935 20.0161 18.2224C20.2358 18.5513 20.3531 18.9379 20.3531 19.3335C20.3531 19.8639 20.1424 20.3726 19.7673 20.7477C19.3923 21.1228 18.8836 21.3335 18.3531 21.3335Z" fill="#272622"/>
</g>
<defs>
<clipPath id="clip0_177_2574">
<rect width="24" height="24" fill="white"/>
</clipPath>
</defs>
</svg>
