<svg width="73" height="85" viewBox="0 0 73 85" fill="none" xmlns="http://www.w3.org/2000/svg">
<g clip-path="url(#clip0_281_5017)">
<path d="M44.403 0L26.0488 18.2342V0.463964H0V65.0631H26.0488V47.2928L44.403 65.527L62.8208 47.2297L48.2616 32.7658L62.8208 18.3018L44.403 0ZM45.5366 4.30631L58.4861 17.1712H45.5366V4.30631ZM22.1766 2.71622L13.0176 11.8153L3.86311 2.71622H22.1766ZM23.7862 4.2973V20.482L14.1557 30.0496V13.8649L23.7862 4.2973ZM2.26255 4.30631L11.8931 13.8739V51.6577L2.26255 61.0315V4.30631ZM3.6636 62.8153L13.0085 53.7162L21.9771 62.8153H3.6636ZM23.7862 61.4324L14.1557 51.6667V35.4775L23.7862 45.045V61.4324ZM43.2786 61.2297L14.6272 32.7658L43.274 4.30631V17.8333L28.2433 32.7658L43.2786 47.7027V61.2297ZM45.5411 61.2207V48.3559H58.4907L45.5411 61.2207ZM58.4907 46.1081H44.8746L31.4444 32.7658L44.8791 19.4189H58.4952L45.0605 32.7658L58.4907 46.1081Z" fill="white"/>
<path d="M71.6444 15.973L72.9956 14.6306L72.5285 14.1667L71.1773 15.509C69.8896 16.7883 67.7994 16.7883 66.5072 15.509L65.156 14.1667L64.689 14.6306L66.0401 15.973C67.3278 17.2522 67.3278 19.3288 66.0401 20.6126L64.689 21.9549L65.156 22.4189L66.5072 21.0766C67.7949 19.7973 69.8851 19.7973 71.1773 21.0766L72.5285 22.4189L72.9956 21.9549L71.6444 20.6126C70.3567 19.3333 70.3567 17.2567 71.6444 15.973Z" fill="white"/>
<path d="M6.82391 84.8378L1.6459 79.1351V84.8378H0V72.3378H1.64137V78.1306L6.83752 72.3378H8.91416L3.21019 78.5946L8.96857 84.8333H6.81938L6.82391 84.8378Z" fill="white"/>
<path d="M19.7823 80.536H11.8748C11.9337 81.5045 12.2692 82.2613 12.8768 82.8063C13.4844 83.3513 14.2235 83.6216 15.0895 83.6216C15.8013 83.6216 16.3908 83.4595 16.8669 83.1306C17.343 82.8018 17.674 82.3603 17.8689 81.8108H19.6373C19.3743 82.7567 18.8438 83.5225 18.0503 84.1171C17.2568 84.7072 16.2684 85.0045 15.0895 85.0045C14.1509 85.0045 13.3121 84.7973 12.573 84.3784C11.834 83.9595 11.2536 83.3649 10.8319 82.5946C10.4102 81.8243 10.2017 80.9279 10.2017 79.9144C10.2017 78.9009 10.4057 78.009 10.8138 77.2432C11.2218 76.4775 11.7977 75.8874 12.5368 75.4775C13.2758 75.0631 14.1282 74.8604 15.0895 74.8604C16.0507 74.8604 16.8578 75.0631 17.5787 75.4685C18.2997 75.8739 18.8574 76.4324 19.2473 77.1441C19.6373 77.8558 19.8322 78.6576 19.8322 79.554C19.8322 79.8649 19.8141 80.1937 19.7778 80.5405L19.7823 80.536ZM17.7238 77.6036C17.4473 77.1531 17.0709 76.8153 16.5948 76.5811C16.1187 76.3468 15.5928 76.2297 15.0169 76.2297C14.1872 76.2297 13.4799 76.491 12.895 77.018C12.31 77.545 11.9791 78.2748 11.8929 79.2072H18.1364C18.1364 78.5856 17.9959 78.0495 17.7193 77.6036H17.7238Z" fill="white"/>
<path d="M29.7442 75.9189C30.4923 76.6441 30.8641 77.6847 30.8641 79.0496V84.8423H29.2409V79.2838C29.2409 78.3018 28.9961 77.5541 28.5018 77.0315C28.0076 76.5135 27.3366 76.2523 26.4796 76.2523C25.6227 76.2523 24.9244 76.5225 24.412 77.0586C23.8997 77.5946 23.6458 78.3784 23.6458 79.4054V84.8378H22.0044V75.0135H23.6458V76.4099C23.9722 75.9099 24.412 75.518 24.9743 75.2432C25.532 74.9685 26.1486 74.8288 26.8242 74.8288C28.0258 74.8288 29.0006 75.1892 29.7487 75.9144L29.7442 75.9189Z" fill="white"/>
<path d="M34.7814 83.4955H39.6375V84.8424H32.9043V83.4955L37.706 76.3423H32.9406V75.0135H39.6013V76.3423L34.7814 83.4955Z" fill="white"/>
<path d="M41.764 77.2432C42.172 76.4865 42.7343 75.8964 43.4507 75.4775C44.1671 75.0586 44.9651 74.8513 45.8402 74.8513C46.7153 74.8513 47.4589 75.036 48.0982 75.4054C48.7375 75.7748 49.2091 76.2432 49.5219 76.8018V75.009H51.1814V84.8333H49.5219V83.0045C49.1955 83.5766 48.7103 84.054 48.071 84.4279C47.4271 84.8063 46.679 84.991 45.822 84.991C44.9651 84.991 44.1489 84.7748 43.4416 84.3468C42.7297 83.9144 42.172 83.3153 41.764 82.536C41.3559 81.7613 41.1519 80.8739 41.1519 79.8829C41.1519 78.8919 41.3559 77.9955 41.764 77.2387V77.2432ZM49.0776 77.973C48.7783 77.4234 48.3702 77 47.8579 76.7072C47.3455 76.4144 46.7833 76.2658 46.1712 76.2658C45.5591 76.2658 44.9968 76.4099 44.4935 76.6982C43.9902 76.9865 43.5867 77.4054 43.2829 77.955C42.9837 78.5045 42.8295 79.1486 42.8295 79.8919C42.8295 80.6351 42.9791 81.2973 43.2829 81.8559C43.5822 82.4099 43.9857 82.8378 44.4935 83.1306C44.9968 83.4234 45.5591 83.5721 46.1712 83.5721C46.7833 83.5721 47.3455 83.4279 47.8579 83.1306C48.3702 82.8378 48.7738 82.4144 49.0776 81.8559C49.3768 81.3018 49.531 80.6531 49.531 79.9099C49.531 79.1667 49.3814 78.5225 49.0776 77.973Z" fill="white"/>
<path d="M56.845 75.2973C57.38 74.9865 58.033 74.8288 58.8038 74.8288V76.5135H58.3685C56.5276 76.5135 55.6072 77.5045 55.6072 79.491V84.8333H53.9658V75.009H55.6072V76.6036C55.8974 76.0405 56.31 75.6036 56.845 75.2928V75.2973Z" fill="white"/>
<path d="M60.7532 73.0946C60.5356 72.8784 60.4268 72.6171 60.4268 72.3063C60.4268 71.9955 60.5356 71.7342 60.7532 71.518C60.9709 71.3018 61.2338 71.1937 61.5467 71.1937C61.8596 71.1937 62.1044 71.3018 62.313 71.518C62.5215 71.7342 62.6304 71.9955 62.6304 72.3063C62.6304 72.6171 62.5261 72.8784 62.313 73.0946C62.1044 73.3108 61.846 73.4189 61.5467 73.4189C61.2474 73.4189 60.9709 73.3108 60.7532 73.0946ZM62.3402 75.0135V84.8378H60.6988V75.0135H62.3402Z" fill="white"/>
<path d="M66.0218 71.2748V71.5901H65.5004V73.2207H65.1059V71.5901H64.5845V71.2748H66.0218Z" fill="white"/>
<path d="M68.4385 71.2748V73.2207H68.044V71.955L67.518 73.2207H67.2188L66.6928 71.955V73.2207H66.2983V71.2748H66.7427L67.3639 72.7207L67.985 71.2748H68.4294H68.4385Z" fill="white"/>
</g>
<defs>
<clipPath id="clip0_281_5017">
<rect width="73" height="85" fill="white"/>
</clipPath>
</defs>
</svg>
