<svg width="64" height="64" viewBox="0 0 64 64" fill="none" xmlns="http://www.w3.org/2000/svg">
<path d="M13.3333 39.9999C13.3333 42.4513 13.8162 44.8786 14.7542 47.1433C15.6923 49.4081 17.0673 51.4659 18.8007 53.1992C20.534 54.9326 22.5918 56.3076 24.8566 57.2457C27.1213 58.1838 29.5487 58.6666 32 58.6666C34.4513 58.6666 36.8787 58.1838 39.1434 57.2457C41.4082 56.3076 43.466 54.9326 45.1993 53.1992C46.9327 51.4659 48.3077 49.4081 49.2458 47.1433C50.1838 44.8786 50.6667 42.4513 50.6667 39.9999C50.6667 37.5486 50.1838 35.1212 49.2458 32.8565C48.3077 30.5917 46.9327 28.534 45.1993 26.8006C43.466 25.0672 41.4082 23.6923 39.1434 22.7542C36.8787 21.8161 34.4513 21.3333 32 21.3333C29.5487 21.3333 27.1213 21.8161 24.8566 22.7542C22.5918 23.6923 20.534 25.0672 18.8007 26.8006C17.0673 28.534 15.6923 30.5917 14.7542 32.8565C13.8162 35.1212 13.3333 37.5486 13.3333 39.9999Z" stroke="black" stroke-width="2"/>
<path d="M32 21.3333L21.3333 10.6666L26.6667 5.33325H32M32 21.3333L42.6667 10.6666L37.3333 5.33325H32" stroke="black" stroke-width="2"/>
</svg>
