<svg width="24" height="24" viewBox="0 0 24 24" fill="none" xmlns="http://www.w3.org/2000/svg">
<path fill-rule="evenodd" clip-rule="evenodd" d="M0.0453331 3.17675C-0.0520524 3.38795 -0.0616523 3.36523 0.747053 4.83385C1.97112 7.05682 3.13389 8.8561 4.30961 10.3468C4.53703 10.6351 4.76157 10.9222 4.80855 10.9848C4.88509 11.0868 4.88663 11.1279 4.82297 11.3815C4.59576 12.2876 5.38213 13.0774 6.2587 12.8236L6.48766 12.7573L6.85251 13.0677L7.21731 13.3781L7.18425 13.652C7.11114 14.257 7.44822 14.8623 7.99316 15.1048C8.20086 15.1972 8.33028 15.2182 8.59616 15.2026C8.91865 15.1838 9.10352 15.106 9.47293 14.8336C9.53156 14.7904 9.6599 14.8103 9.9863 14.9134L10.4215 15.0508L10.5099 15.3626C10.6281 15.7799 10.9621 16.1668 11.3461 16.3314L11.6279 16.4522V16.8605V17.2689L11.2161 18.0411L10.8043 18.8133L9.98681 19.2755C9.12657 19.7618 9.02127 19.8663 9.11815 20.1372C9.16558 20.2697 9.2603 20.3337 10.1631 20.8425C10.8541 21.2321 10.7078 21.0548 11.4302 22.3777C11.9182 23.2712 12.0518 23.2366 12.6858 22.0518L13.1423 21.1987L13.9477 20.746C14.5591 20.4024 14.7667 20.2592 14.8099 20.1514C14.9232 19.8685 14.8295 19.7734 13.9432 19.2711L13.1194 18.8043L12.733 18.0743L12.3466 17.3444V16.891V16.4376L12.5904 16.3263C12.7246 16.2651 12.9237 16.1266 13.033 16.0186C13.2432 15.8105 13.4747 15.3693 13.4755 15.1749C13.476 15.0754 13.5383 15.039 13.907 14.9227C14.144 14.8479 14.3648 14.7867 14.3976 14.7867C14.4305 14.7867 14.5427 14.8554 14.6469 14.9394C15.0358 15.2528 15.5822 15.3062 16.0315 15.0746C16.5362 14.8145 16.7795 14.3699 16.7546 13.7529L16.739 13.3652L17.0944 13.0638C17.3612 12.8377 17.4761 12.7709 17.5549 12.7963C17.7929 12.873 18.1624 12.8849 18.3769 12.8228C18.6839 12.7339 18.9919 12.4515 19.0995 12.1604C19.1851 11.9283 19.1878 11.3733 19.1041 11.1758C19.0814 11.1223 19.2003 10.9364 19.4602 10.6183C20.0592 9.88547 20.8633 8.7609 21.5055 7.75786C22.5537 6.12073 24 3.53614 24 3.30003C24 3.06111 23.7188 2.92455 23.4889 3.05182C23.4374 3.08033 23.1932 3.48055 22.9463 3.94113C21.6725 6.31717 20.2872 8.4777 19.0305 10.0482C18.791 10.3474 18.581 10.5918 18.5639 10.5911C18.5467 10.5903 18.4345 10.5663 18.3146 10.5377C17.5239 10.349 16.7539 11.1734 16.9607 11.9871C17.0228 12.2317 17.0106 12.25 16.5288 12.6387L16.373 12.7643L16.0724 12.6075C15.1888 12.1466 14.1434 12.7846 14.1434 13.7845V14.0889L13.8591 14.1989C13.7028 14.2594 13.5445 14.3089 13.5074 14.3089C13.4704 14.3089 13.3692 14.191 13.2826 14.0469C12.6849 13.0526 11.2421 13.07 10.6707 14.0783C10.5466 14.2973 10.5253 14.3119 10.3766 14.2791C10.2883 14.2596 10.141 14.2118 10.0493 14.1728C9.89076 14.1055 9.88245 14.0879 9.88193 13.8205C9.88106 13.3215 9.56282 12.8017 9.11794 12.5725C8.98616 12.5047 8.81423 12.4772 8.52203 12.4772C8.16467 12.4772 8.07956 12.4965 7.86682 12.6258L7.6223 12.7744L7.29452 12.4955C7.00216 12.2467 6.97177 12.2031 7.01283 12.0912C7.03819 12.0223 7.05893 11.829 7.05893 11.6617C7.05893 10.8875 6.34936 10.3538 5.5883 10.5556C5.4308 10.5974 5.41596 10.5848 4.99331 10.0512C3.67817 8.3909 2.23751 6.13448 0.999834 3.7964C0.591708 3.02543 0.570147 3 0.325066 3C0.150984 3 0.116896 3.02156 0.0453331 3.17675ZM5.83153 11.2874C5.65498 11.3604 5.57367 11.4931 5.57182 11.7114C5.56971 11.9536 5.74066 12.1321 5.97471 12.1321C6.20084 12.1321 6.31389 12.0605 6.39074 11.8686C6.48119 11.6428 6.37955 11.4003 6.15336 11.3026C6.06028 11.2624 5.97763 11.231 5.96968 11.2328C5.96172 11.2347 5.89955 11.2592 5.83153 11.2874ZM17.8116 11.4129C17.4933 11.742 17.8236 12.278 18.2499 12.1243C18.4377 12.0565 18.507 11.938 18.507 11.6843C18.507 11.3021 18.0799 11.1355 17.8116 11.4129ZM8.29656 13.285C8.07945 13.3957 7.91651 13.7395 7.96425 13.9863C8.00419 14.1928 8.22956 14.4502 8.41186 14.4975C8.65186 14.5598 8.88806 14.478 9.06286 14.2721C9.20983 14.099 9.2241 14.053 9.2026 13.8219C9.1758 13.533 9.0664 13.3746 8.81885 13.2663C8.60586 13.173 8.50971 13.1765 8.29656 13.285ZM15.2381 13.2714C14.7921 13.472 14.7577 14.1475 15.1799 14.4137C15.4873 14.6076 15.8535 14.5116 16.0449 14.1868C16.2403 13.8555 16.1051 13.4191 15.761 13.2704C15.5443 13.1767 15.4482 13.177 15.2381 13.2714ZM11.6274 14.216C11.3808 14.3896 11.2607 14.5831 11.2311 14.8551C11.1793 15.3311 11.5633 15.7629 12.0386 15.7629C12.3436 15.7629 12.5948 15.6053 12.7525 15.3151C13.0454 14.7762 12.6472 14.0965 12.0386 14.0965C11.8727 14.0965 11.744 14.1339 11.6274 14.216ZM11.7049 18.8335L11.3969 19.4263L10.8737 19.7214C10.5859 19.8837 10.3363 20.0318 10.3189 20.0505C10.3015 20.0692 10.5319 20.2203 10.8309 20.3861C11.4175 20.7116 11.4354 20.7313 11.8054 21.4632C11.9124 21.675 12.0173 21.8482 12.0386 21.8482C12.0598 21.8482 12.1648 21.675 12.2718 21.4632C12.6403 20.7341 12.6574 20.7153 13.2459 20.3888C13.546 20.2223 13.7769 20.0704 13.7591 20.0513C13.7413 20.0321 13.4913 19.8837 13.2035 19.7214L12.6803 19.4263L12.3723 18.8335C12.2029 18.5075 12.0527 18.2407 12.0386 18.2407C12.0245 18.2407 11.8743 18.5075 11.7049 18.8335Z" fill="black"/>
</svg>
