<svg width="24" height="24" viewBox="0 0 24 24" fill="none" xmlns="http://www.w3.org/2000/svg">
<path d="M20 6.5C20 8.15685 18.6569 9.5 17 9.5C15.3431 9.5 14 8.15685 14 6.5C14 4.84315 15.3431 3.5 17 3.5C18.6569 3.5 20 4.84315 20 6.5Z" stroke="#1A1A1A" stroke-width="1.5"/>
<path d="M8 12C8 13.6569 6.65685 15 5 15C3.34315 15 2 13.6569 2 12C2 10.3431 3.34315 9 5 9C6.65685 9 8 10.3431 8 12Z" stroke="#1A1A1A" stroke-width="1.5"/>
<path d="M20 17.5C20 19.1569 18.6569 20.5 17 20.5C15.3431 20.5 14 19.1569 14 17.5C14 15.8431 15.3431 14.5 17 14.5C18.6569 14.5 20 15.8431 20 17.5Z" stroke="#1A1A1A" stroke-width="1.5"/>
<path d="M7.72656 10.7498L14.2266 7.75031M7.72656 13.2503L14.2266 16.2498" stroke="#1A1A1A" stroke-width="1.5"/>
</svg>
