<svg width="64" height="64" viewBox="0 0 64 64" fill="none" xmlns="http://www.w3.org/2000/svg">
<path d="M8.16436 38.5103L9.13833 32.796C10.2895 26.0423 10.865 22.6654 13.1444 20.6661C15.4237 18.6667 18.6979 18.6667 25.2462 18.6667H38.7537C45.3021 18.6667 48.5763 18.6667 50.8556 20.6661C53.1349 22.6654 53.7105 26.0423 54.8616 32.796L55.8356 38.5103C57.4285 47.856 58.225 52.5288 55.7724 55.5978C53.3199 58.6667 48.7892 58.6667 39.7277 58.6667H24.2723C15.2108 58.6667 10.6801 58.6667 8.22754 55.5978C5.77498 52.5288 6.57144 47.856 8.16436 38.5103Z" stroke="#272622" stroke-width="2"/>
<path d="M20 23.9999L20.5734 15.9728C21.0016 9.97795 25.9899 5.33325 32 5.33325C38.0101 5.33325 42.9984 9.97796 43.4266 15.9728L44 23.9999" stroke="#272622" stroke-width="2" stroke-linecap="round"/>
</svg>
