<svg width="44" height="44" viewBox="0 0 44 44" fill="none" xmlns="http://www.w3.org/2000/svg">
<path d="M22.001 4.15913C22.512 4.15913 22.9784 4.45117 23.2012 4.91109L23.2031 4.91597L27.8594 14.3027L27.9766 14.5371L28.2354 14.5751L38.6855 16.0966H38.6875C39.1886 16.1679 39.6054 16.517 39.7646 16.997C39.9076 17.468 39.7799 17.9792 39.4316 18.3271L31.8828 25.6562L31.6924 25.8408L31.7393 26.1025L33.5723 36.4238L33.5732 36.4306C33.6699 36.9393 33.4635 37.4578 33.0439 37.7607C32.8026 37.9297 32.5121 38.0144 32.2178 38.0009L32.2051 38H32.1924C32.0323 38.0006 31.874 37.9722 31.7246 37.9169L31.5791 37.8535L22.2334 32.9599L22.001 32.8388L21.7695 32.9599L12.4189 37.8554H12.418C11.9675 38.0922 11.4216 38.0522 11.0107 37.7519C10.6 37.4515 10.3963 36.9434 10.4854 36.4423L12.3184 26.121L12.3652 25.8593L12.1748 25.6748L4.625 18.3457H4.62598C4.27725 17.9975 4.14961 17.486 4.29297 17.0146C4.45246 16.535 4.86924 16.1864 5.37012 16.1152H5.37109L15.8213 14.5927L16.083 14.5546L16.1982 14.3183L20.7998 4.91304L20.8008 4.91109C21.0236 4.45115 21.4899 4.15917 22.001 4.15913Z" fill="white" stroke="#DADADA"/>
</svg>
