<svg width="44" height="44" viewBox="0 0 44 44" fill="none" xmlns="http://www.w3.org/2000/svg">
<path d="M32.1944 38.5C31.9012 38.5012 31.612 38.432 31.3511 38.2983L22.0011 33.4033L12.6511 38.2983C12.0317 38.6241 11.2808 38.5687 10.7159 38.1557C10.1509 37.7427 9.87034 37.0441 9.99274 36.355L11.8261 26.0333L4.27274 18.7C3.79251 18.2208 3.6162 17.5155 3.81441 16.8667C4.03119 16.2019 4.60719 15.7184 5.29941 15.62L15.7494 14.0983L20.3511 4.69334C20.6574 4.06085 21.2983 3.65913 22.0011 3.65913C22.7038 3.65913 23.3448 4.06085 23.6511 4.69334L28.3077 14.08L38.7577 15.6017C39.45 15.7001 40.026 16.1836 40.2428 16.8483C40.441 17.4972 40.2646 18.2024 39.7844 18.6817L32.2311 26.015L34.0644 36.3367C34.1981 37.0385 33.9118 37.754 33.3311 38.17C32.9991 38.4027 32.5994 38.5187 32.1944 38.5Z" fill="url(#paint0_linear_286_2632)"/>
<defs>
<linearGradient id="paint0_linear_286_2632" x1="3.73437" y1="3.65913" x2="13.2005" y2="44.7562" gradientUnits="userSpaceOnUse">
<stop stop-color="#013FE8"/>
<stop offset="1" stop-color="#8725EA"/>
</linearGradient>
</defs>
</svg>
