<svg width="44" height="44" viewBox="0 0 44 44" fill="none" xmlns="http://www.w3.org/2000/svg">
<g clip-path="url(#clip0_205_5224)">
<g filter="url(#filter0_d_205_5224)">
<path d="M22.709 36.1663H14.3377C12.1484 36.1663 10.4071 35.101 8.84359 33.6115C5.64292 30.5622 10.898 28.1253 12.9022 26.9319C15.8783 25.1598 19.3612 24.5098 22.709 24.982C23.9238 25.1534 25.1069 25.4724 26.2507 25.9393" stroke="white" stroke-width="2.4" stroke-linecap="round" stroke-linejoin="round"/>
<path d="M28.375 14.208C28.375 17.7288 25.5208 20.583 22 20.583C18.4792 20.583 15.625 17.7288 15.625 14.208C15.625 10.6872 18.4792 7.83301 22 7.83301C25.5208 7.83301 28.375 10.6872 28.375 14.208Z" stroke="white" stroke-width="2.4"/>
<path d="M31.2083 36.1667L31.2083 26.25M26.25 31.2083H36.1667" stroke="white" stroke-width="2.4" stroke-linecap="round"/>
</g>
</g>
<defs>
<filter id="filter0_d_205_5224" x="-1.36719" y="0.632812" width="46.7344" height="46.7334" filterUnits="userSpaceOnUse" color-interpolation-filters="sRGB">
<feFlood flood-opacity="0" result="BackgroundImageFix"/>
<feColorMatrix in="SourceAlpha" type="matrix" values="0 0 0 0 0 0 0 0 0 0 0 0 0 0 0 0 0 0 127 0" result="hardAlpha"/>
<feOffset dy="2"/>
<feGaussianBlur stdDeviation="4"/>
<feComposite in2="hardAlpha" operator="out"/>
<feColorMatrix type="matrix" values="0 0 0 0 0 0 0 0 0 0 0 0 0 0 0 0 0 0 0.25 0"/>
<feBlend mode="normal" in2="BackgroundImageFix" result="effect1_dropShadow_205_5224"/>
<feBlend mode="normal" in="SourceGraphic" in2="effect1_dropShadow_205_5224" result="shape"/>
</filter>
<clipPath id="clip0_205_5224">
<rect width="44" height="44" fill="white"/>
</clipPath>
</defs>
</svg>
