<svg width="44" height="44" viewBox="0 0 44 44" fill="none" xmlns="http://www.w3.org/2000/svg">
<g clip-path="url(#clip0_205_5259)">
<g filter="url(#filter0_d_205_5259)">
<path d="M15.1049 34.1873C16.0506 34.1873 16.5235 34.1873 16.9542 34.3472C17.0141 34.3694 17.0731 34.3938 17.1311 34.4204C17.5487 34.612 17.8831 34.9464 18.5518 35.6151C20.0909 37.1543 20.8605 37.9238 21.8074 37.9948C21.9348 38.0043 22.0626 38.0043 22.1899 37.9948C23.1369 37.9238 23.9065 37.1543 25.4456 35.6151C26.1143 34.9464 26.4487 34.612 26.8663 34.4204C26.9243 34.3938 26.9833 34.3694 27.0432 34.3472C27.4739 34.1873 27.9468 34.1873 28.8925 34.1873H29.067C31.4798 34.1873 32.6862 34.1873 33.4358 33.4378C34.1854 32.6882 34.1854 31.4818 34.1854 29.0689V28.8945C34.1854 27.9488 34.1854 27.4759 34.3452 27.0451C34.3674 26.9853 34.3919 26.9263 34.4185 26.8683C34.6101 26.4507 34.9444 26.1163 35.6131 25.4476C37.1523 23.9084 37.9219 23.1388 37.9928 22.1919C38.0024 22.0646 38.0024 21.9367 37.9928 21.8094C37.9219 20.8625 37.1523 20.0929 35.6131 18.5537C34.9444 17.885 34.6101 17.5506 34.4185 17.133C34.3919 17.075 34.3674 17.016 34.3452 16.9562C34.1854 16.5254 34.1854 16.0525 34.1854 15.1068V14.9324C34.1854 12.5195 34.1854 11.3131 33.4358 10.5635C32.6862 9.81397 31.4798 9.81397 29.067 9.81397H28.8925C27.9468 9.81397 27.4739 9.81397 27.0432 9.65413C26.9833 9.63193 26.9243 9.6075 26.8663 9.58089C26.4487 9.3893 26.1143 9.05494 25.4456 8.38621C23.9065 6.84705 23.1369 6.07747 22.1899 6.0065C22.0626 5.99696 21.9348 5.99696 21.8074 6.0065C20.8605 6.07747 20.0909 6.84705 18.5518 8.38621C17.8831 9.05493 17.5487 9.3893 17.1311 9.58089C17.0731 9.6075 17.0141 9.63193 16.9542 9.65413C16.5235 9.81397 16.0506 9.81397 15.1049 9.81397H14.9304C12.5176 9.81397 11.3112 9.81397 10.5616 10.5635C9.81201 11.3131 9.81202 12.5195 9.81202 14.9324V15.1068C9.81202 16.0525 9.81201 16.5254 9.65217 16.9562C9.62997 17.016 9.60554 17.075 9.57893 17.133C9.38735 17.5506 9.05298 17.885 8.38426 18.5537C6.8451 20.0929 6.07551 20.8625 6.00455 21.8094C5.99501 21.9367 5.99501 22.0646 6.00455 22.1919C6.07551 23.1388 6.84509 23.9084 8.38425 25.4476C9.05298 26.1163 9.38735 26.4507 9.57893 26.8683C9.60554 26.9263 9.62997 26.9853 9.65217 27.0451C9.81201 27.4759 9.81202 27.9488 9.81202 28.8945V29.0689C9.81202 31.4818 9.81201 32.6882 10.5616 33.4378C11.3112 34.1873 12.5176 34.1873 14.9304 34.1873H15.1049Z" stroke="white" stroke-width="2.4"/>
<path d="M26.8008 17.199L17.2 26.7998" stroke="white" stroke-width="2.4" stroke-linecap="round" stroke-linejoin="round"/>
<path d="M26.802 26.8H26.7847M17.2184 17.1992H17.2012" stroke="white" stroke-width="2.8" stroke-linecap="round" stroke-linejoin="round"/>
</g>
</g>
<defs>
<filter id="filter0_d_205_5259" x="-3.20312" y="-1.2002" width="50.4023" height="50.4023" filterUnits="userSpaceOnUse" color-interpolation-filters="sRGB">
<feFlood flood-opacity="0" result="BackgroundImageFix"/>
<feColorMatrix in="SourceAlpha" type="matrix" values="0 0 0 0 0 0 0 0 0 0 0 0 0 0 0 0 0 0 127 0" result="hardAlpha"/>
<feOffset dy="2"/>
<feGaussianBlur stdDeviation="4"/>
<feComposite in2="hardAlpha" operator="out"/>
<feColorMatrix type="matrix" values="0 0 0 0 0 0 0 0 0 0 0 0 0 0 0 0 0 0 0.25 0"/>
<feBlend mode="normal" in2="BackgroundImageFix" result="effect1_dropShadow_205_5259"/>
<feBlend mode="normal" in="SourceGraphic" in2="effect1_dropShadow_205_5259" result="shape"/>
</filter>
<clipPath id="clip0_205_5259">
<rect width="44" height="44" fill="white"/>
</clipPath>
</defs>
</svg>
