<svg width="44" height="44" viewBox="0 0 44 44" fill="none" xmlns="http://www.w3.org/2000/svg">
<g clip-path="url(#clip0_205_5289)">
<g filter="url(#filter0_d_205_5289)">
<path d="M33.0002 25L34.235 26.1368C34.5038 26.401 34.6382 26.5331 34.5909 26.6454C34.5436 26.7576 34.3535 26.7576 33.9733 26.7576H29.3166C26.9326 26.7576 25 28.6571 25 31.0001C25 31.5282 25.0982 32.0338 25.2776 32.5002M29.0001 37.0003L27.7653 35.8634C27.4965 35.5992 27.3621 35.4671 27.4094 35.3549C27.4567 35.2426 27.6468 35.2426 28.0269 35.2426H32.6836C35.0676 35.2426 37.0003 33.3432 37.0003 31.0001C37.0003 30.472 36.9021 29.9665 36.7227 29.5001" stroke="white" stroke-width="2.2" stroke-linecap="round" stroke-linejoin="round"/>
<path d="M36.9876 21.2503C37.0007 20.3492 37.0007 20.1035 37.0007 19.0003C37.0007 13.3433 37.0007 10.5148 35.2433 8.7574C33.4859 7 30.6574 7 25.0004 7H19.0003C13.3433 7 10.5148 7 8.7574 8.7574C7 10.5148 7 13.3433 7 19.0003C7 24.6572 7 27.4857 8.7574 29.2431C10.5148 31.0005 13.3433 31.0005 19.0003 31.0005H20.5003" stroke="white" stroke-width="2.2" stroke-linecap="round"/>
<path d="M31.75 19H31.7365" stroke="white" stroke-width="2.8" stroke-linecap="round" stroke-linejoin="round"/>
<path d="M12.25 19H12.2365" stroke="white" stroke-width="2.8" stroke-linecap="round" stroke-linejoin="round"/>
<path d="M25.7502 19.0001C25.7502 21.0712 24.0712 22.7502 22.0001 22.7502C19.929 22.7502 18.25 21.0712 18.25 19.0001C18.25 16.929 19.929 15.25 22.0001 15.25C24.0712 15.25 25.7502 16.929 25.7502 19.0001Z" stroke="white" stroke-width="2.4"/>
</g>
</g>
<defs>
<filter id="filter0_d_205_5289" x="-2.09961" y="-0.0996094" width="48.2012" height="48.2002" filterUnits="userSpaceOnUse" color-interpolation-filters="sRGB">
<feFlood flood-opacity="0" result="BackgroundImageFix"/>
<feColorMatrix in="SourceAlpha" type="matrix" values="0 0 0 0 0 0 0 0 0 0 0 0 0 0 0 0 0 0 127 0" result="hardAlpha"/>
<feOffset dy="2"/>
<feGaussianBlur stdDeviation="4"/>
<feComposite in2="hardAlpha" operator="out"/>
<feColorMatrix type="matrix" values="0 0 0 0 0 0 0 0 0 0 0 0 0 0 0 0 0 0 0.25 0"/>
<feBlend mode="normal" in2="BackgroundImageFix" result="effect1_dropShadow_205_5289"/>
<feBlend mode="normal" in="SourceGraphic" in2="effect1_dropShadow_205_5289" result="shape"/>
</filter>
<clipPath id="clip0_205_5289">
<rect width="44" height="44" fill="white"/>
</clipPath>
</defs>
</svg>
