<svg width="24" height="24" viewBox="0 0 24 24" fill="none" xmlns="http://www.w3.org/2000/svg">
<path d="M15.472 13.324H13.4508C12.8528 12.8747 12.2007 12.5359 11.4946 12.3077C10.7885 12.0795 10.0571 11.9618 9.30057 11.9546C8.6665 11.9546 8.05404 12.0367 7.4632 12.2007C6.87236 12.3647 6.32115 12.593 5.80957 12.8854C5.29799 13.1778 4.83325 13.5344 4.41534 13.9552C3.99743 14.3759 3.63716 14.8395 3.33453 15.3459C3.03191 15.8523 2.79774 16.3978 2.63201 16.9827C2.46629 17.5675 2.38343 18.1737 2.38343 18.8013H1C1 17.9455 1.12609 17.1217 1.37828 16.3301C1.63047 15.5384 1.99434 14.8074 2.46989 14.137C2.94545 13.4666 3.50746 12.8711 4.15594 12.3505C4.80443 11.8298 5.53937 11.4198 6.36078 11.1202C5.95728 10.8706 5.59701 10.5782 5.27998 10.243C4.96294 9.90778 4.68914 9.53692 4.45857 9.1304C4.228 8.72388 4.05867 8.29953 3.95059 7.85735C3.84251 7.41517 3.78127 6.95516 3.76686 6.47732C3.76686 5.72133 3.91096 5.0117 4.19918 4.34843C4.48739 3.68516 4.88369 3.10747 5.38806 2.61537C5.89243 2.12327 6.47967 1.73101 7.14977 1.4386C7.81987 1.14619 8.5368 0.999985 9.30057 0.999985C10.0643 0.999985 10.7813 1.14262 11.4514 1.4279C12.1215 1.71318 12.7051 2.10544 13.2023 2.60467C13.6994 3.10391 14.0957 3.68516 14.3911 4.34843C14.6866 5.0117 14.8343 5.72133 14.8343 6.47732C14.8343 6.94802 14.7766 7.40803 14.6613 7.85735C14.5461 8.30666 14.3731 8.73101 14.1426 9.1304C13.912 9.52979 13.6418 9.89708 13.332 10.2323C13.0221 10.5675 12.6583 10.8635 12.2404 11.1202C12.86 11.3484 13.4436 11.648 13.9913 12.0188C14.5389 12.3897 15.0324 12.8247 15.472 13.324ZM5.15028 6.47732C5.15028 7.04787 5.25836 7.5792 5.47452 8.0713C5.69068 8.56341 5.9861 8.99846 6.36078 9.37645C6.73546 9.75444 7.17499 10.0504 7.67936 10.2644C8.18374 10.4783 8.72414 10.5853 9.30057 10.5853C9.86979 10.5853 10.4066 10.4783 10.911 10.2644C11.4153 10.0504 11.8549 9.75801 12.2295 9.38715C12.6042 9.01629 12.9032 8.58124 13.1266 8.082C13.35 7.58277 13.4581 7.04787 13.4508 6.47732C13.4508 5.91389 13.3428 5.38256 13.1266 4.88333C12.9104 4.38409 12.615 3.94904 12.2404 3.57818C11.8657 3.20732 11.4225 2.91134 10.911 2.69025C10.3994 2.46916 9.86258 2.36219 9.30057 2.36932C8.72414 2.36932 8.18734 2.4763 7.69017 2.69025C7.193 2.90421 6.75347 3.19662 6.37159 3.56748C5.98971 3.93834 5.69068 4.37696 5.47452 4.88333C5.25836 5.38969 5.15028 5.92102 5.15028 6.47732ZM13.4508 14.6933H19.4385L18.5198 13.784L19.4493 12.864L22 15.378L19.4493 17.892L18.5198 16.972L19.4385 16.0626H13.4508V14.6933ZM16.6825 17.892L15.7638 18.8013H21.7514V20.1706H15.7638L16.6825 21.08L15.753 22L13.2023 19.486L15.753 16.972L16.6825 17.892Z" fill="#1A1A1A"/>
</svg>
