<svg width="30" height="30" viewBox="0 0 30 30" fill="none" xmlns="http://www.w3.org/2000/svg">
<path d="M17.5 22.5C23.0228 22.5 27.5 18.0228 27.5 12.5C27.5 6.97715 23.0228 2.5 17.5 2.5C11.9772 2.5 7.5 6.97715 7.5 12.5C7.5 18.0228 11.9772 22.5 17.5 22.5Z" stroke="#3B5455" stroke-width="1.8" stroke-linecap="round"/>
<path d="M3.94571 13.75C3.03153 15.1469 2.5 16.8169 2.5 18.611C2.5 23.5203 6.47972 27.5 11.389 27.5C13.1831 27.5 14.8531 26.9685 16.25 26.0543" stroke="#3B5455" stroke-width="1.8" stroke-linecap="round"/>
<path d="M21.25 15.6153C20.652 16.7447 19.564 17.5 18.321 17.5C16.4338 17.5 14.9038 15.7589 14.9038 13.6111V11.3889C14.9038 9.24112 16.4338 7.5 18.321 7.5C19.564 7.5 20.652 8.25532 21.25 9.38467M13.75 12.5H18.6538" stroke="#3B5455" stroke-width="1.8" stroke-linecap="round"/>
</svg>
