<svg width="64" height="64" viewBox="0 0 64 64" fill="none" xmlns="http://www.w3.org/2000/svg">
<path d="M45.3334 53.3332C46.7479 53.3332 48.1044 52.7713 49.1046 51.7711C50.1048 50.7709 50.6667 49.4143 50.6667 47.9998C50.6667 46.5853 50.1048 45.2288 49.1046 44.2286C48.1044 43.2284 46.7479 42.6665 45.3334 42.6665C43.9189 42.6665 42.5623 43.2284 41.5621 44.2286C40.5619 45.2288 40 46.5853 40 47.9998C40 49.4143 40.5619 50.7709 41.5621 51.7711C42.5623 52.7713 43.9189 53.3332 45.3334 53.3332ZM18.6667 53.3332C20.0812 53.3332 21.4377 52.7713 22.4379 51.7711C23.4381 50.7709 24 49.4143 24 47.9998C24 46.5853 23.4381 45.2288 22.4379 44.2286C21.4377 43.2284 20.0812 42.6665 18.6667 42.6665C17.2522 42.6665 15.8957 43.2284 14.8955 44.2286C13.8953 45.2288 13.3334 46.5853 13.3334 47.9998C13.3334 49.4143 13.8953 50.7709 14.8955 51.7711C15.8957 52.7713 17.2522 53.3332 18.6667 53.3332Z" stroke="#272622" stroke-width="2.4"/>
<path d="M50.6667 29.3332H58.6667M58.6667 29.3332V34.6665C58.6667 40.9518 58.6667 44.0932 56.7147 46.0478C55.416 47.3465 53.592 47.7812 50.6667 47.9252M58.6667 29.3332L55.264 23.0132C53.424 19.5945 52.504 17.8852 50.9227 16.9438C49.344 15.9998 47.4054 15.9998 43.5227 15.9998H38.6667M13.3334 47.9252C10.408 47.7812 8.58671 47.3465 7.28537 46.0478C5.33337 44.0932 5.33337 40.9518 5.33337 34.6665V23.9998C5.33337 17.7145 5.33337 14.5705 7.28537 12.6185C9.23737 10.6665 12.3814 10.6665 18.6667 10.6665H27.4667C30.4454 10.6665 31.9334 10.6665 33.1387 11.0585C34.3393 11.4486 35.4305 12.1174 36.3232 13.01C37.2158 13.9027 37.8846 14.9939 38.2747 16.1945C38.6667 17.3998 38.6667 18.8878 38.6667 21.8665C38.6667 25.1198 38.6667 26.7492 37.776 27.8505C37.6 28.0674 37.4027 28.2647 37.184 28.4425C36.0827 29.3332 34.456 29.3332 31.2 29.3332H21.3334M40 47.9998H24" stroke="#272622" stroke-width="2.4" stroke-linecap="round" stroke-linejoin="round"/>
<path d="M26.6667 34.6667C26.6667 34.6667 24.8747 33.184 23.2987 31.776C22.1867 30.88 21.3334 30.1147 21.3334 29.3467C21.3334 28.6667 22 28.0347 23.0827 27.0427C24.6187 25.7653 26.6667 24 26.6667 24" stroke="#272622" stroke-width="2.4" stroke-linecap="round" stroke-linejoin="round"/>
</svg>
