<svg width="74" height="74" viewBox="0 0 74 74" fill="none" xmlns="http://www.w3.org/2000/svg">
<circle cx="37" cy="37" r="36.5" fill="#F7F7F7" stroke="#3B5455"/>
<path fill-rule="evenodd" clip-rule="evenodd" d="M18.0718 22.2828C17.9176 22.6207 17.9024 22.5844 19.1828 24.9342C21.1209 28.4909 22.962 31.3698 24.8235 33.7548C25.1836 34.2162 25.5392 34.6756 25.6135 34.7757C25.7347 34.9389 25.7372 35.0047 25.6364 35.4105C25.2766 36.8601 26.5217 38.1238 27.9096 37.7178L28.2721 37.6117L28.8498 38.1084L29.4274 38.605L29.3751 39.0432C29.2593 40.0112 29.793 40.9797 30.6558 41.3676C30.9847 41.5154 31.1896 41.5491 31.6106 41.5242C32.1212 41.494 32.4139 41.3696 32.9988 40.9338C33.0916 40.8646 33.2948 40.8965 33.8116 41.0615L34.5007 41.2813L34.6406 41.7802C34.8278 42.4478 35.3567 43.0669 35.9647 43.3302L36.4108 43.5235V44.1768V44.8302L35.7588 46.0657L35.1068 47.3013L33.8125 48.0408C32.4504 48.8189 32.2837 48.9861 32.4371 49.4195C32.5122 49.6315 32.6621 49.7339 34.0915 50.548C35.1857 51.1713 34.954 50.8877 36.0979 53.0044C36.8705 54.434 37.082 54.3785 38.0858 52.4829L38.8087 51.1179L40.0838 50.3936C41.0518 49.8438 41.3806 49.6147 41.449 49.4423C41.6284 48.9896 41.48 48.8374 40.0767 48.0338L38.7724 47.2869L38.1606 46.1189L37.5488 44.951V44.2256V43.5002L37.9349 43.3221C38.1473 43.2242 38.4625 43.0026 38.6355 42.8297C38.9685 42.4969 39.3349 41.7909 39.3362 41.4799C39.3369 41.3207 39.4356 41.2624 40.0194 41.0763C40.3947 40.9566 40.7443 40.8588 40.7963 40.8588C40.8483 40.8588 41.0259 40.9687 41.191 41.1031C41.8066 41.6046 42.6719 41.6899 43.3833 41.3194C44.1824 40.9032 44.5676 40.1918 44.5281 39.2046L44.5033 38.5843L45.0662 38.1021C45.4886 37.7403 45.6705 37.6335 45.7953 37.6741C46.1721 37.7968 46.7572 37.8158 47.0967 37.7165C47.5829 37.5742 48.0705 37.1225 48.2408 36.6566C48.3765 36.2853 48.3806 35.3973 48.2481 35.0813C48.2123 34.9957 48.4005 34.6982 48.812 34.1893C49.7604 33.0168 51.0335 31.2174 52.0504 29.6126C53.71 26.9932 56 22.8578 56 22.48C56 22.0978 55.5548 21.8793 55.1907 22.0829C55.1092 22.1285 54.7226 22.7689 54.3317 23.5058C52.3148 27.3075 50.1214 30.7643 48.1317 33.277C47.7525 33.7559 47.4199 34.1468 47.3928 34.1457C47.3656 34.1445 47.188 34.1062 46.9981 34.0604C45.7462 33.7585 44.527 35.0774 44.8544 36.3794C44.9528 36.7707 44.9335 36.8 44.1706 37.4219L43.9239 37.6229L43.4479 37.372C42.049 36.6345 40.3937 37.6553 40.3937 39.2553V39.7422L39.9435 39.9182C39.696 40.0151 39.4454 40.0942 39.3868 40.0942C39.3281 40.0942 39.1679 39.9057 39.0307 39.6751C38.0844 38.0842 35.8 38.1119 34.8953 39.7253C34.6988 40.0757 34.6651 40.099 34.4296 40.0465C34.2898 40.0154 34.0566 39.9389 33.9114 39.8765C33.6604 39.7688 33.6472 39.7407 33.6464 39.3128C33.645 38.5144 33.1411 37.6827 32.4367 37.3161C32.2281 37.2075 31.9559 37.1635 31.4932 37.1635C30.9274 37.1635 30.7926 37.1944 30.4558 37.4013L30.0686 37.6391L29.5497 37.1929C29.0867 36.7947 29.0386 36.7249 29.1037 36.546C29.1438 36.4356 29.1766 36.1264 29.1766 35.8587C29.1766 34.6199 28.0532 33.766 26.8481 34.0889C26.5988 34.1558 26.5753 34.1356 25.9061 33.2819C23.8238 30.6254 21.5427 27.0152 19.5831 23.2742C18.9369 22.0407 18.9027 22 18.5147 22C18.2391 22 18.1851 22.0345 18.0718 22.2828ZM27.2333 35.2598C26.9537 35.3766 26.825 35.5889 26.822 35.9382C26.8187 36.3257 27.0894 36.6113 27.46 36.6113C27.818 36.6113 27.997 36.4968 28.1187 36.1898C28.2619 35.8284 28.1009 35.4405 27.7428 35.2841C27.5955 35.2198 27.4646 35.1696 27.452 35.1725C27.4394 35.1755 27.341 35.2147 27.2333 35.2598ZM46.2018 35.4607C45.6978 35.9873 46.2207 36.8448 46.8957 36.5988C47.1931 36.4904 47.3027 36.3008 47.3027 35.8948C47.3027 35.2834 46.6265 35.0167 46.2018 35.4607ZM31.1362 38.4561C30.7925 38.6331 30.5345 39.1832 30.6101 39.5781C30.6733 39.9085 31.0301 40.3203 31.3188 40.3961C31.6988 40.4957 32.0728 40.3648 32.3495 40.0354C32.5822 39.7584 32.6048 39.6849 32.5708 39.3151C32.5283 38.8528 32.3551 38.5994 31.9632 38.426C31.6259 38.2768 31.4737 38.2824 31.1362 38.4561ZM42.127 38.4342C41.4209 38.7553 41.3663 39.836 42.0348 40.2619C42.5216 40.5722 43.1013 40.4186 43.4044 39.8989C43.7138 39.3688 43.4997 38.6705 42.9549 38.4326C42.6118 38.2828 42.4596 38.2831 42.127 38.4342ZM36.41 39.9456C36.0195 40.2234 35.8295 40.533 35.7826 40.9682C35.7005 41.7298 36.3086 42.4206 37.0611 42.4206C37.5441 42.4206 37.9418 42.1685 38.1915 41.7041C38.6552 40.8419 38.0247 39.7544 37.0611 39.7544C36.7984 39.7544 36.5946 39.8142 36.41 39.9456ZM36.5327 47.3336L36.045 48.282L35.2167 48.7542C34.761 49.0139 34.3657 49.2509 34.3382 49.2808C34.3106 49.3108 34.6754 49.5524 35.1489 49.8178C36.0777 50.3386 36.106 50.3702 36.6918 51.5412C36.8613 51.88 37.0274 52.1571 37.0611 52.1571C37.0947 52.1571 37.2609 51.88 37.4304 51.5412C38.0139 50.3746 38.041 50.3444 38.9727 49.8221C39.4478 49.5557 39.8135 49.3127 39.7852 49.282C39.757 49.2514 39.3611 49.0139 38.9055 48.7542L38.0771 48.282L37.5894 47.3336C37.3212 46.812 37.0834 46.3852 37.0611 46.3852C37.0387 46.3852 36.801 46.812 36.5327 47.3336Z" fill="#3B5455"/>
</svg>
