<svg width="74" height="74" viewBox="0 0 74 74" fill="none" xmlns="http://www.w3.org/2000/svg">
<circle cx="37" cy="37" r="36.5" fill="#F7F7F7" stroke="#3B5455"/>
<path d="M26.3328 50H47.6672C49.0816 50 50.438 49.4522 51.4381 48.4771C52.4382 47.5019 53 46.1794 53 44.8003V32.6672C53.0002 31.9843 52.8625 31.3079 52.5946 30.6769C52.3267 30.0458 51.9339 29.4724 51.4387 28.9894C50.9435 28.5064 50.3555 28.1233 49.7084 27.8618C49.0613 27.6004 48.3677 27.4659 47.6672 27.4659H45.2128C44.507 27.4659 43.829 27.191 43.3274 26.7036L41.3382 24.7623C41.0907 24.5206 40.7968 24.3289 40.4733 24.1981C40.1498 24.0673 39.803 24 39.4528 24H34.5472C33.8381 24 33.1635 24.2749 32.6618 24.7623L30.6726 26.7036C30.171 27.1927 29.493 27.4659 28.7872 27.4659H26.3328C25.6323 27.4659 24.9387 27.6004 24.2916 27.8618C23.6445 28.1233 23.0565 28.5064 22.5613 28.9894C22.0661 29.4724 21.6733 30.0458 21.4054 30.6769C21.1375 31.3079 20.9998 31.9843 21 32.6672V44.8003C21 46.1794 21.5618 47.5019 22.5619 48.4771C23.562 49.4522 24.9184 50 26.3328 50Z" stroke="#3B5455" stroke-width="1.6" stroke-linecap="round" stroke-linejoin="round"/>
<path d="M37.0001 43.7468C38.3764 43.7468 39.6963 43.2137 40.6694 42.2649C41.6426 41.316 42.1893 40.029 42.1893 38.6871C42.1893 37.3452 41.6426 36.0583 40.6694 35.1094C39.6963 34.1605 38.3764 33.6274 37.0001 33.6274C35.6238 33.6274 34.304 34.1605 33.3308 35.1094C32.3576 36.0583 31.8109 37.3452 31.8109 38.6871C31.8109 40.029 32.3576 41.316 33.3308 42.2649C34.304 43.2137 35.6238 43.7468 37.0001 43.7468Z" stroke="#3B5455" stroke-width="1.6" stroke-linecap="round" stroke-linejoin="round"/>
</svg>
