<svg width="74" height="74" viewBox="0 0 74 74" fill="none" xmlns="http://www.w3.org/2000/svg">
<circle cx="37" cy="37" r="36.5" fill="#F7F7F7" stroke="#3B5455"/>
<path fill-rule="evenodd" clip-rule="evenodd" d="M22.7183 19.2249C22.4656 19.2628 22.4581 19.279 22.5199 19.6523C22.5551 19.8657 22.729 20.5421 22.906 21.1553C23.841 24.3921 25.6746 27.9839 27.6248 30.3985C28.3524 31.2994 28.4225 31.4855 28.7008 33.2571C29.1249 35.9559 29.0361 39.3546 28.4831 41.5958L28.2767 42.432L27.2667 42.9301C25.3847 43.8582 22.9951 44.6624 19.2643 45.623L17.499 46.0775L17.5266 46.3274C17.5417 46.4649 17.5919 46.6766 17.6379 46.7978L17.7217 47.018L19.7008 46.5113C22.785 45.7217 25.0458 44.9903 26.8554 44.1966L27.757 43.8012L27.4373 44.436L27.1176 45.0708L27.5057 45.3022C27.7192 45.4296 27.9232 45.5157 27.959 45.4935C28.1063 45.4025 28.8146 43.8139 29.1099 42.912C29.9576 40.3246 30.1869 37.1378 29.7597 33.8842C29.6858 33.322 29.6251 32.8087 29.6247 32.7433C29.6243 32.678 29.948 32.8906 30.344 33.2158C32.4247 34.9242 34.5661 35.8641 36.7542 36.0293C39.179 36.2123 41.9205 35.2004 44.2464 33.2639C44.5469 33.0137 44.8046 32.821 44.8189 32.8356C44.8333 32.8501 44.789 33.2917 44.7207 33.8167C44.2969 37.0688 44.5322 40.3383 45.3754 42.912C45.6708 43.8139 46.379 45.4025 46.5263 45.4935C46.5622 45.5157 46.7661 45.4296 46.9796 45.3022L47.3677 45.0708L47.0502 44.4404L46.7328 43.8099L47.8643 44.2939C49.6448 45.0553 51.9732 45.7948 55.0342 46.5711C56.9898 47.0669 56.8446 47.0819 56.9748 46.3713L57.0361 46.0367L56.2679 45.8721C53.8392 45.3517 49.9883 44.152 48.0601 43.3151C46.206 42.5103 46.2447 42.5399 46.0487 41.7784C45.5704 39.9203 45.3809 37.0208 45.5948 34.8336C45.7572 33.1723 46.048 31.5904 46.233 31.3621C46.3218 31.2524 46.6631 30.8343 46.9914 30.433C48.4581 28.6397 50.2068 25.5038 51.1146 23.0388C51.6331 21.6308 52.2296 19.4274 52.1214 19.3192C52.0791 19.2769 51.8655 19.2336 51.6468 19.2232L51.2493 19.2041L50.9338 20.3966C49.8852 24.3604 47.7152 28.3566 45.1285 31.0873C43.2609 33.0591 41.3874 34.2658 39.3254 34.8249C38.3506 35.0891 36.1529 35.071 35.1811 34.7907C32.0568 33.8896 29.0697 31.2761 26.6801 27.3531C25.2766 25.0489 24.0162 21.9486 23.4522 19.4132C23.3933 19.1484 23.3323 19.1328 22.7183 19.2249ZM33.9491 27.8304C33.8187 28.0014 33.712 28.1874 33.712 28.2438C33.712 28.385 34.7447 28.8635 35.4774 29.0618C35.9025 29.1768 36.4251 29.2252 37.2427 29.2252C38.0602 29.2252 38.5828 29.1768 39.008 29.0618C39.7675 28.8562 40.7733 28.3831 40.7733 28.2315C40.7733 28.1683 40.6568 27.9771 40.5145 27.8065L40.2556 27.4965L39.7729 27.741C38.3987 28.4374 36.0972 28.4427 34.7354 27.7526C34.4826 27.6245 34.2555 27.5197 34.2309 27.5197C34.2062 27.5197 34.0794 27.6595 33.9491 27.8304Z" fill="#3B5455"/>
<path fill-rule="evenodd" clip-rule="evenodd" d="M26.3205 35.5817C26.2316 35.7779 26.2228 35.7568 26.9616 37.1213C28.08 39.1867 29.1423 40.8585 30.2165 42.2435C30.4243 42.5114 30.6294 42.7782 30.6723 42.8363C30.7423 42.9311 30.7437 42.9693 30.6855 43.2049C30.4779 44.0467 31.1964 44.7806 31.9973 44.5448L32.2064 44.4831L32.5398 44.7716L32.8731 45.06L32.8429 45.3145C32.7761 45.8765 33.084 46.4389 33.5819 46.6642C33.7717 46.7501 33.8899 46.7696 34.1328 46.7551C34.4275 46.7376 34.5964 46.6654 34.9339 46.4123C34.9874 46.3721 35.1047 46.3906 35.4029 46.4864L35.8005 46.6141L35.8813 46.9038C35.9893 47.2914 36.2944 47.651 36.6453 47.8039L36.9027 47.9161V48.2955V48.6749L36.5265 49.3924L36.1503 50.1099L35.4034 50.5393C34.6174 50.9911 34.5212 51.0882 34.6097 51.3399C34.6531 51.463 34.7396 51.5225 35.5644 51.9953C36.1958 52.3572 36.0621 52.1925 36.7221 53.4216C37.1679 54.2518 37.29 54.2196 37.8692 53.1188L38.2863 52.3262L39.0221 51.9056C39.5807 51.5863 39.7704 51.4533 39.8099 51.3531C39.9134 51.0903 39.8278 51.0019 39.018 50.5352L38.2654 50.1015L37.9124 49.4233L37.5593 48.7451V48.3238V47.9026L37.7821 47.7992C37.9047 47.7423 38.0866 47.6136 38.1864 47.5132C38.3785 47.32 38.59 46.91 38.5907 46.7294C38.5912 46.6369 38.6481 46.6031 38.985 46.4951C39.2015 46.4256 39.4032 46.3687 39.4332 46.3687C39.4633 46.3687 39.5657 46.4326 39.661 46.5106C40.0162 46.8018 40.5155 46.8514 40.926 46.6362C41.3871 46.3945 41.6094 45.9814 41.5866 45.4081L41.5723 45.0479L41.8971 44.7679C42.1408 44.5578 42.2458 44.4958 42.3178 44.5194C42.5352 44.5906 42.8729 44.6017 43.0688 44.544C43.3493 44.4614 43.6307 44.1991 43.729 43.9285C43.8072 43.7129 43.8096 43.1973 43.7332 43.0138C43.7125 42.9641 43.8211 42.7913 44.0586 42.4958C44.6058 41.8149 45.3405 40.77 45.9272 39.8381C46.8849 38.317 48.2063 35.9156 48.2063 35.6962C48.2063 35.4743 47.9494 35.3474 47.7393 35.4656C47.6922 35.4921 47.4692 35.864 47.2436 36.2919C46.0798 38.4995 44.8141 40.5069 43.666 41.966C43.4472 42.2441 43.2553 42.4711 43.2396 42.4705C43.2239 42.4698 43.1214 42.4475 43.0119 42.4209C42.2895 42.2456 41.586 43.0115 41.7749 43.7676C41.8317 43.9948 41.8205 44.0118 41.3803 44.3729L41.238 44.4897L40.9633 44.3439C40.1561 43.9157 39.2009 44.5085 39.2009 45.4376V45.7203L38.9412 45.8226C38.7984 45.8788 38.6538 45.9248 38.6199 45.9248C38.586 45.9248 38.4936 45.8152 38.4145 45.6814C37.8684 44.7575 36.5502 44.7736 36.0282 45.7105C35.9148 45.914 35.8954 45.9275 35.7595 45.897C35.6788 45.879 35.5443 45.8345 35.4605 45.7983C35.3156 45.7358 35.308 45.7194 35.3076 45.471C35.3068 45.0073 35.016 44.5244 34.6095 44.3115C34.4891 44.2484 34.3321 44.2229 34.0651 44.2229C33.7386 44.2229 33.6608 44.2408 33.4665 44.361L33.2431 44.4991L32.9436 44.2399C32.6765 44.0087 32.6487 43.9682 32.6863 43.8643C32.7094 43.8002 32.7284 43.6207 32.7284 43.4652C32.7284 42.7458 32.0801 42.25 31.3848 42.4375C31.2409 42.4763 31.2273 42.4646 30.8412 41.9688C29.6396 40.4262 28.3234 38.3298 27.1926 36.1574C26.8197 35.4411 26.8 35.4175 26.5761 35.4175C26.4171 35.4175 26.3859 35.4375 26.3205 35.5817ZM31.607 43.1174C31.4457 43.1852 31.3714 43.3085 31.3697 43.5113C31.3678 43.7364 31.524 43.9022 31.7378 43.9022C31.9444 43.9022 32.0477 43.8357 32.1179 43.6575C32.2005 43.4476 32.1077 43.2224 31.901 43.1316C31.816 43.0942 31.7405 43.0651 31.7332 43.0667C31.7259 43.0685 31.6691 43.0912 31.607 43.1174ZM42.5524 43.2341C42.2616 43.5399 42.5633 44.0378 42.9528 43.895C43.1244 43.832 43.1877 43.7219 43.1877 43.4862C43.1877 43.1311 42.7974 42.9763 42.5524 43.2341ZM33.8591 44.9735C33.6608 45.0763 33.5119 45.3957 33.5555 45.625C33.592 45.8169 33.7979 46.056 33.9644 46.1C34.1837 46.1579 34.3995 46.0819 34.5592 45.8906C34.6935 45.7298 34.7065 45.687 34.6869 45.4723C34.6624 45.2039 34.5625 45.0567 34.3363 44.956C34.1417 44.8694 34.0538 44.8726 33.8591 44.9735ZM40.2011 44.9608C39.7936 45.1472 39.7622 45.7748 40.1479 46.0221C40.4288 46.2023 40.7633 46.1131 40.9382 45.8114C41.1167 45.5035 40.9932 45.098 40.6788 44.9599C40.4809 44.8728 40.393 44.873 40.2011 44.9608ZM36.9022 45.8384C36.6769 45.9997 36.5673 46.1796 36.5402 46.4323C36.4928 46.8745 36.8437 47.2757 37.2779 47.2757C37.5566 47.2757 37.7861 47.1293 37.9302 46.8596C38.1978 46.3589 37.834 45.7274 37.2779 45.7274C37.1263 45.7274 37.0088 45.7622 36.9022 45.8384ZM36.9731 50.1286L36.6916 50.6794L36.2137 50.9536C35.9507 51.1044 35.7226 51.242 35.7067 51.2594C35.6908 51.2768 35.9013 51.4171 36.1745 51.5712C36.7105 51.8736 36.7268 51.892 37.0649 52.572C37.1626 52.7687 37.2585 52.9296 37.2779 52.9296C37.2973 52.9296 37.3932 52.7687 37.491 52.572C37.8277 51.8945 37.8433 51.877 38.381 51.5737C38.6551 51.419 38.8661 51.2779 38.8498 51.2601C38.8336 51.2423 38.6051 51.1044 38.3422 50.9536L37.8642 50.6794L37.5828 50.1286C37.428 49.8257 37.2908 49.5779 37.2779 49.5779C37.265 49.5779 37.1278 49.8257 36.9731 50.1286Z" fill="#3B5455" stroke="#3B5455" stroke-width="0.2"/>
</svg>
