<svg width="20" height="20" viewBox="0 0 20 20" fill="none" xmlns="http://www.w3.org/2000/svg">
<path d="M10.3134 3.89161C8.96255 3.88933 7.27014 4.31623 5.6005 5.1852C3.93351 6.05418 2.61222 7.19257 1.83659 8.3044C1.06059 9.41244 0.850746 10.4446 1.23249 11.1807C1.61461 11.9131 2.58072 12.3343 3.93503 12.3343C5.28934 12.3381 6.98175 11.9093 8.6476 11.0441C10.3172 10.1752 11.6378 9.03297 12.4119 7.92494C13.1898 6.8169 13.3947 5.78476 13.0152 5.0486C12.632 4.31623 11.6681 3.89161 10.3134 3.89161ZM13.8007 6.55887C13.6679 7.13945 13.3795 7.7352 12.9735 8.31579C12.1159 9.54146 10.7157 10.7368 8.96255 11.6475C7.20943 12.562 5.42974 13.0211 3.93465 13.0211C3.22885 13.0211 2.57465 12.9149 2.02329 12.691L2.42514 13.4651C2.80764 14.2013 3.7711 14.6225 5.12617 14.6225C6.48086 14.6225 8.17327 14.1975 9.83912 13.3285C11.5088 12.4633 12.8293 11.3211 13.6034 10.2093C14.3775 9.10128 14.59 8.06913 14.2068 7.33677L13.8007 6.55887ZM14.8936 7.19637C15.3186 8.20954 14.9771 9.44279 14.165 10.6002C13.4478 11.6285 12.3512 12.6265 10.9927 13.4613C11.4139 13.5069 11.8541 13.5296 12.3018 13.5296C14.1802 13.5296 15.8802 13.1274 17.0793 12.5013C18.2822 11.8752 18.9425 11.0555 18.9425 10.2283C18.9425 9.40105 18.2822 8.58141 17.0793 7.95529C16.4684 7.63654 15.7246 7.37471 14.8936 7.19637ZM18.9425 11.9321C18.5554 12.3836 18.0242 12.7821 17.398 13.1084C16.0699 13.799 14.2788 14.2127 12.3018 14.2127C11.4974 14.2127 10.7233 14.1444 9.99849 14.0153C9.11813 14.4593 8.23398 14.7894 7.38398 15.0057C7.42952 15.0323 7.47505 15.0551 7.52438 15.0816C8.72349 15.7078 10.4235 16.11 12.3018 16.11C14.1802 16.11 15.8802 15.7078 17.0793 15.0816C18.2822 14.4555 18.9425 13.6359 18.9425 12.8086V11.9321Z" fill="white"/>
</svg>
