<svg width="224" height="74" viewBox="0 0 224 74" fill="none" xmlns="http://www.w3.org/2000/svg">
<path d="M7.75397 34.38C5.72731 34.38 4.18197 33.81 3.11797 32.67C2.05397 31.5047 1.52197 29.8453 1.52197 27.692V7.4H5.70197V27.996C5.70197 28.908 5.87931 29.5667 6.23397 29.972C6.61397 30.3773 7.14597 30.58 7.82997 30.58C8.51397 30.58 9.03331 30.3773 9.38798 29.972C9.76797 29.5667 9.95797 28.908 9.95797 27.996V7.4H13.986V27.692C13.986 29.8453 13.454 31.5047 12.39 32.67C11.326 33.81 9.78064 34.38 7.75397 34.38ZM22.283 7.4H28.439C30.5164 7.4 32.0744 7.95733 33.113 9.072C34.1517 10.1867 34.671 11.8207 34.671 13.974V16.596C34.671 18.7493 34.1517 20.3833 33.113 21.498C32.0744 22.6127 30.5164 23.17 28.439 23.17H26.463V34H22.283V7.4ZM28.439 19.37C29.123 19.37 29.6297 19.18 29.959 18.8C30.3137 18.42 30.491 17.774 30.491 16.862V13.708C30.491 12.796 30.3137 12.15 29.959 11.77C29.6297 11.39 29.123 11.2 28.439 11.2H26.463V19.37H28.439ZM45.6035 11.2H41.2335V7.4H54.1535V11.2H49.7835V34H45.6035V11.2ZM67.3908 34.38C65.3388 34.38 63.7682 33.7973 62.6788 32.632C61.5895 31.4667 61.0448 29.82 61.0448 27.692V13.708C61.0448 11.58 61.5895 9.93333 62.6788 8.768C63.7682 7.60267 65.3388 7.02 67.3908 7.02C69.4428 7.02 71.0135 7.60267 72.1028 8.768C73.1922 9.93333 73.7368 11.58 73.7368 13.708V27.692C73.7368 29.82 73.1922 31.4667 72.1028 32.632C71.0135 33.7973 69.4428 34.38 67.3908 34.38ZM67.3908 30.58C68.8348 30.58 69.5568 29.706 69.5568 27.958V13.442C69.5568 11.694 68.8348 10.82 67.3908 10.82C65.9468 10.82 65.2248 11.694 65.2248 13.442V27.958C65.2248 29.706 65.9468 30.58 67.3908 30.58ZM93.2136 31.112C93.2136 29.212 93.5176 27.5907 94.1256 26.248C94.7336 24.88 95.8229 23.3727 97.3936 21.726C98.9389 20.0793 100.003 18.6733 100.586 17.508C101.194 16.3427 101.498 15.1267 101.498 13.86C101.498 12.72 101.308 11.9347 100.928 11.504C100.573 11.048 100.041 10.82 99.3316 10.82C97.8876 10.82 97.1656 11.694 97.1656 13.442V16.292H93.2136V13.708C93.2136 11.5547 93.7456 9.908 94.8096 8.768C95.8736 7.60267 97.4189 7.02 99.4456 7.02C101.472 7.02 103.018 7.60267 104.082 8.768C105.146 9.908 105.678 11.5547 105.678 13.708C105.678 15.3293 105.285 16.9127 104.5 18.458C103.74 20.0033 102.41 21.7767 100.51 23.778C99.2683 25.0953 98.4323 26.172 98.0016 27.008C97.5709 27.8187 97.3556 28.6927 97.3556 29.63V30.2H105.298V34H93.2136V31.112ZM119.866 34.38C117.814 34.38 116.244 33.7973 115.154 32.632C114.065 31.4667 113.52 29.82 113.52 27.692V13.708C113.52 11.58 114.065 9.93333 115.154 8.768C116.244 7.60267 117.814 7.02 119.866 7.02C121.918 7.02 123.489 7.60267 124.578 8.768C125.668 9.93333 126.212 11.58 126.212 13.708V27.692C126.212 29.82 125.668 31.4667 124.578 32.632C123.489 33.7973 121.918 34.38 119.866 34.38ZM119.866 30.58C121.31 30.58 122.032 29.706 122.032 27.958V13.442C122.032 11.694 121.31 10.82 119.866 10.82C118.422 10.82 117.7 11.694 117.7 13.442V27.958C117.7 29.706 118.422 30.58 119.866 30.58ZM138.159 22.182C136.842 22.182 135.841 21.8147 135.157 21.08C134.473 20.3453 134.131 19.294 134.131 17.926V11.276C134.131 9.908 134.473 8.85667 135.157 8.122C135.841 7.38733 136.842 7.02 138.159 7.02C139.477 7.02 140.477 7.38733 141.161 8.122C141.845 8.85667 142.187 9.908 142.187 11.276V17.926C142.187 19.294 141.845 20.3453 141.161 21.08C140.477 21.8147 139.477 22.182 138.159 22.182ZM147.811 7.4H150.471L140.173 34H137.513L147.811 7.4ZM138.159 19.788C139.071 19.788 139.527 19.2307 139.527 18.116V11.086C139.527 9.97133 139.071 9.414 138.159 9.414C137.247 9.414 136.791 9.97133 136.791 11.086V18.116C136.791 19.2307 137.247 19.788 138.159 19.788ZM149.825 34.38C148.508 34.38 147.507 34.0127 146.823 33.278C146.139 32.5433 145.797 31.492 145.797 30.124V23.474C145.797 22.106 146.139 21.0547 146.823 20.32C147.507 19.5853 148.508 19.218 149.825 19.218C151.143 19.218 152.143 19.5853 152.827 20.32C153.511 21.0547 153.853 22.106 153.853 23.474V30.124C153.853 31.492 153.511 32.5433 152.827 33.278C152.143 34.0127 151.143 34.38 149.825 34.38ZM149.825 31.986C150.737 31.986 151.193 31.4287 151.193 30.314V23.284C151.193 22.1693 150.737 21.612 149.825 21.612C148.913 21.612 148.457 22.1693 148.457 23.284V30.314C148.457 31.4287 148.913 31.986 149.825 31.986ZM179.504 34.38C177.452 34.38 175.882 33.7973 174.792 32.632C173.703 31.4667 173.158 29.82 173.158 27.692V13.708C173.158 11.58 173.703 9.93333 174.792 8.768C175.882 7.60267 177.452 7.02 179.504 7.02C181.556 7.02 183.127 7.60267 184.216 8.768C185.306 9.93333 185.85 11.58 185.85 13.708V27.692C185.85 29.82 185.306 31.4667 184.216 32.632C183.127 33.7973 181.556 34.38 179.504 34.38ZM179.504 30.58C180.948 30.58 181.67 29.706 181.67 27.958V13.442C181.67 11.694 180.948 10.82 179.504 10.82C178.06 10.82 177.338 11.694 177.338 13.442V27.958C177.338 29.706 178.06 30.58 179.504 30.58ZM193.997 7.4H205.055V11.2H198.177V18.61H203.573V22.41H198.177V34H193.997V7.4ZM212.38 7.4H223.438V11.2H216.56V18.61H221.956V22.41H216.56V34H212.38V7.4Z" fill="white"/>
<path d="M17.2203 57.68V60.04H8.74031V57.68H17.2203ZM36.6261 52.04V54.3H32.9061V66H30.1061V54.3H26.3861V52.04H36.6261ZM51.2491 52.04V66H48.4491V60.06H42.4691V66H39.6691V52.04H42.4691V57.78H48.4491V52.04H51.2491ZM57.805 52.04V66H55.005V52.04H57.805ZM66.3914 66.14C65.4181 66.14 64.5381 65.9733 63.7514 65.64C62.9781 65.3067 62.3647 64.8267 61.9114 64.2C61.4581 63.5733 61.2247 62.8333 61.2114 61.98H64.2114C64.2514 62.5533 64.4514 63.0067 64.8114 63.34C65.1847 63.6733 65.6914 63.84 66.3314 63.84C66.9847 63.84 67.4981 63.6867 67.8714 63.38C68.2447 63.06 68.4314 62.6467 68.4314 62.14C68.4314 61.7267 68.3047 61.3867 68.0514 61.12C67.7981 60.8533 67.4781 60.6467 67.0914 60.5C66.7181 60.34 66.1981 60.1667 65.5314 59.98C64.6247 59.7133 63.8847 59.4533 63.3114 59.2C62.7514 58.9333 62.2647 58.54 61.8514 58.02C61.4514 57.4867 61.2514 56.78 61.2514 55.9C61.2514 55.0733 61.4581 54.3533 61.8714 53.74C62.2847 53.1267 62.8647 52.66 63.6114 52.34C64.3581 52.0067 65.2114 51.84 66.1714 51.84C67.6114 51.84 68.7781 52.1933 69.6714 52.9C70.5781 53.5933 71.0781 54.5667 71.1714 55.82H68.0914C68.0647 55.34 67.8581 54.9467 67.4714 54.64C67.0981 54.32 66.5981 54.16 65.9714 54.16C65.4247 54.16 64.9847 54.3 64.6514 54.58C64.3314 54.86 64.1714 55.2667 64.1714 55.8C64.1714 56.1733 64.2914 56.4867 64.5314 56.74C64.7847 56.98 65.0914 57.18 65.4514 57.34C65.8247 57.4867 66.3447 57.66 67.0114 57.86C67.9181 58.1267 68.6581 58.3933 69.2314 58.66C69.8047 58.9267 70.2981 59.3267 70.7114 59.86C71.1247 60.3933 71.3314 61.0933 71.3314 61.96C71.3314 62.7067 71.1381 63.4 70.7514 64.04C70.3647 64.68 69.7981 65.1933 69.0514 65.58C68.3047 65.9533 67.4181 66.14 66.3914 66.14ZM99.1845 52.04L95.2845 66H91.9845L89.3645 56.06L86.6245 66L83.3445 66.02L79.5845 52.04H82.5845L85.0445 62.88L87.8845 52.04H91.0045L93.6845 62.82L96.1645 52.04H99.1845ZM104.813 54.3V57.8H109.513V60.02H104.813V63.72H110.113V66H102.013V52.02H110.113V54.3H104.813ZM116.457 54.3V57.8H121.157V60.02H116.457V63.72H121.757V66H113.657V52.02H121.757V54.3H116.457ZM133.182 66L128.102 59.78V66H125.302V52.04H128.102V58.3L133.182 52.04H136.562L130.802 58.96L136.722 66H133.182ZM151.809 66.14C150.503 66.14 149.303 65.8333 148.209 65.22C147.116 64.6067 146.249 63.76 145.609 62.68C144.969 61.5867 144.649 60.3533 144.649 58.98C144.649 57.62 144.969 56.4 145.609 55.32C146.249 54.2267 147.116 53.3733 148.209 52.76C149.303 52.1467 150.503 51.84 151.809 51.84C153.129 51.84 154.329 52.1467 155.409 52.76C156.503 53.3733 157.363 54.2267 157.989 55.32C158.629 56.4 158.949 57.62 158.949 58.98C158.949 60.3533 158.629 61.5867 157.989 62.68C157.363 63.76 156.503 64.6067 155.409 65.22C154.316 65.8333 153.116 66.14 151.809 66.14ZM151.809 63.64C152.649 63.64 153.389 63.4533 154.029 63.08C154.669 62.6933 155.169 62.1467 155.529 61.44C155.889 60.7333 156.069 59.9133 156.069 58.98C156.069 58.0467 155.889 57.2333 155.529 56.54C155.169 55.8333 154.669 55.2933 154.029 54.92C153.389 54.5467 152.649 54.36 151.809 54.36C150.969 54.36 150.223 54.5467 149.569 54.92C148.929 55.2933 148.429 55.8333 148.069 56.54C147.709 57.2333 147.529 58.0467 147.529 58.98C147.529 59.9133 147.709 60.7333 148.069 61.44C148.429 62.1467 148.929 62.6933 149.569 63.08C150.223 63.4533 150.969 63.64 151.809 63.64ZM173.972 66H171.172L164.832 56.42V66H162.032V52.02H164.832L171.172 61.62V52.02H173.972V66ZM180.539 63.78H185.139V66H177.739V52.04H180.539V63.78ZM199.019 52.04L194.299 61.14V66H191.499V61.14L186.759 52.04H189.919L192.919 58.42L195.899 52.04H199.019ZM215.92 57.68V60.04H207.44V57.68H215.92Z" fill="white"/>
</svg>
