<svg width="48" height="48" viewBox="0 0 48 48" fill="none" xmlns="http://www.w3.org/2000/svg">
<path d="M24.0011 3.42857C26.7291 3.42857 29.3453 4.51224 31.2742 6.44119C33.2032 8.37013 34.2868 10.9863 34.2868 13.7143C34.2868 16.4422 33.2032 19.0584 31.2742 20.9874C29.3453 22.9163 26.7291 24 24.0011 24C21.2732 24 18.657 22.9163 16.728 20.9874C14.7991 19.0584 13.7154 16.4422 13.7154 13.7143C13.7154 10.9863 14.7991 8.37013 16.728 6.44119C18.657 4.51224 21.2732 3.42857 24.0011 3.42857ZM24.0011 44.5714C24.0011 44.5714 44.5725 44.5714 44.5725 39.4286C44.5725 33.2571 34.544 26.5714 24.0011 26.5714C13.4583 26.5714 3.42969 33.2571 3.42969 39.4286C3.42969 44.5714 24.0011 44.5714 24.0011 44.5714Z" fill="#D9D9D9"/>
</svg>
