<svg width="64" height="64" viewBox="0 0 64 64" fill="none" xmlns="http://www.w3.org/2000/svg">
<path d="M26.0826 10.3736C27.5866 9.09356 28.3386 8.45355 29.1226 8.07755C30.0206 7.64817 31.0033 7.42529 31.9986 7.42529C32.994 7.42529 33.9767 7.64817 34.8746 8.07755C35.6613 8.45089 36.4133 9.09089 37.9146 10.3736C38.5146 10.8856 38.8133 11.1389 39.1333 11.3522C39.8661 11.8434 40.6891 12.1842 41.5546 12.3549C41.9306 12.4296 42.3226 12.4616 43.1066 12.5256C45.0773 12.6802 46.0613 12.7602 46.8826 13.0509C47.8208 13.382 48.6729 13.9188 49.3766 14.622C50.0803 15.3252 50.6176 16.177 50.9493 17.1149C51.24 17.9389 51.3173 18.9229 51.4746 20.8909C51.536 21.6749 51.568 22.0669 51.6426 22.4456C51.8133 23.3096 52.1546 24.1336 52.6453 24.8642C52.8586 25.1842 53.1146 25.4829 53.624 26.0829C54.904 27.5869 55.5466 28.3389 55.9226 29.1229C56.352 30.0208 56.5749 31.0036 56.5749 31.9989C56.5749 32.9942 56.352 33.9769 55.9226 34.8749C55.5493 35.6589 54.9066 36.4109 53.624 37.9149C53.2742 38.3016 52.9474 38.7085 52.6453 39.1336C52.1545 39.8656 51.8137 40.6877 51.6426 41.5522C51.568 41.9309 51.536 42.3229 51.4746 43.1069C51.3173 45.0749 51.24 46.0616 50.9493 46.8829C50.6176 47.8208 50.0803 48.6726 49.3766 49.3758C48.6729 50.079 47.8208 50.6158 46.8826 50.9469C46.0613 51.2402 45.0773 51.3176 43.1066 51.4722C42.3226 51.5362 41.9333 51.5682 41.5546 51.6429C40.6891 51.8136 39.8661 52.1544 39.1333 52.6456C38.7092 52.9478 38.3032 53.2745 37.9173 53.6242C36.4133 54.9042 35.6613 55.5442 34.8773 55.9202C33.9794 56.3496 32.9966 56.5725 32.0013 56.5725C31.006 56.5725 30.0233 56.3496 29.1253 55.9202C28.3386 55.5469 27.5866 54.9069 26.0853 53.6242C25.6986 53.2745 25.2917 52.9477 24.8666 52.6456C24.1338 52.1544 23.3108 51.8136 22.4453 51.6429C21.9318 51.5557 21.4135 51.4987 20.8933 51.4722C18.9226 51.3176 17.9386 51.2376 17.1173 50.9469C16.1792 50.6158 15.3271 50.079 14.6234 49.3758C13.9197 48.6726 13.3823 47.8208 13.0506 46.8829C12.76 46.0616 12.6826 45.0749 12.5253 43.1069C12.4998 42.5858 12.4437 42.0667 12.3573 41.5522C12.1862 40.6877 11.8455 39.8656 11.3546 39.1336C11.1413 38.8136 10.8853 38.5149 10.376 37.9149C9.09598 36.4109 8.45331 35.6589 8.07731 34.8749C7.64792 33.9769 7.42505 32.9942 7.42505 31.9989C7.42505 31.0036 7.64792 30.0208 8.07731 29.1229C8.45331 28.3389 9.09331 27.5869 10.376 26.0829C10.8853 25.4829 11.1413 25.1842 11.3546 24.8642C11.8455 24.1322 12.1862 23.3101 12.3573 22.4456C12.432 22.0669 12.464 21.6749 12.5253 20.8909C12.6826 18.9229 12.76 17.9389 13.0506 17.1149C13.3826 16.1767 13.9204 15.3247 14.6245 14.6215C15.3287 13.9183 16.1814 13.3816 17.12 13.0509C17.9413 12.7602 18.9253 12.6802 20.896 12.5256C21.68 12.4616 22.0693 12.4296 22.448 12.3549C23.3135 12.1842 24.1365 11.8434 24.8693 11.3522C25.1893 11.1389 25.4853 10.8856 26.0826 10.3736Z" stroke="#272622" stroke-width="2.4"/>
<path d="M22.6666 33.3335L28 38.6668L41.3333 25.3335" stroke="#272622" stroke-width="2.4" stroke-linecap="round" stroke-linejoin="round"/>
</svg>
