<svg width="24" height="25" viewBox="0 0 24 25" fill="none" xmlns="http://www.w3.org/2000/svg">
<path d="M18.9997 8.24962H18.7497V5.99962C18.7471 5.5363 18.5619 5.09271 18.2343 4.76508C17.9067 4.43746 17.4631 4.25225 16.9997 4.24962C16.9203 4.2358 16.8391 4.2358 16.7597 4.24962L4.85974 8.24962H4.58974L4.41974 8.30962H4.27974L4.11974 8.39962L3.99974 8.56962L3.85974 8.68962L3.74974 8.78962L3.62974 8.93962C3.59787 8.96844 3.57086 9.00221 3.54974 9.03962C3.51334 9.09786 3.47996 9.15794 3.44974 9.21962L3.38974 9.32962C3.36219 9.40154 3.33882 9.475 3.31974 9.54962C3.32378 9.58618 3.32378 9.62306 3.31974 9.65962C3.31009 9.77275 3.31009 9.88649 3.31974 9.99962V19.9996C3.32184 20.4511 3.49739 20.8846 3.81008 21.2103C4.12277 21.536 4.54868 21.7291 4.99974 21.7496H18.9997C19.4631 21.747 19.9067 21.5618 20.2343 21.2342C20.5619 20.9065 20.7471 20.4629 20.7497 19.9996V9.99962C20.7471 9.5363 20.5619 9.09271 20.2343 8.76508C19.9067 8.43746 19.4631 8.25225 18.9997 8.24962ZM17.0797 5.75962C17.129 5.77779 17.1716 5.81043 17.2019 5.85327C17.2323 5.89611 17.2489 5.94713 17.2497 5.99962V8.24962H9.61974L17.0797 5.75962ZM19.2497 19.9996C19.2497 20.0659 19.2234 20.1295 19.1765 20.1764C19.1296 20.2233 19.066 20.2496 18.9997 20.2496H4.99974C4.93343 20.2496 4.86985 20.2233 4.82296 20.1764C4.77608 20.1295 4.74974 20.0659 4.74974 19.9996V9.99962C4.74974 9.93332 4.77608 9.86973 4.82296 9.82284C4.86985 9.77596 4.93343 9.74962 4.99974 9.74962H18.9997C19.066 9.74962 19.1296 9.77596 19.1765 9.82284C19.2234 9.86973 19.2497 9.93332 19.2497 9.99962V19.9996Z" fill="#272622"/>
<path d="M16.5 16.25C17.1904 16.25 17.75 15.6904 17.75 15C17.75 14.3096 17.1904 13.75 16.5 13.75C15.8096 13.75 15.25 14.3096 15.25 15C15.25 15.6904 15.8096 16.25 16.5 16.25Z" fill="#272622"/>
</svg>
