<svg width="18" height="18" viewBox="0 0 18 18" fill="none" xmlns="http://www.w3.org/2000/svg">
<g clip-path="url(#clip0_359_14347)">
<path fill-rule="evenodd" clip-rule="evenodd" d="M3.02963 12.4249C4.24838 12.4916 6.20138 12.5625 9 12.5625C11.7986 12.5625 13.7513 12.4916 14.9704 12.4249C16.1659 12.3596 17.1641 11.4911 17.2856 10.2589C17.367 9.43388 17.4375 8.27738 17.4375 6.75C17.4375 5.22263 17.367 4.06613 17.2856 3.24113C17.1641 2.0085 16.1659 1.14038 14.9704 1.07513C13.7516 1.00838 11.7986 0.9375 9 0.9375C6.20138 0.9375 4.24875 1.00838 3.02963 1.07513C1.83413 1.14038 0.835875 2.00887 0.714375 3.24113C0.633 4.06613 0.5625 5.22263 0.5625 6.75C0.5625 8.27738 0.633 9.43388 0.714375 10.2589C0.835875 11.4915 1.83413 12.3596 3.02963 12.4249ZM9 3.17063C9.14918 3.17063 9.29226 3.22989 9.39775 3.33538C9.50324 3.44087 9.5625 3.58394 9.5625 3.73313V4.077C9.8206 4.12334 10.0724 4.19961 10.3129 4.30425C10.4981 4.38525 10.68 4.47938 10.8412 4.602C11.0828 4.7865 11.1315 5.1495 10.9466 5.391C10.8564 5.50884 10.7234 5.58626 10.5763 5.60642C10.4293 5.62658 10.2803 5.58784 10.1617 5.49863C9.83288 5.25938 9.40425 5.15288 9 5.15288C8.73038 5.15288 8.46788 5.23688 8.28525 5.36138C8.09812 5.4885 8.0625 5.60363 8.0625 5.66138C8.0625 5.79675 8.121 5.8695 8.23762 5.93288C8.46862 6.0585 8.7405 6.11063 9.0015 6.1605L9.15263 6.19013C9.49762 6.26025 9.94387 6.351 10.3001 6.54488C10.7734 6.8025 11.0625 7.26113 11.0625 7.8045C11.0625 8.35875 10.7231 8.7795 10.3477 9.0345C10.1088 9.1942 9.84267 9.30896 9.5625 9.37313V9.73313C9.5625 9.88231 9.50324 10.0254 9.39775 10.1309C9.29226 10.2364 9.14918 10.2956 9 10.2956C8.85082 10.2956 8.70774 10.2364 8.60225 10.1309C8.49676 10.0254 8.4375 9.88231 8.4375 9.73313V9.38888C7.99125 9.30975 7.52175 9.14138 7.158 8.8635C7.03915 8.77329 6.961 8.63957 6.94075 8.49174C6.92049 8.34392 6.95979 8.1941 7.05 8.07525C7.14021 7.9564 7.27393 7.87825 7.42176 7.858C7.56958 7.83775 7.7194 7.87704 7.83825 7.96725C8.16375 8.20388 8.60475 8.31338 9 8.31338C9.2685 8.31338 9.53213 8.229 9.71475 8.1045C9.90188 7.97738 9.9375 7.86225 9.9375 7.8045C9.9375 7.66913 9.879 7.59638 9.76237 7.533C9.53137 7.40738 9.25988 7.35525 8.99887 7.30538L8.84737 7.27575C8.50275 7.20563 8.05613 7.11488 7.69988 6.921C7.22663 6.66338 6.9375 6.20475 6.9375 5.66138C6.9375 5.10713 7.27688 4.68638 7.65225 4.43138C7.89122 4.27167 8.15733 4.15692 8.4375 4.09275V3.73313C8.4375 3.58394 8.49676 3.44087 8.60225 3.33538C8.70774 3.22989 8.85082 3.17063 9 3.17063ZM13.875 5.98313C13.6761 5.98313 13.4853 6.06214 13.3447 6.2028C13.204 6.34345 13.125 6.53421 13.125 6.73313C13.125 6.93204 13.204 7.1228 13.3447 7.26346C13.4853 7.40411 13.6761 7.48313 13.875 7.48313H14.25C14.4489 7.48313 14.6397 7.40411 14.7803 7.26346C14.921 7.1228 15 6.93204 15 6.73313C15 6.53421 14.921 6.34345 14.7803 6.2028C14.6397 6.06214 14.4489 5.98313 14.25 5.98313H13.875ZM3 6.73313C3 6.53421 3.07902 6.34345 3.21967 6.2028C3.36032 6.06214 3.55109 5.98313 3.75 5.98313H4.125C4.32391 5.98313 4.51468 6.06214 4.65533 6.2028C4.79598 6.34345 4.875 6.53421 4.875 6.73313C4.875 6.93204 4.79598 7.1228 4.65533 7.26346C4.51468 7.40411 4.32391 7.48313 4.125 7.48313H3.75C3.55109 7.48313 3.36032 7.40411 3.21967 7.26346C3.07902 7.1228 3 6.93204 3 6.73313ZM4.36313 16.0031C4.39375 15.9359 4.43732 15.8754 4.49135 15.825C4.54537 15.7746 4.60879 15.7354 4.67798 15.7095C4.74717 15.6836 4.82078 15.6716 4.89461 15.6742C4.96843 15.6768 5.04103 15.6939 5.10825 15.7245C5.259 15.7931 5.42963 15.8363 5.6145 15.8456C6.40763 15.8858 7.52325 15.921 9 15.921C10.4768 15.921 11.5927 15.8858 12.3859 15.8456C12.5707 15.8363 12.741 15.7931 12.8921 15.7245C13.0275 15.6653 13.1807 15.6618 13.3186 15.7146C13.4565 15.7674 13.5682 15.8724 13.6294 16.0068C13.6906 16.1412 13.6965 16.2944 13.6457 16.4331C13.595 16.5718 13.4917 16.685 13.3583 16.7483C13.0698 16.879 12.7592 16.9541 12.4429 16.9695C11.6291 17.0108 10.4948 17.046 9.00037 17.046C7.50562 17.046 6.37087 17.0104 5.55788 16.9691C5.24143 16.9539 4.93072 16.879 4.64213 16.7483C4.57487 16.7177 4.5143 16.6741 4.46388 16.6201C4.41346 16.5661 4.37417 16.5027 4.34826 16.4335C4.32235 16.3643 4.31033 16.2907 4.31288 16.2168C4.31543 16.143 4.3325 16.0704 4.36313 16.0031ZM2.71575 13.5068C2.79694 13.3817 2.92447 13.294 3.07031 13.2629C3.21615 13.2318 3.36837 13.2599 3.4935 13.341C3.69812 13.4717 3.93345 13.5465 4.176 13.5578C5.21062 13.6144 6.79313 13.6703 9 13.6703C11.2069 13.6703 12.7894 13.6144 13.824 13.5578C14.0665 13.5465 14.3019 13.4717 14.5065 13.341C14.6316 13.262 14.7829 13.2354 14.9275 13.2672C15.0721 13.2989 15.1983 13.3864 15.2788 13.5106C15.3594 13.6348 15.3877 13.7857 15.3577 13.9307C15.3277 14.0756 15.2417 14.2029 15.1185 14.2849C14.7492 14.5225 14.3241 14.6591 13.8855 14.6813C12.8291 14.739 11.226 14.7956 9 14.7956C6.774 14.7956 5.17125 14.739 4.1145 14.6813C3.67592 14.6591 3.2508 14.5225 2.8815 14.2849C2.81952 14.2447 2.76606 14.1927 2.72419 14.1318C2.68231 14.0709 2.65284 14.0024 2.63744 13.9301C2.62205 13.8579 2.62105 13.7833 2.63448 13.7107C2.64792 13.638 2.67553 13.5687 2.71575 13.5068Z" fill="white"/>
</g>
<defs>
<clipPath id="clip0_359_14347">
<rect width="18" height="18" fill="white"/>
</clipPath>
</defs>
</svg>
