<svg width="16" height="16" viewBox="0 0 16 16" fill="none" xmlns="http://www.w3.org/2000/svg">
<path d="M2.39846 3.85483H12.725V2.44537C12.725 2.38179 12.7109 2.31899 12.6837 2.26152C12.6565 2.20405 12.6169 2.15332 12.5677 2.11301C12.5186 2.0727 12.4611 2.04381 12.3994 2.02841C12.3377 2.01302 12.2733 2.0115 12.211 2.02398L2.32756 3.6483C2.25397 3.66295 2.18549 3.69662 2.12895 3.74595C2.07241 3.79529 2.02977 3.85857 2.00528 3.9295C2.13045 3.88001 2.26386 3.85468 2.39846 3.85483ZM13.571 4.49941H2.39846C2.2845 4.49941 2.1752 4.54468 2.09461 4.62527C2.01402 4.70585 1.96875 4.81515 1.96875 4.92912V12.664C1.96875 12.7779 2.01402 12.8872 2.09461 12.9678C2.1752 13.0484 2.2845 13.0937 2.39846 13.0937H13.571C13.685 13.0937 13.7943 13.0484 13.8749 12.9678C13.9555 12.8872 14.0008 12.7779 14.0008 12.664V4.92912C14.0008 4.81515 13.9555 4.70585 13.8749 4.62527C13.7943 4.54468 13.685 4.49941 13.571 4.49941ZM11.0062 9.65598C10.8362 9.65598 10.67 9.60557 10.5287 9.51114C10.3874 9.4167 10.2772 9.28248 10.2122 9.12544C10.1471 8.9684 10.1301 8.7956 10.1633 8.62888C10.1964 8.46217 10.2783 8.30904 10.3985 8.18884C10.5187 8.06865 10.6718 7.9868 10.8385 7.95363C11.0052 7.92047 11.178 7.93749 11.3351 8.00254C11.4921 8.06759 11.6263 8.17774 11.7208 8.31908C11.8152 8.46041 11.8656 8.62657 11.8656 8.79655C11.8656 9.02448 11.7751 9.24308 11.6139 9.40426C11.4527 9.56543 11.2341 9.65598 11.0062 9.65598Z" fill="white"/>
</svg>
