<svg width="322" height="182" viewBox="0 0 322 182" fill="none" xmlns="http://www.w3.org/2000/svg">
<path d="M3.40547 4.29313H12.9116V95.2144C12.9116 99.8141 16.5914 103.494 21.1911 103.494C25.7908 103.494 29.4706 99.8141 29.4706 95.2144V4.29313H39.13V95.2144C39.13 99.8141 42.8098 103.494 47.4095 103.494C52.0092 103.494 55.689 99.8141 55.689 95.2144V4.29313H65.1951V95.2144C65.1951 105.027 57.2223 113 47.4095 113C42.3498 113 37.7501 111.007 34.2236 107.327C30.8505 111.007 26.2508 113 21.1911 113C11.3783 113 3.40547 105.027 3.40547 95.2144V4.29313ZM81.1888 86.9349V103.494H149.571V113L80.4221 113.153H71.6827V4.29313H107.407V13.9526H81.1888V77.2755H99.4343V86.9349H81.1888ZM149.571 13.9526H123.353V30.5116H141.598V40.171H123.353V87.5482H149.571V97.0543H113.693V4.29313H149.571V13.9526ZM155.831 4.29313H165.337V77.2755H173.617C178.217 77.2755 181.896 73.5957 181.896 68.996V4.29313H191.556V68.996C191.556 74.0557 189.409 78.6554 185.73 82.1818C189.409 85.555 191.556 90.1547 191.556 95.2144V113L181.896 113.153V95.2144C181.896 90.6147 178.217 86.9349 173.617 86.9349H165.337V113.153H155.831V4.29313ZM233.78 13.9526H207.561V77.2755H225.807V86.9349H207.561V103.494H233.78V113L207.561 113.153H198.055V4.29313H233.78V13.9526ZM240.279 4.29313H249.785V6.43967C252.392 5.05975 255.152 4.29313 258.065 4.29313C267.878 4.29313 276.004 12.4193 276.004 22.2321V113H266.345V22.2321C266.345 17.6323 262.665 13.9526 258.065 13.9526C253.465 13.9526 249.785 17.6323 249.785 22.2321V113H240.279V4.29313ZM318.228 95.2144C318.228 105.027 310.102 113.153 300.289 113.153H282.503V4.29313H300.289C310.102 4.29313 318.228 12.4193 318.228 22.2321V95.2144ZM308.569 95.2144V22.2321C308.569 17.6323 304.889 13.9526 300.289 13.9526H292.01V103.494H300.289C304.889 103.494 308.569 99.8141 308.569 95.2144Z" fill="url(#paint0_linear_281_1479)"/>
<path d="M140.246 100.85C138.824 98.2273 137.401 96.061 135.979 94.3495C134.557 92.6397 133.134 91.2824 131.712 90.2812C130.289 89.2818 128.844 88.5802 127.377 88.1801C125.911 87.78 124.421 87.5808 122.911 87.5808C120.778 87.5808 118.687 87.9474 116.642 88.6807C114.598 89.414 112.775 90.5139 111.175 91.9822C109.574 93.4487 108.286 95.2713 107.307 97.45C106.329 99.6287 105.841 102.14 105.841 104.984C105.841 107.384 106.463 109.808 107.707 112.253C108.952 114.698 110.496 117.199 112.342 119.755C114.187 122.312 116.198 124.923 118.377 127.59C120.554 130.257 122.567 133.014 124.412 135.859C126.258 138.704 127.802 141.649 129.046 144.693C130.291 147.739 130.913 150.884 130.913 154.129C130.913 158.262 129.901 162.031 127.878 165.431C125.856 168.831 123.166 171.733 119.81 174.133C116.454 176.534 112.597 178.39 108.242 179.702C103.884 181.013 99.3736 181.669 94.706 181.669C91.1489 181.669 87.8721 181.269 84.8721 180.468C81.872 179.668 79.2809 178.48 77.104 176.901C74.9271 175.323 73.2261 173.389 72.0028 171.1C70.7813 168.81 70.1696 166.155 70.1696 163.132C70.1696 160.998 70.4358 158.888 70.9699 156.797C71.504 154.709 72.3694 152.641 73.5698 150.596C74.7702 148.552 76.3478 146.507 78.3043 144.462C80.2591 142.418 82.6388 140.394 85.4396 138.395L90.7083 144.663C88.6177 145.73 86.6171 146.919 84.7064 148.231C82.7939 149.542 81.1052 151.021 79.6387 152.666C78.1722 154.31 77.0053 156.122 76.138 158.1C75.2708 160.078 74.8372 162.267 74.8372 164.668C74.8372 166.358 75.2161 168.003 75.9706 169.601C76.7268 171.202 77.9254 172.635 79.5717 173.902C81.2163 175.17 83.328 176.192 85.9068 176.969C88.4838 177.749 91.5755 178.136 95.1749 178.136C98.464 178.136 101.72 177.669 104.944 176.737C108.168 175.803 111.044 174.426 113.579 172.603C116.112 170.781 118.169 168.493 119.747 165.736C121.324 162.981 122.114 159.757 122.114 156.068C122.114 153.667 121.525 151.201 120.348 148.666C119.168 146.133 117.681 143.554 115.881 140.932C114.08 138.309 112.148 135.642 110.08 132.931C108.012 130.22 106.079 127.474 104.279 124.696C102.479 121.918 100.988 119.117 99.8125 116.295C98.635 113.473 98.0463 110.617 98.0463 107.726C98.0463 103.459 98.8906 99.8684 100.579 96.9582C102.268 94.048 104.447 91.6896 107.115 89.8899C109.782 88.0902 112.726 86.8017 115.95 86.0226C119.174 85.2453 122.318 84.8557 125.385 84.8557C128.23 84.8557 130.753 85.1783 132.952 85.8234C135.154 86.4686 137.109 87.3023 138.82 88.3246C140.53 89.347 142.03 90.5139 143.321 91.8253C144.609 93.1367 145.765 94.4587 146.788 95.7931L140.246 100.85Z" fill="white"/>
<path d="M171.053 169.129C170.875 169.529 170.72 169.952 170.587 170.396C170.453 170.842 170.386 171.22 170.386 171.53C170.386 172.064 170.508 172.42 170.753 172.596C170.996 172.774 171.321 172.862 171.719 172.862C172.341 172.862 173.097 172.552 173.986 171.928C174.874 171.306 175.807 170.395 176.787 169.194L188.988 154.125L190.655 155.46L175.919 173.663C174.853 174.997 173.852 176.107 172.919 176.998C171.985 177.888 171.107 178.588 170.284 179.097C169.463 179.608 168.64 179.975 167.818 180.197C166.995 180.419 166.161 180.53 165.317 180.53C163.984 180.53 162.872 180.14 161.984 179.363C161.094 178.586 160.649 177.597 160.649 176.397C160.649 175.062 160.905 173.686 161.416 172.263C161.927 170.841 162.671 169.062 163.649 166.929C164.004 166.175 164.437 165.186 164.95 163.963C165.461 162.741 166.006 161.453 166.584 160.095C167.162 158.74 167.739 157.374 168.319 155.995C168.897 154.619 169.406 153.362 169.852 152.229C170.296 151.095 170.663 150.15 170.954 149.394C171.243 148.638 171.388 148.194 171.388 148.06C171.388 147.616 171.231 147.394 170.92 147.394C170.52 147.394 170.097 147.727 169.655 148.395C169.389 148.751 168.855 149.507 168.054 150.662C167.254 151.818 166.276 153.194 165.119 154.795C163.963 156.395 162.719 158.128 161.386 159.997C160.052 161.863 158.717 163.686 157.385 165.464C156.051 167.243 154.785 168.865 153.585 170.331C152.384 171.798 151.362 172.956 150.518 173.798C148.385 175.931 146.495 177.611 144.851 178.833C143.206 180.056 141.583 180.666 139.982 180.666C139.448 180.666 138.859 180.555 138.214 180.333C137.571 180.11 136.97 179.723 136.414 179.166C135.859 178.61 135.404 177.831 135.048 176.832C134.694 175.832 134.516 174.555 134.516 172.998C134.516 170.687 135.038 168.131 136.083 165.33C137.128 162.53 138.561 159.674 140.382 156.762C142.207 153.85 144.361 150.995 146.849 148.194C149.338 145.393 152.039 142.87 154.951 140.627C157.861 138.383 160.919 136.504 164.12 134.991C167.319 133.481 170.564 132.569 173.855 132.257V133.458C171.144 134.258 168.543 135.492 166.054 137.158C163.565 138.825 161.231 140.748 159.052 142.925C156.874 145.104 154.896 147.425 153.119 149.893C151.341 152.359 149.807 154.793 148.519 157.194C147.228 159.595 146.241 161.872 145.55 164.028C144.861 166.184 144.517 167.996 144.517 169.462C144.517 170.262 144.641 170.929 144.884 171.463C145.129 171.995 145.475 172.263 145.917 172.263C146.407 172.263 147.13 171.863 148.085 171.063C149.04 170.262 150.14 169.185 151.385 167.83C152.629 166.474 153.986 164.918 155.453 163.162C156.92 161.407 158.409 159.574 159.92 157.661C161.43 155.75 162.93 153.817 164.421 151.86C165.911 149.905 167.298 148.06 168.588 146.325C170.543 143.658 172.165 141.459 173.455 139.724C174.745 137.99 175.856 136.601 176.79 135.557C177.724 134.514 178.567 133.791 179.323 133.391C180.079 132.991 180.901 132.79 181.791 132.79C182.725 132.79 183.368 133.035 183.725 133.523C184.079 134.013 184.259 134.612 184.259 135.323C184.259 135.901 184.181 136.5 184.024 137.122C183.869 137.746 183.68 138.302 183.457 138.79C183.279 139.19 182.891 140.135 182.29 141.624C181.69 143.114 180.968 144.892 180.123 146.958C179.279 149.026 178.378 151.236 177.423 153.593C176.466 155.95 175.556 158.183 174.689 160.295C173.822 162.406 173.055 164.273 172.389 165.896C171.721 167.52 171.275 168.597 171.053 169.129Z" fill="white"/>
<path d="M198.725 169.129C198.547 169.573 198.392 170.007 198.258 170.43C198.124 170.853 198.059 171.22 198.059 171.53C198.059 172.064 198.18 172.42 198.425 172.596C198.669 172.774 198.991 172.862 199.391 172.862C200.014 172.862 200.768 172.552 201.658 171.928C202.547 171.306 203.479 170.395 204.459 169.194L216.66 154.125L218.328 155.459L203.592 173.663C202.525 174.997 201.558 176.107 200.692 176.998C199.825 177.888 199.002 178.588 198.226 179.097C197.447 179.608 196.67 179.975 195.892 180.197C195.115 180.419 194.304 180.53 193.46 180.53C192.126 180.53 191.015 180.14 190.125 179.363C189.237 178.586 188.792 177.597 188.792 176.397C188.792 175.286 189.071 173.975 189.626 172.462C190.183 170.952 190.904 169.106 191.792 166.927L204.396 136.854C203.683 137.967 202.862 139.211 201.928 140.588C200.994 141.966 199.871 143.521 198.559 145.255C197.248 146.988 195.76 148.934 194.093 151.09C192.425 153.247 190.504 155.657 188.325 158.324L186.658 156.989C189.725 153.212 192.392 149.822 194.659 146.821C196.925 143.821 198.882 141.12 200.527 138.719C202.169 136.319 203.571 134.163 204.727 132.252C205.883 130.341 206.904 128.542 207.794 126.851C208.682 125.163 209.495 123.55 210.228 122.016C210.962 120.483 211.749 118.895 212.596 117.248L220.196 99.1774H228.199L198.725 169.129Z" fill="white"/>
<path d="M224.998 177.798C226.598 177.798 228.343 177.442 230.233 176.731C232.122 176.021 234.255 174.798 236.635 173.063C239.013 171.331 241.646 168.986 244.537 166.028C247.426 163.072 250.671 159.35 254.272 154.86L255.94 156.195C252.873 160.108 250.049 163.429 247.472 166.162C244.893 168.896 242.536 171.163 240.403 172.963C238.269 174.763 236.346 176.164 234.634 177.163C232.923 178.163 231.4 178.908 230.067 179.397C228.733 179.887 227.555 180.186 226.533 180.297C225.509 180.408 224.643 180.465 223.931 180.465C222.865 180.465 221.664 180.31 220.33 179.998C218.998 179.687 217.753 179.12 216.597 178.297C215.442 177.475 214.475 176.352 213.697 174.93C212.92 173.507 212.53 171.662 212.53 169.395C212.53 166.062 213.075 162.838 214.164 159.727C215.254 156.616 216.687 153.692 218.463 150.959C220.242 148.225 222.253 145.726 224.497 143.457C226.741 141.191 229.031 139.246 231.366 137.623C233.7 136.001 235.956 134.746 238.133 133.856C240.31 132.968 242.222 132.522 243.869 132.522C246.224 132.522 247.925 133.222 248.97 134.623C250.014 136.023 250.537 137.813 250.537 139.99C250.537 141.991 250.093 143.925 249.204 145.791C248.314 147.658 247.137 149.426 245.67 151.092C244.202 152.759 242.503 154.293 240.569 155.692C238.635 157.092 236.612 158.292 234.5 159.293C232.389 160.293 230.256 161.084 228.098 161.661C225.942 162.239 223.931 162.528 222.065 162.528C221.486 164.218 221.03 165.819 220.697 167.329C220.364 168.84 220.198 170.241 220.198 171.53C220.198 173.931 220.665 175.575 221.597 176.465C222.53 177.354 223.663 177.798 224.998 177.798ZM241.667 135.258C240.467 135.258 239.021 136.024 237.333 137.558C235.642 139.091 233.899 141.081 232.098 143.526C230.298 145.973 228.564 148.694 226.898 151.694C225.23 154.695 223.841 157.686 222.731 160.663C225.886 160.129 228.764 159.052 231.366 157.428C233.966 155.807 236.189 153.917 238.034 151.761C239.878 149.606 241.301 147.327 242.302 144.926C243.301 142.525 243.802 140.325 243.802 138.325C243.802 137.124 243.601 136.313 243.201 135.89C242.801 135.469 242.289 135.258 241.667 135.258Z" fill="white"/>
<defs>
<linearGradient id="paint0_linear_281_1479" x1="160.995" y1="123.719" x2="160.995" y2="21.0525" gradientUnits="userSpaceOnUse">
<stop stop-color="#B2782A"/>
<stop offset="0.6075" stop-color="#F4D662"/>
<stop offset="1" stop-color="#F4DE8B"/>
</linearGradient>
</defs>
</svg>
