<svg width="18" height="18" viewBox="0 0 18 18" fill="none" xmlns="http://www.w3.org/2000/svg">
<path d="M4.92344 3.29999C3.87733 3.34726 3.23097 3.49441 2.77375 3.95242C2.1001 4.62723 2.1001 5.71332 2.1001 7.88551V11.7254C2.1001 13.8976 2.1001 14.9837 2.77375 15.6585C3.44741 16.3333 4.53164 16.3333 6.7001 16.3333H11.3001C13.4686 16.3333 14.5528 16.3333 15.2264 15.6585C15.9001 14.9837 15.9001 13.8976 15.9001 11.7254V7.88551C15.9001 5.71332 15.9001 4.62723 15.2264 3.95242C14.7692 3.49441 14.1229 3.34726 13.0768 3.29999" stroke="#1A1A1A" stroke-width="1.2" stroke-linejoin="round"/>
<path d="M5.18595 4.48086C4.81751 3.0396 4.63328 2.31896 4.93271 1.79035C5.01242 1.64962 5.11428 1.52204 5.23455 1.41228C5.68633 1 6.4459 1 7.96503 1H10.0347C11.5538 1 12.3134 1 12.7652 1.41228C12.8855 1.52204 12.9873 1.64962 13.067 1.79035C13.3665 2.31896 13.1822 3.0396 12.8138 4.48086C12.5201 5.62988 12.3732 6.20439 11.9805 6.5825C11.8736 6.68542 11.7549 6.77599 11.6269 6.85244C11.1566 7.13333 10.551 7.13333 9.33993 7.13333H8.65981C7.44871 7.13333 6.84316 7.13333 6.37281 6.85244C6.24479 6.77599 6.12617 6.68542 6.01928 6.5825C5.62655 6.20439 5.47969 5.62988 5.18595 4.48086Z" stroke="#1A1A1A" stroke-width="1.2" stroke-linejoin="round"/>
<path d="M7.46631 13.2667H10.533" stroke="#1A1A1A" stroke-width="1.2" stroke-linecap="round" stroke-linejoin="round"/>
<path d="M8.6167 7.13334L9.38337 4.83334" stroke="#1A1A1A" stroke-width="1.2" stroke-linecap="round" stroke-linejoin="round"/>
</svg>
